<svg xmlns="http://www.w3.org/2000/svg" shape-rendering="geometricPrecision" text-rendering="geometricPrecision" image-rendering="optimizeQuality" fill-rule="evenodd" clip-rule="evenodd" viewBox="0 0 424 511.54"><path fill="#262626" fill-rule="nonzero" d="M86.37 413.44c-11.76 0-11.76-17.89 0-17.89H189.1c-.2 2.95-.31 5.93-.31 8.94s.11 5.99.31 8.95H86.37zM73.12 266.31v-82.59h37c14.89 0 25.11 3.17 30.66 9.51 5.55 6.34 8.32 16.94 8.32 31.78 0 14.85-2.77 25.44-8.32 31.78-5.55 6.34-15.77 9.52-30.66 9.52h-37zm37.4-61.45H99.55v40.3h10.97c3.61 0 6.23-.41 7.86-1.25 1.63-.84 2.45-2.75 2.45-5.75v-26.3c0-2.99-.82-4.91-2.45-5.74-1.63-.84-4.25-1.26-7.86-1.26zm46.84 20.22c0-15.07 2.82-26.06 8.46-32.97 5.64-6.92 15.81-10.37 30.52-10.37 14.71 0 24.89 3.45 30.53 10.37 5.64 6.91 8.45 17.9 8.45 32.97 0 7.49-.59 13.78-1.78 18.89-1.19 5.11-3.24 9.56-6.14 13.35-2.91 3.79-6.92 6.56-12.03 8.32-5.11 1.77-11.45 2.65-19.03 2.65-7.57 0-13.92-.88-19.03-2.65-5.1-1.76-9.11-4.53-12.02-8.32s-4.95-8.24-6.14-13.35c-1.19-5.11-1.79-11.4-1.79-18.89zm28.41-13.74v34.35h10.97c3.61 0 6.23-.42 7.86-1.25 1.63-.84 2.45-2.76 2.45-5.75v-34.36h-11.1c-3.53 0-6.1.42-7.73 1.26-1.63.83-2.45 2.75-2.45 5.75zm116.62 31.31l1.98 22.2c-5.55 2.29-12.51 3.44-20.88 3.44s-15.09-.88-20.15-2.65c-5.07-1.76-9.05-4.53-11.96-8.32s-4.93-8.24-6.08-13.35c-1.14-5.11-1.72-11.4-1.72-18.89s.58-13.81 1.72-18.96c1.15-5.16 3.17-9.63 6.08-13.42 5.64-7.31 15.99-10.96 31.05-10.96 3.35 0 7.29.33 11.83.99 4.54.66 7.9 1.47 10.11 2.44l-3.97 20.22c-5.72-1.23-10.97-1.85-15.72-1.85-4.76 0-8.06.44-9.91 1.32-1.85.88-2.78 2.64-2.78 5.29v34.62c3.44.7 6.92 1.05 10.44 1.05 7.49 0 14.14-1.05 19.96-3.17zM265.81 24.26v29.1c0 65.66 15.31 69.47 69.08 69.47h22.03l-91.11-98.57zm94.33 115.92h-21.48c-61.02 0-90.2-4.09-90.2-86.28V17.35H56.82c-21.7 0-39.47 17.78-39.47 39.47v264.79H219.2c-4.64 5.47-8.83 11.34-12.51 17.54H17.35v89.83c0 21.62 17.85 39.47 39.47 39.47h149.04c3.53 6.12 7.56 11.92 12.02 17.34H56.82C25.63 485.79 0 460.17 0 428.98V56.82C0 25.55 25.55 0 56.82 0h206.33a8.68 8.68 0 016.93 3.45l105.07 113.68c2.19 2.37 2.34 4.66 2.34 7.52v166.86c-5.55-2.98-11.35-5.56-17.35-7.71V140.18z"/><path fill="red" d="M316.95 297.45c59.12 0 107.05 47.93 107.05 107.05 0 59.11-47.93 107.04-107.05 107.04S209.9 463.61 209.9 404.5c0-59.12 47.93-107.05 107.05-107.05z"/><path fill="#fff" fill-rule="nonzero" d="M337.9 356.54l-3.77 47.75 17.35-6.07c11.47-4.4 23.27 3.72 14.38 13.82-10.82 12.45-27.26 29.55-39.22 40.94-7.43 7.42-11.73 7.49-19.18.06-13.24-13-26.24-27.44-39.18-40.87-9.25-10.06 2.3-18.55 14.28-13.95l17.16 6.01c-1.25-16.28-2.82-31.84-3.77-48.1 0-2.99 2.5-5.39 5.42-5.61 10.31 0 20.84-.24 31.12 0 2.92.22 5.42 2.62 5.42 5.61l-.01.41z"/></svg>