<svg width="20" height="20" viewBox="0 0 20 20" fill="none" xmlns="http://www.w3.org/2000/svg">
<g clip-path="url(#clip0_538_28)">
<mask id="mask0_538_28" style="mask-type:luminance" maskUnits="userSpaceOnUse" x="0" y="0" width="20" height="20">
<path d="M0 0V20H20V0H0Z" fill="white"/>
</mask>
<g mask="url(#mask0_538_28)">
<path d="M-80 0.294899C-60.575 0.102196 -45.2944 0.0312958 -29.9941 0.00679779L20.001 49.998V30.5098C20.0188 53.1689 20.0309 72.3054 19.6963 100H-80V0.294899ZM20.001 20.0029V30.5098C19.9982 26.9545 19.9959 23.3125 19.9941 19.5371C19.9977 19.692 20.001 19.8472 20.001 20.0029ZM19.9932 19.4863C19.7191 8.6794 10.8739 0.00289917 0.000976562 0.00289917H-25.8525C-11.9315 -0.0121994 2.31487 0.00409698 20 0C19.9912 6.9722 19.9903 13.4026 19.9932 19.4863ZM-25.8525 0.00289917C-27.2353 0.00440216 -28.6148 0.00460052 -29.9941 0.00679779L-29.9971 0.00289917H-25.8525Z" fill="#D9D9D9"/>
</g>
</g>
<defs>
<clipPath id="clip0_538_28">
<rect width="20" height="20" fill="white" transform="matrix(0 -1 1 0 0 20)"/>
</clipPath>
</defs>
</svg>
