<svg width="20" height="20" viewBox="0 0 20 20" fill="none" xmlns="http://www.w3.org/2000/svg">
<g clip-path="url(#clip0_538_15)">
<mask id="mask0_538_15" style="mask-type:luminance" maskUnits="userSpaceOnUse" x="0" y="0" width="20" height="20">
<path d="M20 20V0H0V20H20Z" fill="white"/>
</mask>
<g mask="url(#mask0_538_15)">
<path d="M100 19.7051C80.575 19.8978 65.2944 19.9687 49.9941 19.9932L-0.000999451 -29.998V-10.5098C-0.0187988 -33.1689 -0.0309067 -52.3054 0.303696 -80H100V19.7051ZM-0.000999451 -0.00292969V-10.5098C0.00180054 -6.95448 0.00409698 -3.31249 0.00589752 0.462891C0.00229645 0.308037 -0.000999451 0.152779 -0.000999451 -0.00292969ZM0.00679779 0.513672C0.280899 11.3206 9.1261 19.9971 19.999 19.9971H45.8525C31.9315 20.0122 17.6851 19.9959 0 20C0.00879669 13.0278 0.00969696 6.5974 0.00679779 0.513672ZM45.8525 19.9971C47.2353 19.9956 48.6148 19.9954 49.9941 19.9932L49.9971 19.9971H45.8525Z" fill="#D9D9D9"/>
</g>
</g>
<defs>
<clipPath id="clip0_538_15">
<rect width="20" height="20" fill="white" transform="matrix(0 1 -1 0 20 0)"/>
</clipPath>
</defs>
</svg>
