<svg width="161" height="160" viewBox="0 0 161 160" fill="none" xmlns="http://www.w3.org/2000/svg">
<rect x="46" y="45" width="70" height="70" rx="35" fill="white"/>
<path d="M90.292 86.2185C90.1255 86.453 89.9756 86.6793 89.7924 86.9013C86.6293 90.7432 81.0997 91.916 76.5805 89.7355C75.9657 89.3899 75.3314 89.0596 74.7873 88.6043V88.5526C74.7873 88.6043 74.758 88.6043 74.6804 88.5238C74.6346 88.5238 74.271 88.2185 74.2044 88.1602C73.1912 87.2816 72.2612 86.106 71.6464 84.9207C70.7775 83.2455 70.3362 81.1927 70.4416 79.3273C70.5402 77.5799 71.0329 75.9699 71.8976 74.4696C73.2189 72.1739 75.398 70.3779 77.9421 69.5271C83.0789 67.8074 88.8527 70.2447 91.2123 75.0983C92.9972 78.7708 92.6349 82.9124 90.292 86.2171V86.2185ZM85.1025 74.8623C82.4377 72.8568 78.5556 73.3772 76.4709 75.9574C75.3938 77.2912 74.8886 79.072 75.1246 80.7625C75.3605 82.453 76.3362 84.0783 77.7575 85.0512C78.0642 85.2622 78.4057 85.4287 78.7166 85.6119C78.8568 85.6938 79.1052 85.7813 79.2634 85.8368C80.4126 86.2365 81.6285 86.2893 82.7902 86.0186C84.8624 85.5342 86.4655 84.1379 87.2358 82.1879C88.3128 79.4592 87.3912 76.5834 85.1039 74.861L85.1025 74.8623Z" fill="#0E0E0E"/>
<path d="M78.7982 92.9306C79.4311 93.1318 80.9106 93.1637 81.6241 93.1554C84.2806 93.1249 87.1051 92.2796 89.3327 90.882C89.4868 90.7848 89.7838 90.5197 89.9392 90.46C89.9906 90.4406 90.0128 90.4253 90.0614 90.4656C90.1488 90.5391 90.3639 90.9305 90.4514 91.0568C91.1912 92.1269 91.9976 93.2192 92.6818 94.3199C92.7013 94.3504 92.7373 94.3698 92.7498 94.3921C92.8012 94.4864 92.7082 94.4601 92.6471 94.4989C92.3917 94.6613 92.1475 94.8431 91.8893 95.0041C85.4076 99.0389 77.1563 98.9834 70.712 94.9264L70 94.4281L72.7301 90.4184C72.7676 90.3906 72.9633 90.5738 73.0021 90.6016C74.558 91.6703 76.5914 92.5433 78.447 92.8709C78.5789 92.8945 78.6538 92.8848 78.7982 92.9306Z" fill="#0E0E0E"/>
<path d="M91.2271 69.1025C89.9586 69.927 88.1959 69.7604 87.1077 68.682C85.9183 67.5036 85.7822 65.6008 86.8051 64.2683C86.8454 64.2156 86.9231 64.1851 86.9662 64.1254C87.3215 63.6229 88.1223 63.1885 88.7372 63.0678C89.7767 62.8651 90.8829 63.115 91.6644 63.8436C92.9482 65.0428 93.1508 66.8638 92.1182 68.2975C91.8739 68.6362 91.5714 68.8791 91.2271 69.1025Z" fill="#0E0E0E"/>
<path d="M81.9272 15.0642L83.7441 0L88.6577 0.592626C90.2484 0.784478 91.5911 1.27465 92.6858 2.06316C93.7956 2.8398 94.6058 3.83331 95.1163 5.04369C95.6284 6.24059 95.795 7.58046 95.6162 9.06328C95.4389 10.5326 94.9577 11.8012 94.1725 12.869C93.3888 13.9233 92.3649 14.7024 91.1006 15.2064C89.8514 15.6985 88.4315 15.8486 86.8408 15.6568L81.9272 15.0642ZM84.9699 12.9694L87.1941 13.2377C88.2186 13.3612 89.1268 13.2588 89.9186 12.9303C90.7255 12.59 91.3834 12.0676 91.8923 11.3631C92.4029 10.6451 92.7208 9.76714 92.846 8.72917C92.9728 7.67771 92.8728 6.74933 92.5459 5.94404C92.2191 5.13875 91.7034 4.48163 90.999 3.97269C90.3079 3.46539 89.4502 3.14995 88.4257 3.02638L86.2015 2.75812L84.9699 12.9694Z" fill="#0E0E0E"/>
<path d="M102.069 19.3952C101.047 19.027 100.2 18.4547 99.5272 17.6783C98.8672 16.9065 98.4354 16.0221 98.2317 15.0251C98.0409 14.0326 98.1341 13.0127 98.5115 11.9652C98.8889 10.9177 99.4676 10.0727 100.248 9.43001C101.04 8.79197 101.937 8.3862 102.938 8.21271C103.938 8.03923 104.956 8.13889 105.991 8.51168C107.013 8.87987 107.853 9.44987 108.514 10.2217C109.174 10.9935 109.599 11.8756 109.79 12.868C109.998 13.8523 109.911 14.8745 109.529 15.9348C109.152 16.9823 108.567 17.825 107.774 18.4631C106.981 19.1011 106.085 19.5069 105.084 19.6804C104.083 19.8539 103.078 19.7588 102.069 19.3952ZM102.898 17.0959C103.46 17.2984 104 17.3414 104.518 17.2251C105.049 17.1133 105.521 16.8648 105.934 16.4796C106.364 16.0862 106.688 15.5894 106.904 14.989C107.125 14.3758 107.191 13.7933 107.101 13.2414C107.028 12.6813 106.823 12.1889 106.486 11.7641C106.165 11.3312 105.724 11.0135 105.162 10.811C104.587 10.6039 104.032 10.5626 103.497 10.6872C102.966 10.799 102.487 11.0451 102.061 11.4257C101.653 11.7982 101.338 12.2909 101.117 12.9041C100.901 13.5045 100.827 14.0911 100.895 14.664C100.98 15.2287 101.191 15.7234 101.529 16.1481C101.867 16.5728 102.323 16.8888 102.898 17.0959Z" fill="#0E0E0E"/>
<path d="M112.13 23.6277L115.019 12.2734L117.37 13.8142L115.092 22.3788L114.286 21.8258L121.373 16.438L123.349 17.7332L121.218 26.3701L120.39 25.8512L127.334 20.3459L129.685 21.8867L120.426 29.0651L118.433 27.7588L120.724 18.7648L121.474 19.2561L114.106 24.9228L112.13 23.6277Z" fill="#0E0E0E"/>
<path d="M123.392 31.6974L131.351 23.9889L133.094 25.7883L131.528 27.3045L131.665 26.889C132.322 26.6114 132.976 26.5642 133.626 26.7474C134.295 26.9309 134.904 27.3055 135.451 27.8712C136.018 28.4564 136.392 29.0961 136.573 29.7903C136.764 30.4943 136.752 31.1951 136.54 31.8927C136.337 32.5808 135.938 33.213 135.343 33.7893L130.222 38.7488L128.366 36.8323L133.033 32.3121C133.384 31.972 133.62 31.6109 133.742 31.2287C133.863 30.8466 133.874 30.4674 133.774 30.0914C133.694 29.7156 133.498 29.3668 133.186 29.0449C132.884 28.7328 132.541 28.5257 132.159 28.4236C131.786 28.312 131.407 28.3108 131.021 28.4199C130.635 28.5289 130.267 28.7535 129.915 29.0936L125.249 33.6138L123.392 31.6974Z" fill="#0E0E0E"/>
<path d="M131.382 40.5243L143.749 31.3169L145.342 33.4569L132.975 42.6643L131.382 40.5243Z" fill="#0E0E0E"/>
<path d="M136.796 49.3043C136.278 48.3494 136.026 47.3583 136.041 46.3311C136.062 45.3157 136.328 44.3682 136.839 43.4885C137.357 42.6207 138.106 41.9215 139.085 41.3908C140.063 40.8601 141.058 40.6145 142.068 40.6538C143.084 40.7052 144.023 40.999 144.885 41.5354C145.748 42.0718 146.441 42.8234 146.965 43.7903C147.483 44.7452 147.731 45.7303 147.71 46.7456C147.689 47.7609 147.42 48.7025 146.902 49.5702C146.402 50.4435 145.657 51.1487 144.667 51.6858C143.688 52.2165 142.69 52.4562 141.674 52.4049C140.658 52.3536 139.718 52.0597 138.856 51.5233C137.994 50.9869 137.307 50.2473 136.796 49.3043ZM138.944 48.1394C139.229 48.6646 139.603 49.0561 140.068 49.3141C140.538 49.5841 141.056 49.7127 141.621 49.7C142.204 49.6928 142.776 49.5371 143.337 49.2329C143.91 48.9223 144.346 48.5311 144.646 48.0594C144.965 47.5931 145.14 47.0892 145.17 46.5474C145.219 46.0111 145.102 45.4804 144.817 44.9552C144.526 44.4181 144.139 44.0178 143.656 43.7543C143.185 43.4844 142.664 43.3498 142.093 43.3505C141.541 43.3567 140.978 43.5152 140.405 43.8258C139.844 44.13 139.398 44.5184 139.067 44.9912C138.755 45.4693 138.584 45.9793 138.553 46.521C138.523 47.0628 138.653 47.6022 138.944 48.1394Z" fill="#0E0E0E"/>
<path d="M141.387 59.9371C141.16 59.197 141.087 58.5165 141.167 57.8957C141.247 57.275 141.469 56.7457 141.832 56.3081C142.208 55.8665 142.701 55.5524 143.311 55.3658C143.895 55.1871 144.455 55.1581 144.988 55.2788C145.535 55.3955 146.048 55.6789 146.526 56.1289C147.005 56.5789 147.436 57.1996 147.82 57.9909L149.445 61.2849L147.497 61.8806L146.08 59.0556C145.834 58.577 145.556 58.2501 145.247 58.0749C144.938 57.8996 144.595 57.8696 144.219 57.9848C143.855 58.096 143.605 58.3216 143.467 58.6618C143.347 59.011 143.35 59.3934 143.477 59.8088C143.64 60.3412 143.894 60.7749 144.237 61.1099C144.598 61.4539 145.014 61.6747 145.484 61.7723C145.958 61.883 146.435 61.8648 146.915 61.7179L149.642 60.8839C150.096 60.7449 150.417 60.448 150.605 59.9931C150.809 59.5472 150.822 59.0321 150.643 58.4479C150.476 57.9025 150.178 57.4613 149.749 57.1241C149.336 56.796 148.859 56.608 148.319 56.5602L148.695 54.1665C149.317 54.2035 149.896 54.3811 150.434 54.6995C150.988 55.0269 151.476 55.4599 151.896 55.9987C152.317 56.5375 152.636 57.164 152.854 57.8781C153.12 58.748 153.192 59.5637 153.07 60.3252C152.961 61.0827 152.677 61.7306 152.217 62.2689C151.773 62.8162 151.175 63.205 150.422 63.4353L143.372 65.5916L142.633 63.1766L144.444 62.6226L144.65 63.156C144.112 63.0224 143.63 62.8149 143.203 62.5337C142.789 62.2485 142.425 61.8915 142.109 61.4627C141.806 61.0299 141.565 60.5214 141.387 59.9371Z" fill="#0E0E0E"/>
<path d="M144.218 73.3661C144.116 72.2983 144.275 71.3215 144.694 70.4357C145.128 69.5486 145.761 68.8197 146.593 68.2491C147.425 67.6784 148.375 67.342 149.442 67.2399C150.524 67.1365 151.52 67.2867 152.432 67.6905C153.343 68.0944 154.096 68.6907 154.69 69.4796C155.285 70.282 155.632 71.2035 155.732 72.2443C155.812 73.0823 155.714 73.8419 155.438 74.523C155.177 75.2163 154.767 75.7806 154.209 76.216L153.623 75.8628L160.131 75.2403L160.385 77.8962L145.037 79.3643L144.797 76.8503L146.925 76.6467L146.425 76.9809C145.794 76.6594 145.284 76.1762 144.895 75.5314C144.52 74.8853 144.294 74.1636 144.218 73.3661ZM146.678 73.4172C146.736 74.0255 146.929 74.5458 147.257 74.9782C147.585 75.4106 148.011 75.7313 148.535 75.9402C149.061 76.1627 149.649 76.2429 150.298 76.1809C150.933 76.1201 151.488 75.9307 151.962 75.6125C152.451 75.3066 152.815 74.9102 153.055 74.4235C153.295 73.9368 153.386 73.3894 153.328 72.7811C153.271 72.1864 153.071 71.6668 152.729 71.2221C152.399 70.7762 151.972 70.442 151.446 70.2195C150.935 70.0093 150.355 69.9352 149.706 69.9972C149.057 70.0593 148.495 70.2426 148.02 70.5473C147.545 70.8654 147.189 71.2746 146.95 71.7748C146.712 72.2751 146.621 72.8225 146.678 73.4172Z" fill="#0E0E0E"/>
<path d="M143.817 90.7599C143.98 89.5214 144.443 88.6029 145.206 88.0047C145.981 87.4216 146.988 87.2113 148.226 87.3738L153.073 88.0097L153.322 86.1115L155.684 86.4215L155.658 86.6234C155.587 87.1619 155.674 87.5978 155.918 87.9311C156.162 88.2643 156.553 88.4663 157.091 88.5369L157.939 88.6482L157.592 91.2936L155.088 90.9651L154.757 93.4893L152.394 93.1793L152.726 90.6551L148.02 90.0378C147.657 89.9901 147.339 90.01 147.068 90.0976C146.794 90.1987 146.573 90.375 146.403 90.6266C146.231 90.8917 146.117 91.2396 146.06 91.6704C146.048 91.7646 146.04 91.8732 146.038 91.9962C146.034 92.1325 146.031 92.2622 146.028 92.3851L143.766 92.0884C143.764 91.8964 143.766 91.6775 143.77 91.4316C143.775 91.1857 143.791 90.9618 143.817 90.7599Z" fill="#0E0E0E"/>
<path d="M143.461 93.886L158.248 98.2495L157.493 100.808L151.242 98.9639L151.717 98.7218C152.282 99.1576 152.645 99.7035 152.805 100.36C152.975 101.032 152.948 101.747 152.725 102.502C152.494 103.283 152.121 103.923 151.606 104.423C151.087 104.935 150.471 105.27 149.759 105.428C149.06 105.59 148.314 105.553 147.519 105.319L140.682 103.301L141.437 100.742L147.669 102.581C148.138 102.72 148.568 102.748 148.961 102.665C149.353 102.583 149.688 102.406 149.967 102.134C150.254 101.879 150.462 101.537 150.588 101.107C150.711 100.69 150.723 100.29 150.624 99.907C150.538 99.5276 150.352 99.1968 150.067 98.9146C149.783 98.6324 149.406 98.4221 148.937 98.2837L142.706 96.4449L143.461 93.886Z" fill="#0E0E0E"/>
<path d="M137.182 109.909C137.709 108.898 138.399 108.132 139.252 107.612C140.105 107.092 141.033 106.826 142.035 106.812C143.038 106.799 144.014 107.04 144.965 107.536C145.953 108.051 146.716 108.717 147.254 109.534C147.799 110.369 148.102 111.27 148.165 112.237C148.221 113.215 148.011 114.162 147.534 115.077C147.132 115.848 146.654 116.456 146.1 116.902C145.539 117.36 144.93 117.678 144.271 117.855C143.612 118.032 142.937 118.078 142.246 117.993C141.567 117.915 140.897 117.703 140.235 117.358C140.066 117.27 139.898 117.167 139.73 117.049C139.555 116.943 139.414 116.831 139.307 116.714L143.262 109.129L145.068 110.07L141.81 116.319L141.545 114.757C142.042 115.154 142.552 115.381 143.073 115.439C143.588 115.508 144.069 115.422 144.517 115.181C144.958 114.951 145.313 114.578 145.583 114.06C145.841 113.567 145.943 113.061 145.891 112.544C145.852 112.033 145.644 111.55 145.269 111.094C144.9 110.657 144.366 110.286 143.667 109.983C143.09 109.621 142.513 109.42 141.937 109.38C141.366 109.358 140.848 109.486 140.382 109.763C139.909 110.053 139.532 110.468 139.249 111.01C138.967 111.552 138.843 112.069 138.877 112.561C138.905 113.066 139.055 113.527 139.327 113.945L137.39 115.369C137.021 114.932 136.762 114.414 136.614 113.817C136.467 113.219 136.438 112.584 136.528 111.911C136.612 111.251 136.83 110.583 137.182 109.909Z" fill="#0E0E0E"/>
<path d="M132.205 118.836L139.872 132.937L137.453 135.583L122.722 129.208L124.756 126.983L127.89 128.385L131.847 124.056L130.184 121.045L132.205 118.836ZM133.115 126.291L130.229 129.448L137.51 132.682L136.988 133.254L133.115 126.291Z" fill="#0E0E0E"/>
<path d="M119.702 126.177L128.475 138.532L126.432 139.982L125.159 138.189L125.676 138.496C125.712 139.203 125.559 139.878 125.216 140.521C124.881 141.175 124.365 141.75 123.667 142.245C122.815 142.85 121.896 143.186 120.911 143.253C119.926 143.32 118.983 143.14 118.081 142.715C117.168 142.297 116.397 141.645 115.769 140.76C115.148 139.885 114.781 138.946 114.668 137.944C114.556 136.941 114.694 135.986 115.081 135.078C115.477 134.181 116.112 133.422 116.987 132.801C117.64 132.337 118.334 132.036 119.068 131.898C119.799 131.778 120.498 131.848 121.165 132.107L121.123 132.786L117.527 127.721L119.702 126.177ZM118.651 134.617C118.153 134.97 117.792 135.401 117.57 135.909C117.347 136.416 117.276 136.95 117.357 137.509C117.426 138.076 117.65 138.625 118.027 139.156C118.404 139.687 118.845 140.074 119.35 140.315C119.851 140.575 120.378 140.684 120.93 140.642C121.491 140.61 122.02 140.417 122.518 140.064C122.994 139.726 123.344 139.303 123.566 138.795C123.777 138.296 123.844 137.757 123.767 137.179C123.687 136.62 123.462 136.08 123.092 135.56C122.715 135.028 122.276 134.633 121.774 134.372C121.262 134.12 120.735 134.011 120.194 134.046C119.641 134.088 119.127 134.279 118.651 134.617Z" fill="#0E0E0E"/>
<path d="M108.864 133.603L114.773 147.556L112.466 148.533L111.608 146.508L112.048 146.919C111.931 147.617 111.636 148.243 111.163 148.798C110.695 149.364 110.067 149.815 109.279 150.148C108.317 150.556 107.347 150.686 106.371 150.54C105.394 150.393 104.512 150.014 103.723 149.405C102.921 148.801 102.309 147.998 101.885 146.998C101.467 146.01 101.31 145.015 101.416 144.012C101.522 143.008 101.862 142.105 102.436 141.302C103.016 140.511 103.799 139.906 104.787 139.488C105.524 139.175 106.267 139.031 107.014 139.053C107.753 139.094 108.421 139.313 109.017 139.709L108.829 140.364L106.407 134.643L108.864 133.603ZM106.021 141.619C105.459 141.857 105.014 142.2 104.688 142.648C104.361 143.096 104.177 143.602 104.136 144.165C104.081 144.734 104.181 145.318 104.436 145.918C104.69 146.518 105.037 146.99 105.478 147.335C105.911 147.697 106.402 147.916 106.951 147.993C107.505 148.083 108.064 148.009 108.626 147.771C109.164 147.543 109.596 147.205 109.922 146.757C110.236 146.315 110.418 145.803 110.466 145.222C110.508 144.659 110.405 144.083 110.156 143.496C109.901 142.895 109.558 142.414 109.124 142.052C108.678 141.696 108.187 141.476 107.651 141.393C107.102 141.316 106.559 141.391 106.021 141.619Z" fill="#0E0E0E"/>
<path d="M92.4761 150.978L94.2746 151.908L93.1247 154.133L95.5629 154.548L95.2416 156.538L92.8066 156.144L93.218 158.718L91.2068 159.039L90.7954 156.465L88.6047 157.599L87.6791 155.808L89.8666 154.654L88.0802 152.898L89.5196 151.451L91.306 153.207L92.4761 150.978Z" fill="#0E0E0E"/>
<path d="M80.0723 144.894L78.6479 160L73.7206 159.535C72.1255 159.385 70.7705 158.93 69.6556 158.17C68.526 157.423 67.6902 156.451 67.1484 155.254C66.6054 154.071 66.4039 152.736 66.5441 151.249C66.683 149.775 67.1311 148.495 67.8883 147.407C68.6442 146.332 69.6476 145.527 70.8983 144.99C72.1343 144.466 73.5498 144.279 75.145 144.429L80.0723 144.894ZM77.0852 147.067L74.8547 146.857C73.8273 146.76 72.9222 146.886 72.1392 147.235C71.3414 147.596 70.6973 148.135 70.2068 148.853C69.7151 149.584 69.4202 150.47 69.3221 151.511C69.2226 152.565 69.3468 153.49 69.6945 154.287C70.0421 155.084 70.5747 155.727 71.2922 156.217C71.9962 156.707 72.8619 157 73.8892 157.096L76.1197 157.307L77.0852 147.067Z" fill="#0E0E0E"/>
<path d="M59.8205 141.09C60.8517 141.431 61.7138 141.981 62.4067 142.74C63.0868 143.494 63.5417 144.367 63.7714 145.358C63.9883 146.345 63.9218 147.367 63.572 148.424C63.2222 149.481 62.6659 150.341 61.9031 151.004C61.1274 151.663 60.2417 152.092 59.2459 152.292C58.2502 152.491 57.2303 152.418 56.1862 152.073C55.155 151.732 54.2993 151.184 53.6192 150.43C52.9392 149.675 52.4907 148.805 52.2739 147.818C52.0399 146.839 52.0999 145.815 52.454 144.745C52.8037 143.688 53.3665 142.83 54.1422 142.172C54.9179 141.513 55.8037 141.084 56.7994 140.884C57.7951 140.684 58.8021 140.753 59.8205 141.09ZM59.0527 143.41C58.4855 143.223 57.9444 143.194 57.4294 143.324C56.9016 143.449 56.4363 143.71 56.0335 144.106C55.6136 144.511 55.3034 145.016 55.103 145.622C54.8982 146.24 54.848 146.824 54.9522 147.374C55.0393 147.932 55.2572 148.419 55.6059 148.834C55.9374 149.259 56.3868 149.565 56.954 149.753C57.5341 149.944 58.0902 149.971 58.6223 149.833C59.1501 149.707 59.6219 149.448 60.0375 149.057C60.436 148.674 60.7376 148.173 60.9424 147.554C61.1428 146.948 61.2017 146.36 61.1188 145.789C61.0189 145.227 60.7945 144.738 60.4458 144.322C60.0971 143.906 59.6327 143.602 59.0527 143.41Z" fill="#0E0E0E"/>
<path d="M49.6517 137.122L47.0596 148.548L44.6696 147.069L46.7236 138.448L47.5442 138.98L40.5998 144.55L38.5908 143.307L40.4955 134.617L41.3376 135.114L34.5383 140.799L32.1484 139.319L41.2176 131.903L43.2439 133.157L41.1875 142.207L40.4255 141.736L47.6428 135.879L49.6517 137.122Z" fill="#0E0E0E"/>
<path d="M38.187 129.351L30.4313 137.263L28.6423 135.51L30.1678 133.954L30.0424 134.372C29.3924 134.667 28.7401 134.731 28.0856 134.565C27.4118 134.399 26.7937 134.04 26.2313 133.489C25.6495 132.919 25.2592 132.289 25.0602 131.599C24.8516 130.901 24.8446 130.2 25.0392 129.497C25.2243 128.804 25.6067 128.161 26.1865 127.57L31.1764 122.479L33.0818 124.347L28.5339 128.987C28.1917 129.336 27.9649 129.703 27.8536 130.088C27.7422 130.473 27.7412 130.853 27.8505 131.226C27.9407 131.599 28.1458 131.943 28.4658 132.257C28.776 132.561 29.1237 132.759 29.5087 132.851C29.8841 132.953 30.2633 132.944 30.6462 132.825C31.0291 132.706 31.3916 132.472 31.7337 132.123L36.2817 127.483L38.187 129.351Z" fill="#0E0E0E"/>
<path d="M29.973 120.737L17.8506 130.263L16.202 128.165L28.3245 118.639L29.973 120.737Z" fill="#0E0E0E"/>
<path d="M24.3305 112.099C24.873 113.04 25.1505 114.024 25.1629 115.051C25.1685 116.067 24.9271 117.021 24.4388 117.914C23.9437 118.795 23.2138 119.513 22.2493 120.069C21.2847 120.626 20.2972 120.897 19.2866 120.884C18.2693 120.859 17.3226 120.59 16.4466 120.077C15.5705 119.563 14.8578 118.83 14.3085 117.877C13.7659 116.936 13.4919 115.958 13.4863 114.942C13.4807 113.927 13.7254 112.978 14.2205 112.097C14.6971 111.211 15.4236 110.487 16.3999 109.924C17.3644 109.368 18.3554 109.102 19.3727 109.127C20.39 109.152 21.3367 109.421 22.2127 109.934C23.0888 110.448 23.7947 111.169 24.3305 112.099ZM22.2132 113.319C21.9148 112.802 21.5301 112.42 21.0593 112.175C20.5817 111.917 20.0609 111.802 19.4968 111.829C18.9142 111.852 18.3464 112.022 17.7936 112.341C17.2289 112.667 16.8027 113.069 16.5149 113.549C16.2085 114.023 16.0471 114.531 16.0307 115.074C15.9957 115.611 16.1274 116.139 16.4258 116.656C16.731 117.186 17.1283 117.576 17.6176 117.826C18.0953 118.084 18.6195 118.205 19.1904 118.189C19.7427 118.168 20.3011 117.995 20.8658 117.67C21.4186 117.351 21.8541 116.951 22.1722 116.47C22.4718 115.984 22.6298 115.469 22.6463 114.927C22.6627 114.385 22.5183 113.849 22.2132 113.319Z" fill="#0E0E0E"/>
<path d="M19.462 101.59C19.7078 102.324 19.7989 103.002 19.7353 103.625C19.6718 104.247 19.4643 104.782 19.1128 105.229C18.7484 105.68 18.2637 106.007 17.6586 106.21C17.0792 106.404 16.521 106.448 15.9842 106.341C15.4344 106.239 14.9145 105.969 14.4245 105.532C13.9344 105.095 13.487 104.485 13.0823 103.705L11.3711 100.454L13.3024 99.8077L14.794 102.594C15.0522 103.066 15.3382 103.386 15.6519 103.553C15.9656 103.72 16.3091 103.741 16.6825 103.616C17.043 103.495 17.2874 103.263 17.4157 102.919C17.5269 102.567 17.5135 102.185 17.3755 101.773C17.1987 101.245 16.9341 100.818 16.5816 100.492C16.2118 100.158 15.7908 99.9481 15.3183 99.8629C14.8416 99.7648 14.365 99.7955 13.8887 99.955L11.1849 100.86C10.7342 101.011 10.4212 101.317 10.2458 101.776C10.0532 102.227 10.0539 102.743 10.2479 103.322C10.429 103.863 10.7387 104.296 11.1772 104.622C11.5984 104.939 12.0795 105.114 12.6206 105.148L12.3083 107.551C11.6857 107.53 11.1015 107.368 10.5558 107.064C9.99286 106.751 9.49421 106.331 9.05982 105.803C8.62543 105.276 8.28967 104.658 8.05255 103.95C7.76368 103.087 7.67025 102.274 7.77225 101.509C7.86137 100.749 8.12883 100.094 8.57462 99.5437C9.00323 98.9849 9.59091 98.5805 10.3377 98.3304L17.3289 95.9893L18.1308 98.3841L16.3348 98.9856L16.115 98.4577C16.6562 98.5772 17.1438 98.7719 17.5779 99.0418C17.999 99.316 18.3731 99.6633 18.7 100.084C19.014 100.508 19.268 101.01 19.462 101.59Z" fill="#0E0E0E"/>
<path d="M16.2793 88.2386C16.4092 89.3034 16.2758 90.284 15.879 91.1805C15.4688 92.0786 14.8552 92.8237 14.0384 93.4158C13.2215 94.0079 12.2807 94.3688 11.2159 94.4987C10.1377 94.6302 9.13765 94.506 8.21586 94.126C7.29408 93.7461 6.52614 93.1695 5.91204 92.3963C5.2963 91.6097 4.92512 90.6975 4.79853 89.6597C4.69659 88.824 4.77464 88.0622 5.03267 87.3741C5.27558 86.6743 5.67053 86.0994 6.21753 85.6497L6.81271 85.9875L0.323051 86.7791L-2.08896e-05 84.1307L15.3043 82.2638L15.6101 84.7707L13.4873 85.0296L13.9784 84.6825C14.6175 84.9875 15.1398 85.4573 15.5455 86.0917C15.9377 86.7278 16.1823 87.4434 16.2793 88.2386ZM13.8188 88.2515C13.7448 87.645 13.5383 87.1299 13.1994 86.7062C12.8604 86.2825 12.426 85.973 11.8961 85.7777C11.3645 85.569 10.7752 85.5041 10.1283 85.583C9.49484 85.6603 8.9452 85.8641 8.4794 86.1945C7.99847 86.5131 7.64444 86.9187 7.4173 87.4115C7.19017 87.9043 7.11359 88.4539 7.18758 89.0605C7.25992 89.6535 7.47312 90.1678 7.82718 90.6033C8.16776 91.0405 8.60384 91.3635 9.13541 91.5722C9.65185 91.7691 10.2336 91.8281 10.8805 91.7492C11.5274 91.6703 12.0846 91.4724 12.5521 91.1555C13.0179 90.8251 13.3635 90.4067 13.589 89.9005C13.8145 89.3942 13.8911 88.8446 13.8188 88.2515Z" fill="#0E0E0E"/>
<path d="M16.2306 70.8375C16.1004 72.0798 15.6616 73.01 14.9142 73.6279C14.1547 74.2309 13.1538 74.4673 11.9114 74.337L7.05002 73.8274L6.85042 75.7315L4.48048 75.483L4.50171 75.2805C4.55834 74.7403 4.46043 74.3068 4.20799 73.98C3.95555 73.6532 3.55925 73.4615 3.0191 73.4049L2.16835 73.3157L2.44651 70.6622L4.95824 70.9255L5.22367 68.3935L7.59361 68.6419L7.32818 71.1739L12.0478 71.6686C12.4124 71.7069 12.7294 71.6787 12.9987 71.584C13.2694 71.4759 13.4865 71.2938 13.6498 71.0379C13.8146 70.7685 13.9196 70.4177 13.9649 69.9856C13.9748 69.8911 13.9794 69.7823 13.9786 69.6594C13.9793 69.5229 13.9792 69.3932 13.9785 69.2703L16.2471 69.5081C16.2543 69.7 16.2587 69.9189 16.2602 70.1648C16.2617 70.4107 16.2519 70.6349 16.2306 70.8375Z" fill="#0E0E0E"/>
<path d="M16.503 67.7144L1.60547 63.7432L2.2927 61.1651L8.59019 62.8439L8.12185 63.0984C7.54543 62.6778 7.16842 62.1417 6.99081 61.4901C6.80358 60.8219 6.81139 60.1073 7.01424 59.3464C7.22408 58.5592 7.58 57.9093 8.08199 57.3967C8.58748 56.871 9.19401 56.5198 9.90157 56.3431C10.596 56.1628 11.3434 56.1794 12.1437 56.3927L19.0316 58.2288L18.3443 60.8069L12.0665 59.1334C11.5942 59.0075 11.163 58.9909 10.7729 59.0836C10.3829 59.1764 10.0523 59.3623 9.78116 59.6413C9.50042 59.9037 9.30235 60.2514 9.18694 60.6844C9.07502 61.1042 9.07374 61.5043 9.18311 61.8848C9.27935 62.2617 9.47355 62.5875 9.7657 62.8621C10.0578 63.1367 10.4401 63.337 10.9124 63.4629L17.1902 65.1364L16.503 67.7144Z" fill="#0E0E0E"/>
<path d="M22.358 51.5288C21.8574 52.5537 21.1876 53.3372 20.3486 53.8793C19.5095 54.4215 18.5892 54.7124 17.5876 54.7521C16.586 54.7917 15.6033 54.5762 14.6395 54.1054C13.6391 53.6167 12.8588 52.9712 12.2988 52.1687C11.7325 51.3481 11.4054 50.4555 11.3175 49.4908C11.2356 48.5139 11.421 47.5618 11.8739 46.6346C12.2553 45.8537 12.7172 45.2331 13.2594 44.7726C13.8076 44.3 14.4087 43.9665 15.0628 43.7721C15.7168 43.5778 16.3902 43.5139 17.0831 43.5803C17.7638 43.6408 18.4396 43.8349 19.1107 44.1627C19.2815 44.2461 19.4524 44.3447 19.6235 44.4585C19.8005 44.5601 19.9443 44.6681 20.0546 44.7824L16.3003 52.4686L14.4702 51.5747L17.5631 45.2428L17.869 46.7975C17.3614 46.4136 16.8463 46.1998 16.3237 46.156C15.807 46.1001 15.3282 46.1987 14.8872 46.4517C14.4523 46.6926 14.1066 47.0753 13.8504 47.6C13.6061 48.1002 13.5167 48.6081 13.5822 49.1236C13.6355 49.6332 13.8555 50.1109 14.2422 50.5567C14.6227 50.9843 15.1664 51.3405 15.8735 51.6255C16.4596 51.9722 17.0413 52.1581 17.6184 52.1831C18.1893 52.19 18.7041 52.0486 19.163 51.7589C19.6277 51.457 19.9942 51.0316 20.2624 50.4826C20.5305 49.9336 20.6411 49.4133 20.594 48.9219C20.5529 48.4183 20.3908 47.9613 20.1076 47.551L22.0068 46.076C22.3872 46.5036 22.6592 47.0142 22.8226 47.6078C22.986 48.2014 23.0313 48.8355 22.9586 49.5102C22.8919 50.1728 22.6917 50.8456 22.358 51.5288Z" fill="#0E0E0E"/>
<path d="M27.1019 42.4712L19.0714 28.5737L21.4205 25.8662L36.3116 31.8564L34.3362 34.1332L31.1674 32.813L27.3234 37.2435L29.064 40.2098L27.1019 42.4712ZM25.9979 35.0418L28.8008 31.8112L21.4384 28.7669L21.9456 28.1824L25.9979 35.0418Z" fill="#0E0E0E"/>
<path d="M39.4074 34.8101L30.3156 22.6877L32.3197 21.1846L33.6395 22.9443L33.114 22.651C33.0597 21.945 33.1955 21.2661 33.5213 20.6144C33.8391 19.9517 34.3401 19.3638 35.0244 18.8506C35.8608 18.2233 36.7705 17.8635 37.7536 17.7711C38.7366 17.6788 39.6843 17.8336 40.5968 18.2355C41.5201 18.6292 42.3076 19.2606 42.9593 20.1296C43.6029 20.9877 43.994 21.9164 44.1325 22.9158C44.271 23.9151 44.1583 24.8737 43.7944 25.7916C43.4224 26.6986 42.8073 27.4739 41.9492 28.1175C41.3083 28.5981 40.6226 28.9172 39.8921 29.0747C39.1643 29.2132 38.4637 29.1616 37.7902 28.92L37.8147 28.2397L41.5418 33.2092L39.4074 34.8101ZM40.2383 26.3456C40.7271 25.979 41.0761 25.539 41.2852 25.0258C41.4943 24.5126 41.5513 23.9776 41.4563 23.4209C41.3721 22.856 41.1345 22.3129 40.7434 21.7915C40.3524 21.2701 39.9016 20.8954 39.3911 20.6673C38.8833 20.4202 38.3537 20.3251 37.8024 20.3822C37.243 20.4283 36.7189 20.6347 36.2301 21.0013C35.763 21.3516 35.425 21.7834 35.2159 22.2967C35.0176 22.8018 34.9647 23.3422 35.057 23.9179C35.152 24.4746 35.391 25.0082 35.7739 25.5187C36.165 26.0401 36.6144 26.4243 37.1222 26.6715C37.6409 26.9104 38.1704 27.0055 38.7108 26.9566C39.2621 26.8996 39.7713 26.6959 40.2383 26.3456Z" fill="#0E0E0E"/>
<path d="M50.0428 27.1064L43.7668 13.3143L46.0469 12.2767L46.958 14.2788L46.5077 13.8795C46.6063 13.1782 46.8847 12.5443 47.343 11.9778C47.7956 11.3989 48.4112 10.9323 49.1898 10.578C50.1414 10.145 51.1072 9.98892 52.0871 10.1099C53.067 10.2308 53.9594 10.5856 54.7642 11.174C55.5814 11.7569 56.215 12.5427 56.6649 13.5314C57.1091 14.5077 57.2916 15.4987 57.2122 16.5045C57.1329 17.5103 56.8169 18.4223 56.2644 19.2406C55.7062 20.0465 54.939 20.6716 53.9627 21.1159C53.2335 21.4477 52.4953 21.6121 51.748 21.609C51.0075 21.588 50.3343 21.3871 49.7285 21.0064L49.8984 20.3473L52.4713 26.0013L50.0428 27.1064ZM52.6723 19.0179C53.2285 18.7648 53.6638 18.4101 53.9782 17.9538C54.2927 17.4974 54.4633 16.9872 54.49 16.423C54.5291 15.8533 54.4137 15.2718 54.1437 14.6786C53.8738 14.0854 53.514 13.6226 53.0644 13.2902C52.6215 12.9397 52.1247 12.7332 51.5741 12.6705C51.0178 12.5954 50.4616 12.6844 49.9055 12.9375C49.374 13.1793 48.9511 13.5284 48.6367 13.9848C48.3346 14.4355 48.1668 14.9519 48.1333 15.534C48.1066 16.0981 48.2254 16.6706 48.4897 17.2515C48.7596 17.8447 49.116 18.3165 49.5589 18.6669C50.0142 19.0117 50.511 19.2183 51.0492 19.2866C51.5999 19.3493 52.1409 19.2597 52.6723 19.0179Z" fill="#0E0E0E"/>
<path d="M65.9996 9.29722L64.1775 8.41466L65.2695 6.15993L62.8213 5.8085L63.091 3.81071L65.5354 4.14212L65.0574 1.57935L67.0596 1.20595L67.5376 3.76872L69.6982 2.57849L70.6698 4.34477L68.513 5.55503L70.3442 7.26459L68.9428 8.74832L67.1115 7.03876L65.9996 9.29722Z" fill="#0E0E0E"/>
</svg>
