<svg width="199" height="40" viewBox="0 0 199 40" fill="none" xmlns="http://www.w3.org/2000/svg">
<path fill-rule="evenodd" clip-rule="evenodd" d="M60.9345 0H6.23667C2.77512 0 -0.0270749 2.82967 0.000197395 6.26374V27.1429C0.000197395 30.6044 2.8026 33.4066 6.26415 33.4066H32.1707L44.0115 40L41.3192 33.4066H60.9345C64.3961 33.4066 67.1982 30.6044 67.1982 27.1429V6.26374C67.1982 2.80219 64.3961 0 60.9345 0ZM5.08295 4.83516C4.31371 4.89011 3.73677 5.16484 3.35216 5.68681C2.96755 6.18132 2.8302 6.81318 2.9126 7.52747C4.53349 17.8298 6.04447 24.7802 7.44558 28.3792C7.99504 29.6978 8.6269 30.3298 9.36867 30.2748C10.5225 30.1923 11.8961 28.599 13.517 25.4946C14.3687 23.7362 15.6874 21.099 17.4731 17.5824C18.9565 22.7747 20.9895 26.6759 23.5445 29.2857C24.2589 30.0275 25.0006 30.3572 25.7148 30.3022C26.3468 30.2473 26.8411 29.9176 27.1708 29.3131C27.4456 28.7912 27.5555 28.1868 27.5005 27.5C27.3357 25 27.583 21.511 28.2698 17.033C28.984 12.4176 29.8632 9.09341 30.9346 7.11539C31.1544 6.7033 31.2367 6.2912 31.2093 5.7967C31.1544 5.16482 30.8797 4.64286 30.3577 4.23077C29.8358 3.81868 29.2587 3.62638 28.6269 3.68131C27.8302 3.73626 27.2258 4.12087 26.8137 4.89011C25.1105 7.9945 23.9016 13.022 23.1874 20C22.1434 17.3627 21.2642 14.2582 20.5774 10.6044C20.2753 8.98352 19.5336 8.21428 18.3247 8.29671C17.5005 8.35164 16.8137 8.9011 16.2643 9.94505L10.2478 21.4011C9.25877 17.4176 8.3247 12.555 7.47305 6.81318C7.28075 5.38462 6.48403 4.72526 5.08295 4.83516ZM58.0225 6.81327C59.9732 7.22537 61.4292 8.26932 62.4181 10.0001C63.2973 11.4836 63.7368 13.2693 63.7368 15.4122C63.7368 18.2418 63.0226 20.8242 61.5939 23.1869C59.9456 25.9342 57.8027 27.3077 55.138 27.3077C54.671 27.3077 54.1764 27.2528 53.6543 27.1429C51.7039 26.7309 50.2478 25.687 49.2587 23.9562C48.3797 22.4452 47.9401 20.632 47.9401 18.5165C47.9401 15.6869 48.6545 13.1045 50.083 10.7693C51.7588 8.02207 53.9017 6.64844 56.5391 6.64844C57.0061 6.64844 57.5006 6.70339 58.0225 6.81327ZM56.8688 21.6759C57.8853 20.7693 58.572 19.4231 58.9567 17.61C59.0666 16.9781 59.1489 16.2913 59.1489 15.577C59.1489 14.7803 58.9841 13.9287 58.6544 13.077C58.2423 12.0056 57.6928 11.4287 57.0335 11.2913C56.0445 11.099 55.083 11.6484 54.1764 12.9946C53.4347 14.0386 52.9676 15.1375 52.7204 16.2638C52.5829 16.8957 52.528 17.5826 52.528 18.2694C52.528 19.066 52.6928 19.9177 53.0225 20.7693C53.4347 21.8407 53.984 22.4176 54.6434 22.5551C55.3302 22.6923 56.0719 22.3902 56.8688 21.6759ZM45.1928 10.0001C44.2037 8.26932 42.7203 7.22537 40.7972 6.81327C40.2751 6.70339 39.7808 6.64844 39.3136 6.64844C36.6764 6.64844 34.5335 8.02207 32.8577 10.7693C31.429 13.1045 30.7148 15.6869 30.7148 18.5165C30.7148 20.632 31.1544 22.4452 32.0334 23.9562C33.0225 25.687 34.4786 26.7309 36.429 27.1429C36.9509 27.2528 37.4455 27.3077 37.9126 27.3077C40.5774 27.3077 42.7203 25.9342 44.3686 23.1869C45.7973 20.8242 46.5114 18.2418 46.5114 15.4122C46.5114 13.2693 46.0718 11.4836 45.1928 10.0001ZM41.7312 17.61C41.3467 19.4231 40.6598 20.7693 39.6433 21.6759C38.8466 22.3902 38.1049 22.6923 37.4181 22.5551C36.7587 22.4176 36.2092 21.8407 35.7972 20.7693C35.4675 19.9177 35.3026 19.066 35.3026 18.2694C35.3026 17.5826 35.3576 16.8957 35.495 16.2638C35.7422 15.1375 36.2092 14.0386 36.9509 12.9946C37.8577 11.6484 38.8192 11.099 39.8081 11.2913C40.4675 11.4287 41.017 12.0056 41.4291 13.077C41.7588 13.9287 41.9236 14.7803 41.9236 15.577C41.9236 16.2913 41.8687 16.9781 41.7312 17.61Z" fill="#7F54B3"/>
<path fill-rule="evenodd" clip-rule="evenodd" d="M74.1487 9.75301C72.3079 11.5662 71.4014 13.8739 71.4014 16.6761C71.4014 19.6706 72.3079 22.1156 74.1213 23.9563C75.9344 25.797 78.2971 26.731 81.2366 26.731C82.0882 26.731 83.0498 26.5937 84.0938 26.2914V21.8409C83.1323 22.1156 82.308 22.2531 81.5937 22.2531C80.1376 22.2531 78.9839 21.7585 78.1047 20.797C77.2257 19.8079 76.7861 18.4893 76.7861 16.8134C76.7861 15.2475 77.2256 13.9563 78.0773 12.9673C78.9563 11.9508 80.0277 11.4563 81.3465 11.4563C82.1981 11.4563 83.1047 11.5937 84.0938 11.8684V7.41783C83.1872 7.17058 82.1707 7.06068 81.0991 7.06068C78.2971 7.0332 75.9894 7.93982 74.1487 9.75301ZM93.2147 7.0332C90.6872 7.0332 88.7092 7.88487 87.2805 9.56068C85.852 11.2365 85.1652 13.5992 85.1652 16.6211C85.1652 19.8904 85.8794 22.3903 87.2805 24.1212C88.6816 25.852 90.7421 26.731 93.4345 26.731C96.0443 26.731 98.0497 25.852 99.4508 24.1212C100.852 22.3903 101.566 19.9454 101.566 16.8134C101.566 13.6816 100.852 11.264 99.4234 9.56068C97.9674 7.88487 95.9069 7.0332 93.2147 7.0332ZM95.3849 21.3189C94.8904 22.0882 94.1487 22.4729 93.2147 22.4729C92.3355 22.4729 91.6761 22.0882 91.2091 21.3189C90.7421 20.5496 90.5224 19.0112 90.5224 16.6761C90.5224 13.0772 91.4289 11.2914 93.2696 11.2914C95.1927 11.2914 96.1816 13.1047 96.1816 16.7585C96.1542 19.0112 95.8795 20.5496 95.3849 21.3189ZM115.138 7.55519L114.149 11.7585C113.901 12.8299 113.654 13.9288 113.434 15.0552L112.885 17.9674C112.363 15.0552 111.649 11.5937 110.742 7.55519H104.369L101.978 26.264H106.759L108.05 13.3794L111.319 26.264H114.726L117.857 13.4068L119.204 26.264H124.204L121.676 7.55519H115.138ZM138.022 7.55519L137.033 11.7585C136.786 12.8299 136.539 13.9288 136.319 15.0552L135.77 17.9674C135.248 15.0552 134.533 11.5937 133.627 7.55519H127.253L124.863 26.264H129.643L130.934 13.3794L134.204 26.264H137.61L140.715 13.4068L142.061 26.264H147.061L144.533 7.55519H138.022ZM153.572 18.8739H158.05V15.0003H153.572V11.5662H158.737V7.58266H148.517V26.2914H158.764V22.308H153.572V18.8739ZM172.995 15.9068C173.517 15.0552 173.792 14.1761 173.792 13.2695C173.792 11.5112 173.105 10.1101 171.731 9.09365C170.358 8.07717 168.462 7.55519 166.099 7.55519H160.22V26.264H165.275V17.7476H165.358L169.451 26.264H174.781L170.742 17.8299C171.704 17.3904 172.473 16.7585 172.995 15.9068ZM165.248 15.6046V11.1541C166.456 11.1816 167.308 11.3739 167.83 11.7585C168.352 12.1431 168.599 12.7475 168.599 13.6266C168.599 14.9178 167.473 15.5772 165.248 15.6046ZM176.758 9.75301C174.918 11.5662 174.011 13.8739 174.011 16.6761C174.011 19.6706 174.918 22.1156 176.732 23.9563C178.545 25.797 180.906 26.731 183.847 26.731C184.698 26.731 185.66 26.5937 186.703 26.2914V21.8409C185.743 22.1156 184.918 22.2531 184.203 22.2531C182.748 22.2531 181.595 21.7585 180.715 20.797C179.835 19.8079 179.397 18.4893 179.397 16.8134C179.397 15.2475 179.835 13.9563 180.687 12.9673C181.566 11.9508 182.637 11.4563 183.956 11.4563C184.807 11.4563 185.715 11.5937 186.703 11.8684V7.41783C185.797 7.17058 184.781 7.06068 183.71 7.06068C180.934 7.0332 178.6 7.93982 176.758 9.75301ZM193.16 22.2531V18.8464H197.637V14.9728H193.16V11.5387H198.351V7.55519H188.132V26.264H198.38V22.2804H193.16V22.2531Z" fill="#0E0E0E"/>
</svg>
