<svg width="158" height="40" viewBox="0 0 158 40" fill="none" xmlns="http://www.w3.org/2000/svg">
<path d="M28.8615 3.01557C27.0093 0.904484 23.6612 -0.000583649 19.3782 -0.000583649H6.94739C6.5234 -0.000808716 6.11325 0.150299 5.79074 0.425541C5.46824 0.700787 5.25456 1.08209 5.18815 1.50085L0.0144564 34.3299C-0.00953326 34.4822 -0.000222027 34.6379 0.0417492 34.7863C0.0837204 34.9346 0.157354 35.0721 0.257576 35.1893C0.357798 35.3064 0.482226 35.4004 0.622288 35.4649C0.76235 35.5293 0.914717 35.5626 1.06889 35.5625H8.74313L10.6705 23.3375L10.6108 23.7203C10.6759 23.3024 10.8882 22.9215 11.2093 22.6462C11.5304 22.3709 11.9393 22.2194 12.3623 22.2189H16.0091C23.1733 22.2189 28.7829 19.3089 30.4215 10.8912C30.4702 10.6422 30.5123 10.3999 30.5488 10.1631C31.0356 7.05185 30.5455 4.93413 28.8626 3.01667" fill="#003087"/>
<path d="M122.811 18.6376C122.342 21.7179 119.989 21.7179 117.715 21.7179H116.42L117.329 15.9666C117.384 15.6192 117.683 15.3636 118.034 15.3636H118.629C120.178 15.3636 121.64 15.3636 122.395 16.2455C122.845 16.7732 122.981 17.5566 122.811 18.6376ZM121.821 10.6004H113.239C112.955 10.6006 112.68 10.702 112.464 10.8865C112.248 11.0711 112.104 11.3266 112.06 11.6073L108.592 33.611C108.576 33.713 108.582 33.8173 108.611 33.9166C108.639 34.016 108.688 34.108 108.755 34.1866C108.822 34.2651 108.905 34.3281 108.999 34.3715C109.093 34.4148 109.195 34.4373 109.298 34.4375H113.702C114.112 34.4375 114.462 34.1388 114.526 33.7338L115.511 27.4935C115.601 26.9148 116.101 26.4866 116.688 26.4866H119.403C125.057 26.4866 128.319 23.7526 129.171 18.33C129.555 15.96 129.186 14.0968 128.076 12.7923C126.856 11.3583 124.693 10.5993 121.822 10.5993" fill="#009CDE"/>
<path d="M61.6031 18.6376C61.134 21.7179 58.7817 21.7179 56.5057 21.7179H55.2112L56.1196 15.9666C56.1749 15.6192 56.4737 15.3636 56.8255 15.3636H57.4197C58.9687 15.3636 60.4314 15.3636 61.186 16.2455C61.6374 16.7732 61.7735 17.5566 61.6031 18.6376ZM60.6128 10.6004H52.0313C51.4449 10.6004 50.9448 11.0275 50.853 11.6073L47.3843 33.611C47.3681 33.713 47.3743 33.8173 47.4023 33.9168C47.4304 34.0162 47.4796 34.1084 47.5467 34.1869C47.6138 34.2655 47.6972 34.3286 47.791 34.3718C47.8848 34.4151 47.9869 34.4375 48.0902 34.4375H52.1884C52.7748 34.4375 53.2738 34.0104 53.3657 33.4306L54.3028 27.4946C54.3936 26.9148 54.8937 26.4877 55.4801 26.4877H58.1953C63.8492 26.4877 67.1109 23.7526 67.9629 18.33C68.3468 15.96 67.9784 14.0968 66.8686 12.7923C65.6482 11.3583 63.4851 10.5993 60.6139 10.5993M80.5364 26.5375C80.1381 28.8854 78.276 30.4621 75.8983 30.4621C74.7066 30.4621 73.7518 30.0781 73.1388 29.3523C72.5303 28.6331 72.3023 27.6075 72.4949 26.4667C72.8644 24.1388 74.7586 22.5123 77.0998 22.5123C78.2671 22.5123 79.2131 22.8996 79.8394 23.632C80.4689 24.37 80.7168 25.4012 80.5364 26.5375ZM86.2634 18.538H82.154C81.9832 18.5378 81.8179 18.5987 81.6881 18.7097C81.5582 18.8207 81.4723 18.9744 81.4459 19.1432L81.2667 20.2917L80.979 19.8757C80.0894 18.5845 78.1056 18.1518 76.1251 18.1518C71.5854 18.1518 67.7073 21.5929 66.9527 26.4169C66.5599 28.8256 67.1176 31.1259 68.4829 32.7314C69.7365 34.2062 71.5256 34.8203 73.6577 34.8203C77.3178 34.8203 79.347 32.4702 79.347 32.4702L79.1634 33.6121C79.1472 33.7142 79.1534 33.8186 79.1815 33.9181C79.2096 34.0177 79.259 34.1099 79.3262 34.1885C79.3934 34.267 79.4769 34.3301 79.5708 34.3733C79.6648 34.4165 79.767 34.4387 79.8704 34.4386H83.5703C84.1567 34.4386 84.6568 34.0126 84.7486 33.4317L86.9704 19.3656C86.9864 19.2634 86.98 19.159 86.9518 19.0595C86.9235 18.96 86.874 18.8678 86.8067 18.7892C86.7394 18.7107 86.6559 18.6476 86.5619 18.6044C86.4679 18.5613 86.3657 18.539 86.2622 18.5391" fill="#003087"/>
<path d="M141.744 26.5375C141.346 28.8854 139.484 30.4621 137.106 30.4621C135.914 30.4621 134.96 30.0781 134.347 29.3523C133.738 28.6331 133.51 27.6075 133.703 26.4667C134.072 24.1388 135.965 22.5123 138.308 22.5123C139.475 22.5123 140.421 22.8996 141.047 23.632C141.677 24.37 141.925 25.4012 141.744 26.5375ZM147.471 18.538H143.362C143.191 18.5378 143.026 18.5987 142.896 18.7097C142.766 18.8207 142.68 18.9744 142.654 19.1432L142.474 20.2917L142.187 19.8757C141.297 18.5845 139.313 18.1518 137.333 18.1518C132.794 18.1518 128.916 21.5929 128.161 26.4169C127.768 28.8256 128.326 31.1259 129.692 32.7314C130.945 34.2062 132.735 34.8203 134.867 34.8203C138.528 34.8203 140.557 32.4702 140.557 32.4702L140.373 33.6121C140.357 33.7141 140.363 33.8185 140.391 33.918C140.418 34.0175 140.467 34.1098 140.535 34.1884C140.602 34.267 140.685 34.3301 140.779 34.3733C140.873 34.4165 140.975 34.4388 141.078 34.4386H144.777C145.363 34.4386 145.863 34.0126 145.956 33.4317L148.178 19.3656C148.194 19.2634 148.188 19.159 148.16 19.0595C148.131 18.96 148.082 18.8678 148.015 18.7892C147.947 18.7107 147.864 18.6476 147.77 18.6044C147.676 18.5613 147.573 18.539 147.47 18.5391" fill="#009CDE"/>
<path d="M108.15 18.5396H104.018C103.623 18.5396 103.255 18.7354 103.033 19.0629L97.3353 27.4541L94.9199 19.3904C94.8462 19.1445 94.6953 18.9288 94.4894 18.7753C94.2836 18.6219 94.0337 18.5388 93.777 18.5385H89.7175C89.6036 18.5385 89.4915 18.5657 89.3902 18.6178C89.289 18.6699 89.2017 18.7454 89.1355 18.838C89.0693 18.9306 89.0261 19.0376 89.0096 19.1503C88.993 19.2629 89.0036 19.3778 89.0403 19.4856L93.5878 32.8358L89.3103 38.8714C89.2347 38.9786 89.19 39.1044 89.181 39.2352C89.1721 39.366 89.1992 39.4968 89.2595 39.6132C89.3198 39.7297 89.4109 39.8273 89.5228 39.8955C89.6348 39.9637 89.7634 39.9999 89.8945 40H94.0215C94.411 40 94.7772 39.8086 95.0007 39.4877L108.736 19.6626C108.811 19.5554 108.854 19.4299 108.863 19.2996C108.871 19.1693 108.843 19.0392 108.783 18.9235C108.722 18.8077 108.632 18.7108 108.52 18.6431C108.408 18.5754 108.28 18.5396 108.15 18.5396Z" fill="#003087"/>
<path d="M152.314 11.2065L148.791 33.6129C148.775 33.715 148.782 33.8194 148.81 33.9188C148.838 34.0183 148.887 34.1104 148.955 34.1889C149.022 34.2675 149.105 34.3305 149.199 34.3738C149.293 34.417 149.395 34.4394 149.498 34.4395H153.04C153.626 34.4395 154.127 34.0124 154.218 33.4326L157.691 11.4278C157.708 11.3257 157.701 11.2212 157.673 11.1217C157.645 11.0222 157.596 10.93 157.529 10.8514C157.461 10.7728 157.378 10.7098 157.284 10.6666C157.19 10.6234 157.088 10.6011 156.984 10.6013H153.021C152.851 10.6008 152.686 10.6615 152.556 10.7724C152.426 10.8832 152.34 11.0379 152.314 11.2065Z" fill="#009CDE"/>
<path d="M28.8615 3.01557C27.0093 0.904484 23.6612 -0.000583649 19.3782 -0.000583649H6.94739C6.5234 -0.000808716 6.11325 0.150299 5.79074 0.425541C5.46824 0.700787 5.25456 1.08209 5.18815 1.50085L0.0144564 34.3299C-0.00953326 34.4822 -0.000222027 34.6379 0.0417492 34.7863C0.0837204 34.9346 0.157354 35.0721 0.257576 35.1893C0.357798 35.3064 0.482226 35.4004 0.622288 35.4649C0.76235 35.5293 0.914717 35.5626 1.06889 35.5625H8.74313L10.6705 23.3375L10.6108 23.7203C10.6759 23.3024 10.8882 22.9215 11.2093 22.6462C11.5304 22.3709 11.9393 22.2194 12.3623 22.2189H16.0091C23.1733 22.2189 28.7829 19.3089 30.4215 10.8912C30.4702 10.6422 30.5123 10.3999 30.5488 10.1631C31.0356 7.05185 30.5455 4.93413 28.8626 3.01667" fill="#003087"/>
<path d="M12.7405 10.2052C12.7987 9.83928 12.9853 9.50609 13.267 9.26539C13.5486 9.02469 13.9069 8.89225 14.2773 8.89185H24.0228C25.1769 8.89185 26.2534 8.96708 27.237 9.1242C27.7748 9.21071 28.3069 9.32969 28.8303 9.48047C29.4247 9.64759 29.9999 9.87678 30.5464 10.1642C31.0354 7.05184 30.5442 4.93523 28.8613 3.01667C27.008 0.906696 23.661 0.00162888 19.378 0.00162888H6.9461C6.52249 0.00193024 6.11287 0.153271 5.79082 0.428471C5.46878 0.703667 5.25542 1.08468 5.18908 1.50306L0.0131664 34.3288C-0.0109856 34.4811 -0.0018335 34.6368 0.0399928 34.7852C0.081819 34.9336 0.155325 35.0712 0.255444 35.1885C0.355564 35.3057 0.479917 35.3999 0.619935 35.4645C0.759952 35.529 0.912305 35.5625 1.06649 35.5625H8.74184L10.6693 23.3364L12.7405 10.2052Z" fill="#003087"/>
<path d="M30.5475 10.1627C30.5095 10.4062 30.4671 10.6489 30.4202 10.8908C28.7816 19.3074 23.1719 22.2185 16.0078 22.2185H12.3598C11.9369 22.2188 11.5281 22.3703 11.2071 22.6456C10.8861 22.9209 10.6741 23.302 10.6095 23.7199L8.7418 35.561L8.21071 38.9201C8.18959 39.0535 8.19765 39.1898 8.23431 39.3198C8.27098 39.4497 8.3354 39.5702 8.42311 39.6728C8.51082 39.7755 8.61975 39.8579 8.74239 39.9144C8.86503 39.9708 8.99846 40.0001 9.13348 40H15.6028C16.3685 40 17.0191 39.4424 17.1397 38.6867L17.2027 38.3569L18.422 30.6296L18.4995 30.2025C18.5574 29.8363 18.7442 29.5028 19.0261 29.2621C19.3081 29.0213 19.6667 28.8891 20.0374 28.8892H21.0055C27.2724 28.8892 32.1794 26.3444 33.6134 18.9799C34.2109 15.904 33.9011 13.3338 32.3189 11.5292C31.8165 10.9697 31.2162 10.5066 30.5475 10.1627Z" fill="#009CDE"/>
<path d="M28.8313 9.48087C28.5812 9.40673 28.3234 9.34035 28.0579 9.28171C27.7923 9.22307 27.5179 9.17106 27.2369 9.12681C26.2522 8.96637 25.1767 8.89113 24.0216 8.89113H14.2772C13.9063 8.89068 13.5475 9.02295 13.2656 9.26403C12.9837 9.50511 12.7974 9.83909 12.7404 10.2056L10.6691 23.339L10.6094 23.7207C10.6741 23.3028 10.886 22.9217 11.207 22.6464C11.528 22.3711 11.9369 22.2196 12.3598 22.2193H16.0077C23.1719 22.2193 28.7815 19.3093 30.4201 10.8916C30.4688 10.6426 30.5097 10.4014 30.5474 10.1635C30.1146 9.9371 29.6639 9.74688 29.1997 9.59483C29.0791 9.555 28.9563 9.51848 28.8313 9.48087Z" fill="#012169"/>
</svg>
