<svg width="170" height="41" viewBox="0 0 170 41" fill="none" xmlns="http://www.w3.org/2000/svg">
<g clip-path="url(#clip0_460_3991)">
<path d="M51.2773 29.3241H63.2293V25.7241H55.5253V12.1641H51.2773V29.3241Z" fill="white"/>
<path d="M70.3108 26.9232C68.6068 26.9232 67.7188 25.4352 67.7188 23.2032C67.7188 20.9712 68.6068 19.4592 70.3108 19.4592C72.0148 19.4592 72.9268 20.9712 72.9268 23.2032C72.9268 25.4352 72.0148 26.9232 70.3108 26.9232ZM70.3348 29.7072C74.2948 29.7072 76.8868 26.8992 76.8868 23.2032C76.8868 19.5072 74.2948 16.6992 70.3348 16.6992C66.3988 16.6992 63.7588 19.5072 63.7588 23.2032C63.7588 26.8992 66.3988 29.7072 70.3348 29.7072Z" fill="white"/>
<path d="M83.7411 33.5718C85.5651 33.5718 87.1731 33.1638 88.2531 32.2038C89.2371 31.3158 89.8851 29.9718 89.8851 28.1238V17.0358H86.1411V18.3558H86.0931C85.3731 17.3238 84.2691 16.6758 82.6371 16.6758C79.5891 16.6758 77.4771 19.2198 77.4771 22.8198C77.4771 26.5878 80.0451 28.6518 82.8051 28.6518C84.2931 28.6518 85.2291 28.0518 85.9491 27.2358H86.0451V28.4598C86.0451 29.9478 85.3491 30.8118 83.6931 30.8118C82.3971 30.8118 81.7491 30.2598 81.5331 29.6118H77.7411C78.1251 32.1798 80.3571 33.5718 83.7411 33.5718ZM83.7171 25.7478C82.2531 25.7478 81.2931 24.5478 81.2931 22.6998C81.2931 20.8278 82.2531 19.6278 83.7171 19.6278C85.3491 19.6278 86.2131 21.0198 86.2131 22.6758C86.2131 24.4038 85.4211 25.7478 83.7171 25.7478Z" fill="white"/>
<path d="M97.5832 26.9232C95.8792 26.9232 94.9912 25.4352 94.9912 23.2032C94.9912 20.9712 95.8792 19.4592 97.5832 19.4592C99.2872 19.4592 100.199 20.9712 100.199 23.2032C100.199 25.4352 99.2872 26.9232 97.5832 26.9232ZM97.6072 29.7072C101.567 29.7072 104.159 26.8992 104.159 23.2032C104.159 19.5072 101.567 16.6992 97.6072 16.6992C93.6712 16.6992 91.0312 19.5072 91.0312 23.2032C91.0312 26.8992 93.6712 29.7072 97.6072 29.7072Z" fill="white"/>
<path d="M105.302 29.3241H109.214V17.0361H105.302V29.3241ZM105.302 15.3321H109.214V12.1641H105.302V15.3321Z" fill="white"/>
<path d="M110.911 33.3798H114.823V28.0518H114.871C115.639 29.0838 116.767 29.7078 118.351 29.7078C121.567 29.7078 123.703 27.1638 123.703 23.1798C123.703 19.4838 121.711 16.6758 118.447 16.6758C116.767 16.6758 115.567 17.4198 114.727 18.5238H114.655V17.0358H110.911V33.3798ZM117.343 26.6838C115.663 26.6838 114.703 25.3158 114.703 23.3238C114.703 21.3318 115.567 19.8198 117.271 19.8198C118.951 19.8198 119.743 21.2118 119.743 23.3238C119.743 25.4118 118.831 26.6838 117.343 26.6838Z" fill="white"/>
<path d="M130.072 29.7078C133.288 29.7078 135.664 28.3158 135.664 25.6278C135.664 22.4838 133.12 21.9318 130.96 21.5718C129.4 21.2838 128.008 21.1638 128.008 20.2998C128.008 19.5318 128.752 19.1718 129.712 19.1718C130.792 19.1718 131.536 19.5078 131.68 20.6118H135.28C135.088 18.1878 133.216 16.6758 129.736 16.6758C126.832 16.6758 124.432 18.0198 124.432 20.6118C124.432 23.4918 126.712 24.0678 128.848 24.4278C130.48 24.7158 131.968 24.8358 131.968 25.9398C131.968 26.7318 131.224 27.1638 130.048 27.1638C128.752 27.1638 127.936 26.5638 127.792 25.3398H124.096C124.216 28.0518 126.472 29.7078 130.072 29.7078Z" fill="white"/>
<path d="M140.978 29.6832C142.682 29.6832 143.762 29.0112 144.65 27.8112H144.722V29.3232H148.466V17.0352H144.554V23.8992C144.554 25.3632 143.738 26.3712 142.394 26.3712C141.146 26.3712 140.546 25.6272 140.546 24.2832V17.0352H136.658V25.0992C136.658 27.8352 138.146 29.6832 140.978 29.6832Z" fill="white"/>
<path d="M150.168 29.3238H154.08V22.4358C154.08 20.9718 154.8 19.9398 156.024 19.9398C157.2 19.9398 157.752 20.7078 157.752 22.0278V29.3238H161.664V22.4358C161.664 20.9718 162.36 19.9398 163.608 19.9398C164.784 19.9398 165.336 20.7078 165.336 22.0278V29.3238H169.248V21.3318C169.248 18.5718 167.856 16.6758 165.072 16.6758C163.488 16.6758 162.168 17.3478 161.208 18.8358H161.16C160.536 17.5158 159.312 16.6758 157.704 16.6758C155.928 16.6758 154.752 17.5158 153.984 18.7878H153.912V17.0358H150.168V29.3238Z" fill="white"/>
<path fill-rule="evenodd" clip-rule="evenodd" d="M20.1015 40.3222C31.1473 40.3222 40.1015 31.3679 40.1015 20.3222C40.1015 9.27656 31.1473 0.322266 20.1015 0.322266C9.05585 0.322266 0.101562 9.27656 0.101562 20.3222C0.101562 31.3679 9.05585 40.3222 20.1015 40.3222ZM23.1885 15.7748C24.8933 14.0699 24.8933 11.3058 23.1885 9.60092C21.4836 7.89604 18.7195 7.89604 17.0146 9.60092C15.3098 11.3058 15.3098 14.0699 17.0146 15.7748L20.1015 18.8617L23.1885 15.7748ZM24.649 23.4092C26.3539 25.1141 29.118 25.1141 30.8229 23.4092C32.5277 21.7043 32.5277 18.9402 30.8229 17.2353C29.118 15.5305 26.3539 15.5305 24.649 17.2353L21.5621 20.3223L24.649 23.4092ZM23.1885 31.0436C24.8933 29.3387 24.8933 26.5746 23.1885 24.8697L20.1015 21.7828L17.0146 24.8697C15.3098 26.5746 15.3098 29.3387 17.0146 31.0436C18.7195 32.7485 21.4836 32.7485 23.1885 31.0436ZM9.38019 23.4092C7.67535 21.7043 7.67535 18.9402 9.38019 17.2353C11.0851 15.5305 13.8492 15.5305 15.5541 17.2353L18.641 20.3223L15.5541 23.4092C13.8492 25.1141 11.0851 25.1141 9.38019 23.4092Z" fill="#B9FB6A"/>
</g>
<defs>
<clipPath id="clip0_460_3991">
<rect width="170" height="41" fill="white"/>
</clipPath>
</defs>
</svg>
