<svg width="172" height="37" viewBox="0 0 172 37" fill="none" xmlns="http://www.w3.org/2000/svg">
<path d="M27.0672 0.279031C26.0049 -0.310596 22.9598 0.053977 19.3024 1.18611C12.9015 5.56139 7.4993 12.0073 7.12232 22.3583C7.05368 22.6058 6.42234 22.3246 6.29747 22.2481C4.56898 18.9351 3.88419 15.4466 5.32743 10.4141C5.59644 9.96623 4.71695 9.41488 4.55882 9.57236C4.24203 9.88967 2.92141 11.2965 2.04429 12.8179C-2.3034 20.3599 0.5398 30.0236 8.14634 34.2527C15.7513 38.4885 25.3547 35.7562 29.5891 28.149C34.4879 19.3688 29.939 1.88278 27.0672 0.279031Z" fill="#82B541"/>
<path d="M54.6882 9C47.7732 9 42.7539 14.0664 42.7539 21.0469C42.7539 28.0847 47.7601 33 54.9291 33C58.5502 33 61.4171 31.8841 63.697 29.5869C64.378 28.8623 64.4513 28.164 64.4513 27.897C64.4513 26.7591 63.5926 25.9325 62.4095 25.9325C61.8132 25.9325 61.3143 26.1544 60.7422 26.6758C59.4512 27.8613 57.751 29.0724 54.9291 29.0724C51.0051 29.0724 47.8138 26.1689 47.6128 22.4403H63.2306C64.9289 22.4403 65.7539 21.6578 65.7539 20.0487C65.7539 19.5749 65.7539 19.2331 65.6572 18.5586C64.8159 12.5737 60.7158 9.0008 54.6886 9.0008L54.6882 9ZM54.6882 12.7371C58.4378 12.7371 60.8439 15.0921 60.9923 18.893H47.6176C47.9688 15.3753 50.9869 12.7371 54.6882 12.7371Z" fill="#0E0E0E"/>
<path d="M80.3678 9C77.3231 9 74.3086 10.798 73.1309 13.2952V11.7519C73.1309 9.36113 71.3267 9.24002 70.9654 9.24002C69.8964 9.24002 68.7539 9.89981 68.7539 11.7519V30.3919C68.7539 32.8745 70.6743 33 71.0591 33C71.4439 33 73.3652 32.8745 73.3652 30.3919V20.3995C73.3652 16.0518 75.7641 13.0152 79.1985 13.0152C82.525 13.0152 84.1426 15.2572 84.1426 19.8703V30.3919C84.1426 32.8745 86.0639 33 86.4487 33C86.8335 33 88.7539 32.8745 88.7539 30.3919V18.3831C88.7539 13.8473 86.5508 9.00141 80.3678 9.00141V9Z" fill="#0E0E0E"/>
<path d="M109.472 9C108.396 9 107.615 9.64479 107.151 10.9134L100.777 27.3716L94.4527 10.9134C93.9576 9.62576 93.1827 9 92.0834 9C90.7991 9 89.7539 10.0291 89.7539 11.2944C89.7539 11.6076 89.7885 12.0137 90.0463 12.648L97.3705 30.4079C98.2433 32.5504 99.6789 33 100.73 33C101.78 33 103.217 32.5504 104.091 30.4089L111.463 12.5503C111.715 11.9238 111.754 11.4638 111.754 11.2461C111.754 9.96622 110.772 9 109.472 9Z" fill="#0E0E0E"/>
<path d="M123.32 9.0012C120.35 9.0012 117.584 9.83803 115.532 11.3558C114.837 11.8414 114.498 12.4474 114.498 13.2092C114.498 14.2583 115.29 15.0806 116.302 15.0806C116.74 15.0806 117.23 14.9042 117.68 14.5854C119.444 13.3958 121.102 12.8411 122.896 12.8411C126.329 12.8411 128.3 14.6076 128.3 17.6882V18.1987C120.593 18.2072 112.754 19.1489 112.754 25.9321C112.754 30.8142 116.878 33 120.965 33C124.22 33 126.819 31.6953 128.487 29.2248V30.4128C128.487 32.1819 129.661 32.8092 130.668 32.8092C130.881 32.8092 132.754 32.7418 132.754 30.4128V17.9733C132.754 12.3541 129.226 9 123.32 9L123.32 9.0012ZM127.323 21.6576H128.3V22.7398C128.3 26.6981 125.809 29.2555 121.954 29.2555C120.908 29.2555 117.493 29.0092 117.493 25.8366C117.493 22.0905 123.103 21.6576 127.323 21.6576Z" fill="#0E0E0E"/>
<path d="M144.601 13.732C146.65 13.732 146.754 12.1353 146.754 11.8153C146.754 10.8659 146.188 9.85094 144.601 9.85094H140.388V5.58287C140.388 3.67635 139.153 3 138.095 3C137.704 3 135.754 3.12423 135.754 5.58287V25.8505C135.754 30.5278 138.058 33 142.417 33C143.545 33 144.644 32.8 145.362 32.4648C146.187 32.0531 146.659 31.376 146.659 30.6077C146.659 29.5239 145.874 28.7379 144.792 28.7379C144.583 28.7379 144.285 28.7898 143.958 28.8842C143.557 28.9847 143.285 29.0237 142.988 29.0237C141.214 29.0237 140.388 27.8642 140.388 25.3741V13.73H144.601V13.732Z" fill="#0E0E0E"/>
<path d="M159.73 9C152.79 9 147.754 14.0266 147.754 20.9515C147.754 24.3231 148.974 27.396 151.188 29.6038C153.386 31.7939 156.419 33 159.731 33C166.585 33 171.754 27.8203 171.754 20.9517C171.754 14.0267 166.696 9.0002 159.731 9.0002L159.73 9ZM159.73 29.0243C154.971 29.0243 152.482 24.963 152.482 20.951C152.482 15.438 156.239 12.9272 159.73 12.9272C163.221 12.9272 166.979 15.438 166.979 20.951C166.979 26.4982 163.221 29.0243 159.73 29.0243Z" fill="#0E0E0E"/>
</svg>
