<svg width="133" height="40" viewBox="0 0 133 40" fill="none" xmlns="http://www.w3.org/2000/svg">
<path d="M19.945 0C8.92992 0 0 8.95424 0 19.9996C0 31.0462 8.92992 40 19.945 40C30.9606 40 39.89 31.0462 39.89 19.9996C39.89 8.95495 30.9611 0.000954567 19.9448 0.000954567L19.945 0ZM29.0917 28.8452C28.7335 29.4344 27.968 29.619 27.3823 29.2601C22.6987 26.3896 16.8035 25.7412 9.86091 27.3316C9.1919 27.4854 8.52502 27.0648 8.37261 26.3942C8.21946 25.7233 8.63696 25.0546 9.30765 24.9018C16.9053 23.16 23.4223 23.9097 28.6794 27.1309C29.2653 27.4916 29.4511 28.2582 29.0914 28.8457L29.0917 28.8452ZM31.5329 23.4003C31.0818 24.1342 30.1248 24.3644 29.3939 23.9137C24.0339 20.6098 15.8606 19.6529 9.51939 21.5831C8.69698 21.8321 7.82838 21.3674 7.57878 20.5442C7.33108 19.7195 7.79481 18.8502 8.61577 18.5994C15.8592 16.3955 24.8639 17.4631 31.0206 21.2568C31.7518 21.7082 31.9828 22.6683 31.5327 23.4005L31.5329 23.4003ZM31.7425 17.7296C25.3133 13.901 14.7086 13.549 8.57121 15.4168C7.58568 15.7166 6.54345 15.1587 6.24478 14.1704C5.94612 13.1817 6.50201 12.1373 7.48826 11.8368C14.5336 9.69221 26.2455 10.1066 33.6464 14.5122C34.5329 15.0397 34.8237 16.1877 34.2983 17.0755C33.7743 17.9644 32.6263 18.2574 31.7427 17.7296H31.7425ZM54.2638 18.4633C50.8201 17.6398 50.207 17.0619 50.207 15.8474C50.207 14.7001 51.2843 13.928 52.8862 13.928C54.4391 13.928 55.9788 14.5143 57.5932 15.7213C57.642 15.7579 57.7032 15.7724 57.7634 15.7629C57.8237 15.7538 57.8771 15.7206 57.9123 15.6707L59.5938 13.2939C59.6629 13.196 59.644 13.0611 59.5509 12.9863C57.6296 11.4404 55.4661 10.6888 52.9372 10.6888C49.2189 10.6888 46.6217 12.9264 46.6217 16.1278C46.6217 19.5609 48.8621 20.7765 52.7338 21.7149C56.0291 22.476 56.5853 23.1137 56.5853 24.2536C56.5853 25.5167 55.4606 26.302 53.6508 26.302C51.6406 26.302 50.0011 25.623 48.1669 24.0303C48.1214 23.9909 48.059 23.973 48.0014 23.9763C47.9407 23.9813 47.8852 24.0095 47.8466 24.0561L45.9612 26.306C45.8822 26.3994 45.8922 26.5389 45.9836 26.6196C48.1176 28.53 50.7422 29.539 53.5746 29.539C57.5813 29.539 60.1704 27.3438 60.1704 23.946C60.1776 21.0777 58.4651 19.4895 54.271 18.4664L54.2638 18.4633ZM69.2351 15.0576C67.4984 15.0576 66.0739 15.7435 64.8992 17.149V15.567C64.8992 15.4421 64.7983 15.3404 64.6739 15.3404H61.5904C61.4658 15.3404 61.3651 15.4421 61.3651 15.567V33.145C61.3651 33.2699 61.4658 33.3717 61.5904 33.3717H64.6739C64.7983 33.3717 64.8992 33.2699 64.8992 33.145V27.5964C66.0741 28.9185 67.4989 29.5646 69.2351 29.5646C72.4621 29.5646 75.7288 27.0736 75.7288 22.3119C75.7336 17.5491 72.4659 15.0574 69.2387 15.0574L69.2351 15.0576ZM72.1432 22.3119C72.1432 24.7367 70.6537 26.4288 68.5208 26.4288C66.4123 26.4288 64.8218 24.6598 64.8218 22.3119C64.8218 19.9643 66.4123 18.1951 68.5208 18.1951C70.6191 18.1948 72.1434 19.9258 72.1434 22.3117L72.1432 22.3119ZM84.1017 15.0576C79.9458 15.0576 76.6901 18.2665 76.6901 22.3638C76.6901 26.4164 79.9235 29.5915 84.0507 29.5915C88.2213 29.5915 91.4871 26.3934 91.4871 22.3119C91.4871 18.2445 88.2432 15.0581 84.1014 15.0581L84.1017 15.0576ZM84.1017 26.4529C81.8912 26.4529 80.2247 24.672 80.2247 22.3107C80.2247 19.9394 81.8336 18.2187 84.0507 18.2187C86.2754 18.2187 87.9531 19.9996 87.9531 22.3626C87.9531 24.7334 86.3335 26.4529 84.1019 26.4529H84.1017ZM100.361 15.3404H96.9683V11.8617C96.9683 11.737 96.8678 11.6353 96.7432 11.6353H93.6601C93.5353 11.6353 93.4341 11.737 93.4341 11.8617V15.3404H91.9515C91.8274 15.3404 91.7269 15.4421 91.7269 15.5671V18.2245C91.7269 18.3491 91.8274 18.4511 91.9515 18.4511H93.4341V25.3271C93.4341 28.1058 94.8133 29.5147 97.5335 29.5147C98.6395 29.5147 99.5572 29.2856 100.422 28.7939C100.492 28.7545 100.536 28.6785 100.536 28.5978V26.0672C100.536 25.9891 100.495 25.9153 100.429 25.8745C100.361 25.8322 100.278 25.8301 100.209 25.8642C99.615 26.164 99.0408 26.3022 98.399 26.3022C97.4096 26.3022 96.9683 25.8518 96.9683 24.8423V18.4523H100.361C100.486 18.4523 100.586 18.3506 100.586 18.2257V15.5685C100.591 15.4436 100.491 15.3419 100.365 15.3419L100.361 15.3404ZM112.184 15.354V14.9268C112.184 13.6698 112.665 13.1093 113.743 13.1093C114.386 13.1093 114.902 13.2373 115.48 13.4308C115.551 13.4532 115.626 13.442 115.684 13.3992C115.743 13.3565 115.777 13.2879 115.777 13.2153V10.6098C115.777 10.5102 115.713 10.422 115.617 10.3927C115.006 10.2104 114.225 10.0234 113.054 10.0234C110.206 10.0234 108.701 11.6317 108.701 14.6726V15.327H107.219C107.095 15.327 106.993 15.4288 106.993 15.5534V18.2244C106.993 18.3491 107.095 18.4511 107.219 18.4511H108.701V29.057C108.701 29.1819 108.801 29.2837 108.926 29.2837H112.009C112.134 29.2837 112.235 29.1819 112.235 29.057V18.4518H115.114L119.524 29.0552C119.024 30.1693 118.531 30.3909 117.859 30.3909C117.316 30.3909 116.744 30.2283 116.159 29.9073C116.104 29.8769 116.039 29.8719 115.979 29.8903C115.921 29.9111 115.871 29.955 115.846 30.0124L114.801 32.3115C114.751 32.4202 114.794 32.5477 114.898 32.6041C115.989 33.1966 116.974 33.4495 118.191 33.4495C120.468 33.4495 121.727 32.386 122.836 29.5249L128.186 15.6635C128.213 15.5938 128.204 15.515 128.162 15.4531C128.119 15.3917 128.051 15.3547 127.976 15.3547H124.766C124.67 15.3547 124.584 15.4161 124.553 15.5066L121.264 24.9254L117.662 15.5004C117.63 15.4128 117.545 15.3547 117.452 15.3547H112.184L112.184 15.354ZM105.33 15.3404H102.246C102.122 15.3404 102.02 15.4421 102.02 15.5671V29.0571C102.02 29.182 102.122 29.2837 102.246 29.2837H105.33C105.454 29.2837 105.556 29.182 105.556 29.0571V15.568C105.556 15.5382 105.55 15.5087 105.539 15.4811C105.527 15.4536 105.511 15.4286 105.49 15.4075C105.469 15.3864 105.444 15.3698 105.416 15.3584C105.389 15.3471 105.359 15.3413 105.329 15.3414L105.33 15.3404ZM103.805 9.19809C102.584 9.19809 101.593 10.1897 101.593 11.4146C101.593 12.6403 102.584 13.6331 103.805 13.6331C105.027 13.6331 106.017 12.6403 106.017 11.4146C106.017 10.1899 105.026 9.19809 103.807 9.19809H103.805ZM130.819 19.6777C129.598 19.6777 128.649 18.6949 128.649 17.5015C128.649 16.3081 129.611 15.3141 130.83 15.3141C132.05 15.3141 133 16.2967 133 17.4891C133 18.6825 132.038 19.6777 130.818 19.6777H130.819ZM130.831 15.5305C129.719 15.5305 128.878 16.4166 128.878 17.5015C128.878 18.586 129.713 19.4601 130.819 19.4601C131.931 19.4601 132.773 18.5748 132.773 17.4891C132.773 16.4046 131.937 15.5305 130.831 15.5305H130.831ZM131.312 17.7129L131.925 18.5746H131.408L130.855 17.7841H130.38V18.5746H129.947V16.2905H130.963C131.492 16.2905 131.84 16.562 131.84 17.0191C131.842 17.3936 131.626 17.6224 131.314 17.7129L131.312 17.7129ZM130.945 16.6824H130.38V17.4048H130.945C131.227 17.4048 131.395 17.2665 131.395 17.0432C131.395 16.8082 131.226 16.6824 130.945 16.6824L130.945 16.6824Z" fill="#2EBD59"/>
</svg>
