<svg width="159" height="40" viewBox="0 0 159 40" fill="none" xmlns="http://www.w3.org/2000/svg">
<path d="M50.5732 31.4972L52.5478 26.9112C54.6815 28.5036 57.5159 29.3316 60.3185 29.3316C62.3885 29.3316 63.6943 28.5354 63.6943 27.3252C63.6624 23.9494 51.3057 26.5927 51.2102 18.1214C51.1783 13.822 55 10.5099 60.414 10.5099C63.6306 10.5099 66.8471 11.3061 69.1401 13.1214L67.293 17.8029C65.1911 16.4653 62.5796 15.5099 60.0955 15.5099C58.4076 15.5099 57.293 16.3061 57.293 17.3252C57.3248 20.6373 69.7771 18.822 69.9045 26.9112C69.9045 31.3061 66.1783 34.3953 60.828 34.3953C56.9108 34.3953 53.3121 33.4717 50.5732 31.4972ZM126.338 25.2551L131.783 28.2806C129.745 31.943 125.86 34.3953 121.369 34.3953C114.777 34.3953 109.427 29.045 109.427 22.4526C109.427 15.8602 114.777 10.5099 121.369 10.5099C125.828 10.5099 129.745 12.994 131.783 16.6246L126.338 19.6501C125.35 17.9303 123.503 16.752 121.369 16.752C118.217 16.752 115.669 19.2997 115.669 22.4526C115.669 25.6055 118.217 28.1532 121.369 28.1532C123.503 28.1532 125.35 26.9749 126.338 25.2551ZM72.6433 0.605469H79.4586V33.9494H72.6433V0.605469ZM134.459 0.605469H141.274V20.1915L148.981 10.9876H157.325L147.803 22.0704L158.089 33.9494H149.363L141.274 23.9494V33.9494H134.459V0.605469ZM99.7134 25.3188V19.6819C98.7261 18.0259 96.6879 16.752 94.3949 16.752C91.242 16.752 88.6943 19.2997 88.6943 22.4526C88.6943 25.6055 91.242 28.1532 94.3949 28.1532C96.6879 28.1532 98.7261 26.9431 99.7134 25.3188ZM99.7134 10.9876H106.529V33.9176H99.7134V31.2106C98.5987 33.0895 95.828 34.3953 92.9299 34.3953C86.9427 34.3953 82.2293 29.045 82.2293 22.4208C82.2293 15.7966 86.9427 10.5099 92.9299 10.5099C95.828 10.5099 98.5987 11.8157 99.7134 13.6946V10.9876Z" fill="#0E0E0E"/>
<path d="M8.43938 25.2859C8.43938 27.6107 6.5604 29.4897 4.23556 29.4897C1.91072 29.4897 0.0317383 27.6107 0.0317383 25.2859C0.0317383 22.961 1.91072 21.082 4.23556 21.082H8.43938V25.2859ZM10.5413 25.2859C10.5413 22.961 12.4203 21.082 14.7451 21.082C17.07 21.082 18.9489 22.961 18.9489 25.2859V35.7954C18.9489 38.1202 17.07 39.9992 14.7451 39.9992C12.4203 39.9992 10.5413 38.1202 10.5413 35.7954V25.2859Z" fill="#E01E5A"/>
<path d="M14.7452 8.40764C12.4204 8.40764 10.5414 6.52866 10.5414 4.20382C10.5414 1.87898 12.4204 0 14.7452 0C17.0701 0 18.949 1.87898 18.949 4.20382V8.40764H14.7452ZM14.7452 10.5414C17.0701 10.5414 18.949 12.4204 18.949 14.7452C18.949 17.0701 17.0701 18.949 14.7452 18.949H4.20382C1.87898 18.949 0 17.0701 0 14.7452C0 12.4204 1.87898 10.5414 4.20382 10.5414H14.7452Z" fill="#36C5F0"/>
<path d="M31.5926 14.7452C31.5926 12.4204 33.4715 10.5414 35.7964 10.5414C38.1212 10.5414 40.0002 12.4204 40.0002 14.7452C40.0002 17.0701 38.1212 18.949 35.7964 18.949H31.5926V14.7452ZM29.4907 14.7452C29.4907 17.0701 27.6117 18.949 25.2868 18.949C22.962 18.949 21.083 17.0701 21.083 14.7452V4.20382C21.083 1.87898 22.962 0 25.2868 0C27.6117 0 29.4907 1.87898 29.4907 4.20382V14.7452Z" fill="#2EB67D"/>
<path d="M25.2868 31.5916C27.6117 31.5916 29.4907 33.4706 29.4907 35.7954C29.4907 38.1202 27.6117 39.9992 25.2868 39.9992C22.962 39.9992 21.083 38.1202 21.083 35.7954V31.5916H25.2868ZM25.2868 29.4897C22.962 29.4897 21.083 27.6107 21.083 25.2859C21.083 22.961 22.962 21.082 25.2868 21.082H35.8282C38.1531 21.082 40.0321 22.961 40.0321 25.2859C40.0321 27.6107 38.1531 29.4897 35.8282 29.4897H25.2868Z" fill="#ECB22E"/>
</svg>
