<svg width="140" height="140" viewBox="0 0 140 140" fill="none" xmlns="http://www.w3.org/2000/svg">
<circle cx="70" cy="70" r="70" fill="#B9FB6A"/>
<rect x="32.3076" y="32.3086" width="75.3846" height="75.3846" rx="37.6923" fill="#0E0E0E"/>
<path d="M80.0479 75.5429C79.8552 75.8143 79.6817 76.0761 79.4696 76.3331C75.8089 80.7792 69.4095 82.1364 64.1795 79.613C63.4679 79.2131 62.7338 78.8308 62.1042 78.304V78.2441C62.1042 78.304 62.0703 78.304 61.9805 78.2108C61.9275 78.2108 61.5066 77.8574 61.4295 77.79C60.257 76.7732 59.1807 75.4128 58.4692 74.041C57.4636 72.1023 56.9528 69.7267 57.0749 67.568C57.189 65.5457 57.7592 63.6825 58.7599 61.9462C60.2891 59.2895 62.8109 57.211 65.7552 56.2264C71.7001 54.2363 78.3822 57.0568 81.1129 62.6738C83.1785 66.9239 82.7593 71.7168 80.0479 75.5413V75.5429ZM74.042 62.4007C70.958 60.0797 66.4652 60.6821 64.0526 63.668C62.8061 65.2116 62.2214 67.2724 62.4945 69.2288C62.7676 71.1852 63.8968 73.0661 65.5416 74.192C65.8966 74.4362 66.2917 74.6289 66.6515 74.8409C66.8138 74.9357 67.1013 75.0369 67.2844 75.1012C68.6144 75.5637 70.0215 75.6248 71.366 75.3116C73.7641 74.751 75.6194 73.1351 76.5109 70.8784C77.7574 67.7206 76.6908 64.3925 74.0436 62.3991L74.042 62.4007Z" fill="#B9FB6A"/>
<path d="M66.7457 83.309C67.4781 83.5419 69.1904 83.5789 70.0161 83.5692C73.0905 83.5339 76.3593 82.5557 78.9373 80.9382C79.1156 80.8258 79.4594 80.519 79.6393 80.4499C79.6987 80.4274 79.7244 80.4098 79.7806 80.4564C79.8818 80.5415 80.1308 80.9944 80.232 81.1406C81.0881 82.379 82.0214 83.6431 82.8133 84.9168C82.8358 84.9522 82.8775 84.9747 82.892 85.0004C82.9514 85.1096 82.8438 85.0791 82.7731 85.124C82.4776 85.312 82.1949 85.5224 81.8961 85.7087C74.3948 90.378 64.8454 90.3138 57.3875 85.6188L56.5635 85.0421L59.723 80.4017C59.7664 80.3696 59.9929 80.5816 60.0379 80.6138C61.8385 81.8506 64.1917 82.8609 66.3393 83.2399C66.4919 83.2672 66.5786 83.256 66.7457 83.309Z" fill="#B9FB6A"/>
<path d="M81.1299 55.7322C79.6617 56.6863 77.6218 56.4936 76.3624 55.2455C74.9858 53.8818 74.8284 51.6797 76.0123 50.1377C76.0588 50.0767 76.1488 50.0414 76.1986 49.9723C76.6098 49.3908 77.5366 48.8881 78.2482 48.7484C79.4513 48.5138 80.7315 48.803 81.6358 49.6462C83.1216 51.034 83.3562 53.1414 82.1611 54.8006C81.8784 55.1925 81.5282 55.4736 81.1299 55.7322Z" fill="#B9FB6A"/>
<path d="M75.4401 20.3868C74.4723 20.2737 73.6305 19.9533 72.9147 19.4253C72.1988 18.8974 71.6675 18.191 71.3207 17.3063C70.9738 16.4215 70.8697 15.3898 71.0083 14.2112C71.1481 13.0229 71.4894 12.0382 72.0321 11.2574C72.5803 10.4722 73.2636 9.90766 74.082 9.56381C74.9058 9.21567 75.7967 9.09753 76.7548 9.2094C77.3902 9.2836 77.9686 9.44248 78.4899 9.68603C79.0119 9.92472 79.4605 10.2388 79.8359 10.6282C80.2167 11.0134 80.5102 11.4673 80.7163 11.99C80.9229 12.5079 81.026 13.0852 81.0254 13.722L78.6939 13.4498C78.6848 13.1475 78.6284 12.8694 78.5244 12.6154C78.4254 12.3619 78.2806 12.1401 78.0899 11.9499C77.9041 11.7604 77.6819 11.6061 77.4234 11.487C77.1703 11.3636 76.8849 11.2834 76.5672 11.2463C76.01 11.1812 75.5022 11.2651 75.0437 11.4979C74.5907 11.7265 74.2157 12.0925 73.9186 12.5959C73.627 13.0951 73.4365 13.7246 73.3472 14.4843C73.2561 15.2587 73.2966 15.925 73.4688 16.4833C73.6416 17.0367 73.9224 17.4718 74.3112 17.7888C74.7001 18.1058 75.1707 18.2965 75.723 18.361C76.0309 18.3969 76.3217 18.3889 76.5954 18.3369C76.8691 18.285 77.1177 18.193 77.3414 18.0612C77.565 17.9293 77.7584 17.7593 77.9216 17.5513C78.0903 17.3389 78.2162 17.0895 78.2995 16.803L80.631 17.0752C80.5133 17.57 80.3076 18.0348 80.0136 18.4695C79.7246 18.9048 79.3557 19.2814 78.9071 19.5993C78.459 19.9123 77.9438 20.1434 77.3613 20.2926C76.7795 20.437 76.1391 20.4684 75.4401 20.3868Z" fill="#0E0E0E"/>
<path d="M85.7168 22.6874C84.9303 22.4181 84.306 22.0177 83.844 21.4862C83.3883 20.9517 83.1077 20.3319 83.0021 19.6269C82.9028 18.9189 82.9907 18.166 83.2658 17.3684C83.5441 16.5614 83.9399 15.9114 84.4534 15.4184C84.9732 14.9223 85.5768 14.6053 86.2644 14.4674C86.9583 14.3264 87.6985 14.3906 88.4851 14.6599C89.2763 14.9308 89.8998 15.3335 90.3555 15.868C90.8175 16.3995 91.0981 17.0193 91.1974 17.7274C91.3029 18.4324 91.2165 19.1883 90.9383 19.9952C90.6632 20.7929 90.2658 21.4398 89.7461 21.9359C89.2326 22.429 88.6289 22.746 87.9351 22.8869C87.2474 23.0248 86.508 22.9583 85.7168 22.6874ZM86.3113 21.0088C86.6697 21.1315 87.0043 21.1346 87.315 21.018C87.6274 20.8968 87.9049 20.6807 88.1474 20.3697C88.3946 20.0603 88.5958 19.6806 88.7509 19.2308C88.9077 18.7763 88.9832 18.3537 88.9774 17.9628C88.9764 17.5736 88.8892 17.2378 88.716 16.9556C88.5427 16.6733 88.2769 16.4708 87.9185 16.3481C87.5555 16.2238 87.2163 16.2191 86.9008 16.3341C86.59 16.4506 86.3118 16.6613 86.0662 16.9661C85.8253 17.2725 85.6264 17.6529 85.4697 18.1074C85.3146 18.5572 85.2368 18.9791 85.2362 19.373C85.2404 19.7684 85.3282 20.1096 85.4999 20.3965C85.6778 20.6804 85.9483 20.8845 86.3113 21.0088Z" fill="#0E0E0E"/>
<path d="M95.8528 21.7029L93.4698 25.8187L91.494 24.6828L95.6183 17.5599L97.5621 18.6773L96.828 19.9452L96.8983 19.9856C97.3038 19.6582 97.7535 19.4752 98.2475 19.4365C98.7415 19.3978 99.2549 19.5316 99.7877 19.8379C100.282 20.1221 100.65 20.478 100.891 20.9053C101.137 21.3351 101.246 21.8085 101.219 22.3254C101.193 22.8422 101.019 23.3789 100.696 23.9353L98.0735 28.4652L96.0977 27.3294L98.5177 23.1499C98.7686 22.7167 98.8523 22.3119 98.7691 21.9357C98.6882 21.5552 98.4496 21.2511 98.0532 21.0232C97.7889 20.8712 97.52 20.7959 97.2465 20.7972C96.9755 20.7943 96.7198 20.868 96.4792 21.0185C96.2387 21.1689 96.0299 21.3971 95.8528 21.7029Z" fill="#0E0E0E"/>
<path d="M108.241 26.0062L107.157 27.3465L103.289 24.2408L104.373 22.9005L108.241 26.0062ZM106.484 22.083L108.26 23.509L103.444 29.4658C103.271 29.6796 103.191 29.8766 103.203 30.0566C103.218 30.2328 103.332 30.4055 103.542 30.5747C103.611 30.6301 103.693 30.6859 103.786 30.7421C103.88 30.7983 103.963 30.8434 104.037 30.8774L103.244 32.4323C103.003 32.3327 102.779 32.2224 102.573 32.1015C102.372 31.9836 102.183 31.8539 102.006 31.7124C101.366 31.1986 101 30.6433 100.908 30.0464C100.818 29.4457 101.008 28.8551 101.478 28.2747L106.484 22.083Z" fill="#0E0E0E"/>
<path d="M105.96 35.4007C105.608 35.0174 105.357 34.6108 105.209 34.1809C105.068 33.7513 105.052 33.3271 105.161 32.9085C105.27 32.4898 105.524 32.0983 105.923 31.734C106.264 31.4227 106.604 31.2258 106.942 31.1434C107.283 31.0577 107.623 31.0569 107.961 31.1411C108.298 31.2253 108.628 31.3698 108.95 31.5748C109.272 31.7798 109.587 32.0209 109.895 32.2981C110.25 32.6191 110.542 32.8713 110.771 33.0549C111 33.2384 111.192 33.3492 111.347 33.3872C111.509 33.4255 111.653 33.3867 111.78 33.2708L111.807 33.2459C112.058 33.0174 112.179 32.7607 112.171 32.4757C112.166 32.1944 112.032 31.9108 111.769 31.6252C111.493 31.325 111.205 31.1458 110.905 31.0876C110.611 31.0296 110.336 31.0645 110.08 31.1921L108.774 29.5211C109.217 29.2628 109.679 29.1269 110.161 29.1132C110.646 29.0962 111.129 29.2041 111.609 29.4368C112.097 29.6699 112.564 30.0287 113.009 30.5132C113.318 30.8495 113.574 31.2078 113.777 31.588C113.98 31.9683 114.107 32.3539 114.16 32.7449C114.219 33.1362 114.183 33.5216 114.051 33.9011C113.92 34.2806 113.674 34.6343 113.315 34.9622L109.211 38.7081L107.74 37.108L108.589 36.333L108.549 36.2896C108.267 36.3675 107.978 36.3913 107.684 36.3611C107.393 36.3275 107.101 36.235 106.808 36.0833C106.518 35.9284 106.236 35.7008 105.96 35.4007ZM107.569 34.8203C107.795 35.0662 108.043 35.2384 108.314 35.337C108.592 35.4359 108.862 35.4617 109.126 35.4142C109.396 35.367 109.636 35.2473 109.847 35.0552L110.495 34.464C110.415 34.4432 110.318 34.3991 110.203 34.3315C110.091 34.2676 109.972 34.1896 109.847 34.0973C109.722 34.0051 109.599 33.9112 109.478 33.8157C109.361 33.7168 109.253 33.6288 109.155 33.5517C108.944 33.3793 108.737 33.2488 108.535 33.1601C108.337 33.0682 108.146 33.0303 107.96 33.0465C107.782 33.063 107.613 33.1441 107.453 33.2898C107.225 33.4985 107.127 33.7406 107.16 34.0163C107.193 34.2919 107.329 34.5599 107.569 34.8203Z" fill="#0E0E0E"/>
<path d="M112.502 43.7499C112.056 43.0392 111.824 42.3333 111.807 41.6321C111.795 40.9284 111.971 40.2715 112.337 39.6614C112.707 39.0488 113.246 38.5212 113.955 38.0788C114.673 37.6311 115.389 37.3753 116.103 37.3112C116.82 37.2513 117.492 37.382 118.118 37.7031C118.743 38.0243 119.278 38.5382 119.722 39.2447C120.104 39.8514 120.326 40.4503 120.39 41.0412C120.456 41.6363 120.373 42.1918 120.139 42.7076C119.906 43.2235 119.526 43.663 119 44.0263L117.856 42.206C118.068 42.027 118.228 41.8288 118.336 41.6115C118.443 41.3941 118.488 41.1661 118.472 40.9276C118.455 40.689 118.373 40.4513 118.224 40.2144C118.036 39.9152 117.79 39.7041 117.486 39.5812C117.189 39.4598 116.845 39.4344 116.454 39.5049C116.07 39.577 115.656 39.751 115.214 40.0268C114.772 40.3027 114.431 40.5998 114.189 40.9182C113.951 41.2406 113.817 41.5641 113.789 41.8884C113.763 42.217 113.844 42.5308 114.032 42.8301C114.241 43.1625 114.522 43.378 114.874 43.4764C115.23 43.5723 115.611 43.5314 116.016 43.3538L117.16 45.1741C116.608 45.4781 116.047 45.6289 115.476 45.6263C114.91 45.621 114.369 45.4635 113.855 45.1537C113.345 44.8412 112.894 44.3733 112.502 43.7499Z" fill="#0E0E0E"/>
<path d="M124.666 49.1797L123.08 49.8616L121.112 45.3165L122.698 44.6345L124.666 49.1797ZM124.948 44.8927L125.852 46.9795L118.803 50.0103C118.55 50.1191 118.387 50.256 118.314 50.421C118.245 50.584 118.264 50.7894 118.372 51.037C118.407 51.1181 118.452 51.2052 118.509 51.2984C118.565 51.3917 118.618 51.4704 118.667 51.5347L117.238 52.5417C117.071 52.3412 116.925 52.1397 116.8 51.9372C116.676 51.7392 116.57 51.5366 116.48 51.3295C116.155 50.5776 116.091 49.9162 116.288 49.3452C116.49 48.7723 116.935 48.3382 117.622 48.0429L124.948 44.8927Z" fill="#0E0E0E"/>
<path d="M131.079 64.1011L131.385 66.398L124.308 67.3315C123.513 67.4364 122.79 67.3389 122.139 67.0389C121.494 66.7431 120.961 66.2792 120.54 65.6473C120.118 65.0153 119.848 64.2497 119.728 63.3504C119.609 62.451 119.67 61.6416 119.912 60.9222C120.154 60.2027 120.548 59.6165 121.093 59.1637C121.643 58.7102 122.316 58.431 123.111 58.3261L130.188 57.3926L130.492 59.6822L123.606 60.5907C123.191 60.6454 122.833 60.7866 122.53 61.0145C122.233 61.2417 122.013 61.5328 121.872 61.8878C121.735 62.2422 121.696 62.6406 121.755 63.0829C121.815 63.5302 121.957 63.9072 122.181 64.2139C122.41 64.52 122.698 64.7418 123.044 64.8792C123.395 65.0208 123.778 65.0642 124.193 65.0095L131.079 64.1011Z" fill="#0E0E0E"/>
<path d="M125.901 78.0436L125.926 75.9584C126.19 75.9233 126.424 75.7951 126.627 75.5738C126.836 75.3528 126.954 75.0442 126.983 74.648C127.008 74.2959 126.956 73.9947 126.826 73.7444C126.696 73.4991 126.508 73.3676 126.263 73.3499C126.066 73.3358 125.892 73.3995 125.738 73.5408C125.59 73.6875 125.462 73.9463 125.356 74.3172L124.954 75.7853C124.734 76.5709 124.429 77.1463 124.037 77.5114C123.646 77.8766 123.153 78.0378 122.559 77.9951C122.014 77.956 121.549 77.7652 121.165 77.4229C120.785 77.081 120.499 76.6278 120.308 76.0634C120.122 75.4994 120.055 74.8628 120.106 74.1536C120.185 73.0678 120.476 72.2186 120.979 71.6058C121.482 70.9979 122.127 70.6682 122.916 70.6167L122.872 72.8481C122.533 72.8975 122.268 73.0456 122.078 73.2924C121.887 73.5393 121.777 73.8657 121.748 74.2717C121.719 74.6678 121.775 74.9938 121.914 75.2497C122.053 75.5104 122.243 75.6494 122.483 75.6667C122.891 75.696 123.191 75.3636 123.384 74.6696L123.781 73.2748C124.001 72.4892 124.322 71.9149 124.743 71.5519C125.164 71.1888 125.681 71.0294 126.294 71.0735C126.825 71.1116 127.271 71.2887 127.633 71.6048C127.995 71.9209 128.26 72.3455 128.428 72.8788C128.597 73.4169 128.656 74.0357 128.605 74.7351C128.53 75.772 128.25 76.5705 127.765 77.1305C127.285 77.6958 126.664 78.0002 125.901 78.0436Z" fill="#0E0E0E"/>
<path d="M122.352 88.1612L124.272 88.9747L123.741 86.9603L125.166 86.6834L125.415 88.7476L126.895 87.2827L127.854 88.3861L126.183 89.6369L128.195 90.1864L127.722 91.5411L125.8 90.7345L126.331 92.7489L124.894 93.0141L124.643 90.9568L123.165 92.4147L122.218 91.3231L123.889 90.0724L121.879 89.5159L122.352 88.1612Z" fill="#0E0E0E"/>
<path d="M110.602 100.219C111.175 99.4344 111.869 98.8605 112.681 98.4978C113.494 98.135 114.373 98.02 115.316 98.1527C116.26 98.2853 117.214 98.7008 118.177 99.3992C119.148 100.103 119.841 100.882 120.258 101.737C120.676 102.598 120.835 103.468 120.734 104.347C120.635 105.233 120.301 106.065 119.734 106.842C119.357 107.357 118.935 107.782 118.466 108.115C118.001 108.451 117.507 108.687 116.982 108.822C116.458 108.964 115.917 108.996 115.359 108.919C114.805 108.844 114.249 108.651 113.693 108.338L115.074 106.447C115.343 106.587 115.614 106.674 115.887 106.709C116.157 106.747 116.422 106.73 116.682 106.658C116.939 106.589 117.183 106.472 117.414 106.306C117.646 106.147 117.856 105.938 118.044 105.68C118.374 105.228 118.55 104.746 118.571 104.234C118.593 103.728 118.457 103.223 118.162 102.719C117.869 102.221 117.412 101.746 116.791 101.296C116.158 100.837 115.556 100.546 114.983 100.422C114.414 100.3 113.896 100.331 113.428 100.513C112.96 100.695 112.562 101.01 112.235 101.458C112.053 101.708 111.917 101.965 111.828 102.228C111.74 102.491 111.698 102.752 111.704 103.011C111.71 103.27 111.763 103.521 111.865 103.765C111.968 104.015 112.125 104.247 112.334 104.46L110.953 106.351C110.578 106.006 110.272 105.6 110.036 105.131C109.797 104.667 109.649 104.162 109.591 103.616C109.537 103.074 109.587 102.513 109.742 101.934C109.901 101.358 110.188 100.786 110.602 100.219Z" fill="#0E0E0E"/>
<path d="M103.549 108.028C104.169 107.476 104.824 107.129 105.516 106.987C106.206 106.852 106.886 106.911 107.555 107.163C108.223 107.423 108.84 107.867 109.404 108.496C109.974 109.132 110.35 109.794 110.531 110.481C110.712 111.176 110.694 111.855 110.479 112.52C110.263 113.193 109.845 113.805 109.225 114.357C108.601 114.912 107.944 115.258 107.253 115.393C106.562 115.535 105.883 115.476 105.214 115.216C104.545 114.963 103.925 114.519 103.355 113.883C102.791 113.254 102.418 112.592 102.238 111.898C102.057 111.211 102.074 110.531 102.29 109.859C102.505 109.194 102.925 108.583 103.549 108.028ZM104.728 109.365C104.446 109.617 104.279 109.906 104.23 110.233C104.183 110.564 104.237 110.911 104.391 111.273C104.541 111.64 104.775 112 105.093 112.355C105.414 112.713 105.747 112.985 106.093 113.171C106.434 113.36 106.77 113.449 107.102 113.436C107.434 113.423 107.741 113.291 108.024 113.039C108.31 112.785 108.48 112.492 108.533 112.162C108.583 111.834 108.535 111.49 108.388 111.127C108.237 110.768 108.001 110.409 107.68 110.051C107.362 109.696 107.03 109.423 106.686 109.23C106.337 109.04 105.996 108.95 105.661 108.959C105.325 108.975 105.014 109.11 104.728 109.365Z" fill="#0E0E0E"/>
<path d="M99.4685 117.323L97.0228 113.244L98.981 112.079L103.214 119.138L101.287 120.285L100.534 119.028L100.464 119.07C100.553 119.582 100.495 120.063 100.288 120.511C100.081 120.96 99.7135 121.342 99.1854 121.656C98.6953 121.948 98.2043 122.094 97.7122 122.096C97.216 122.1 96.7478 121.965 96.3078 121.69C95.8677 121.415 95.4824 121.001 95.1517 120.45L92.46 115.96L94.4182 114.795L96.9017 118.937C97.1592 119.366 97.473 119.636 97.8433 119.747C98.2162 119.862 98.599 119.803 98.9919 119.569C99.2539 119.413 99.4509 119.216 99.583 118.977C99.7177 118.743 99.7777 118.484 99.763 118.202C99.7484 117.919 99.6502 117.626 99.4685 117.323Z" fill="#0E0E0E"/>
<path d="M89.6371 126.011L88.9924 124.414L93.6015 122.567L94.2462 124.163L89.6371 126.011ZM93.9312 126.399L91.815 127.247L88.9497 120.15C88.8469 119.895 88.7136 119.729 88.5499 119.652C88.388 119.58 88.1815 119.594 87.9303 119.694C87.8482 119.727 87.7596 119.771 87.6647 119.824C87.5697 119.878 87.4894 119.929 87.4237 119.977L86.449 118.528C86.6543 118.366 86.8601 118.226 87.0664 118.106C87.2681 117.988 87.474 117.887 87.684 117.803C88.4465 117.497 89.1117 117.45 89.6796 117.661C90.2494 117.877 90.6738 118.33 90.953 119.022L93.9312 126.399Z" fill="#0E0E0E"/>
<path d="M82.5183 119.436C83.0263 119.318 83.5046 119.299 83.9534 119.381C84.3985 119.469 84.7774 119.663 85.0903 119.963C85.4031 120.263 85.621 120.675 85.7441 121.201C85.8492 121.65 85.855 122.041 85.7614 122.375C85.669 122.714 85.5032 123.009 85.2641 123.261C85.0249 123.513 84.7368 123.729 84.3998 123.908C84.0627 124.087 83.6974 124.242 83.3038 124.374C82.849 124.525 82.4852 124.655 82.2125 124.764C81.9399 124.873 81.7489 124.985 81.6396 125.101C81.5267 125.223 81.4898 125.368 81.529 125.535L81.5374 125.571C81.6145 125.9 81.7798 126.131 82.0332 126.263C82.2818 126.397 82.5954 126.42 82.974 126.332C83.3718 126.239 83.6698 126.077 83.868 125.844C84.0626 125.618 84.1669 125.362 84.1809 125.076L86.2826 124.761C86.2913 125.273 86.1837 125.741 85.9597 126.166C85.7369 126.595 85.4059 126.962 84.9666 127.265C84.5236 127.575 83.9811 127.804 83.3389 127.954C82.8932 128.057 82.4543 128.104 82.0224 128.094C81.5904 128.083 81.1905 128.005 80.8228 127.859C80.4513 127.719 80.1319 127.499 79.8644 127.198C79.597 126.898 79.4079 126.511 79.2971 126.039L78.0318 120.638L80.1525 120.145L80.4143 121.262L80.4718 121.249C80.5419 120.965 80.6624 120.703 80.8333 120.462C81.0053 120.226 81.2294 120.018 81.5056 119.837C81.783 119.662 82.1205 119.528 82.5183 119.436ZM82.2376 121.117C81.9117 121.193 81.6393 121.325 81.4203 121.511C81.1976 121.704 81.0425 121.927 80.955 122.179C80.8638 122.437 80.8506 122.704 80.9155 122.981L81.1152 123.833C81.1722 123.775 81.2586 123.712 81.3742 123.645C81.4851 123.579 81.6114 123.514 81.7533 123.451C81.8951 123.388 82.0376 123.327 82.1805 123.268C82.3246 123.215 82.4543 123.164 82.5697 123.117C82.8243 123.018 83.0398 122.902 83.2162 122.771C83.3936 122.644 83.5207 122.496 83.5974 122.327C83.6704 122.164 83.6822 121.977 83.633 121.767C83.5625 121.466 83.3986 121.263 83.1412 121.156C82.8839 121.05 82.5826 121.037 82.2376 121.117Z" fill="#0E0E0E"/>
<path d="M72.0189 121.018C72.8595 120.978 73.5905 121.123 74.2121 121.452C74.8338 121.786 75.3219 122.262 75.6761 122.878C76.0306 123.5 76.2275 124.227 76.2668 125.06C76.3066 125.902 76.1793 126.65 75.8849 127.302C75.5856 127.954 75.1421 128.473 74.5543 128.859C73.9665 129.245 73.2548 129.457 72.4191 129.496C71.7014 129.53 71.0685 129.43 70.5204 129.195C69.9674 128.961 69.5225 128.616 69.1857 128.16C68.8488 127.705 68.6507 127.16 68.5911 126.524L70.7443 126.423C70.7965 126.696 70.8914 126.932 71.029 127.132C71.1665 127.331 71.3436 127.482 71.5603 127.585C71.777 127.688 72.0254 127.733 72.3056 127.72C72.6596 127.703 72.9648 127.593 73.2212 127.39C73.473 127.191 73.6639 126.905 73.7941 126.531C73.9195 126.162 73.97 125.717 73.9455 125.198C73.921 124.679 73.8286 124.237 73.6685 123.871C73.5035 123.506 73.2861 123.231 73.0163 123.047C72.7416 122.864 72.4272 122.78 72.0733 122.797C71.68 122.815 71.354 122.953 71.0952 123.211C70.8366 123.473 70.6856 123.824 70.6423 124.263L68.4892 124.364C68.494 123.735 68.6374 123.174 68.9196 122.68C69.2019 122.19 69.6047 121.798 70.1278 121.504C70.6511 121.214 71.2815 121.052 72.0189 121.018Z" fill="#0E0E0E"/>
<path d="M61.235 128.923L61.4149 127.212L66.3559 127.727L66.1761 129.439L61.235 128.923ZM64.8484 131.268L62.5798 131.031L63.379 123.423C63.4077 123.15 63.3678 122.941 63.2592 122.797C63.1502 122.657 62.9611 122.573 62.6919 122.545C62.6038 122.536 62.5051 122.533 62.3959 122.536C62.2867 122.54 62.1919 122.547 62.1115 122.559L61.9301 120.824C62.1874 120.777 62.4353 120.748 62.6738 120.739C62.9075 120.729 63.1368 120.735 63.362 120.759C64.1794 120.844 64.7895 121.112 65.1924 121.563C65.5948 122.02 65.757 122.618 65.6791 123.36L64.8484 131.268Z" fill="#0E0E0E"/>
<path d="M45.0374 127.194L42.8779 126.335L45.5247 119.729C45.8221 118.987 46.2613 118.407 46.8423 117.988C47.4168 117.573 48.0838 117.336 48.8431 117.279C49.6025 117.222 50.405 117.362 51.2505 117.699C52.0961 118.035 52.7745 118.484 53.2857 119.047C53.7969 119.609 54.1172 120.238 54.2465 120.934C54.3739 121.634 54.289 122.355 53.9915 123.097L51.3447 129.703L49.192 128.847L51.7677 122.419C51.9228 122.032 51.9746 121.651 51.9232 121.277C51.8699 120.907 51.7226 120.574 51.4811 120.277C51.2379 119.985 50.9083 119.756 50.4924 119.591C50.0719 119.423 49.6725 119.362 49.2942 119.407C48.914 119.457 48.5792 119.598 48.2896 119.831C47.9937 120.067 47.7682 120.379 47.6131 120.766L45.0374 127.194Z" fill="#0E0E0E"/>
<path d="M35.4504 115.906L37.2619 116.95C37.1632 117.197 37.1607 117.463 37.2545 117.748C37.3456 118.037 37.5574 118.292 37.8899 118.511C38.1854 118.706 38.4745 118.808 38.757 118.818C39.0355 118.825 39.2426 118.726 39.3784 118.522C39.487 118.358 39.5171 118.175 39.4686 117.973C39.4133 117.772 39.2493 117.534 38.9767 117.26L37.8898 116.191C37.3104 115.615 36.957 115.068 36.8296 114.549C36.7022 114.03 36.8027 113.523 37.1313 113.028C37.4327 112.574 37.8274 112.264 38.3155 112.097C38.8008 111.935 39.3371 111.91 39.9245 112.02C40.5091 112.135 41.0989 112.389 41.6941 112.781C42.6052 113.382 43.2055 114.051 43.4947 114.788C43.7799 115.523 43.7517 116.245 43.4103 116.955L41.4797 115.824C41.6027 115.505 41.603 115.202 41.4805 114.916C41.358 114.629 41.1265 114.374 40.7858 114.149C40.4533 113.93 40.141 113.818 39.8489 113.814C39.5527 113.807 39.3381 113.903 39.205 114.104C38.9797 114.443 39.1231 114.867 39.6354 115.375L40.6607 116.404C41.2401 116.98 41.5854 117.54 41.6965 118.083C41.8077 118.627 41.6935 119.154 41.3541 119.665C41.0608 120.107 40.6872 120.408 40.2333 120.567C39.7793 120.726 39.2778 120.749 38.7287 120.634C38.1755 120.516 37.6054 120.264 37.0185 119.877C36.1483 119.303 35.5871 118.669 35.3349 117.973C35.0758 117.279 35.1143 116.59 35.4504 115.906Z" fill="#0E0E0E"/>
<path d="M28.3355 107.868L26.685 109.14L28.7087 109.662L28.2548 111.036L26.3258 110.244L26.8852 112.247L25.4504 112.541L25.1718 110.477L23.7075 111.958L22.7523 110.885L24.3979 109.608L22.3742 109.086L22.8441 107.707L24.7681 108.494L24.2137 106.496L25.6325 106.206L25.9111 108.27L27.3803 106.795L28.3355 107.868Z" fill="#0E0E0E"/>
<path d="M23.499 91.7602C23.9069 92.642 24.0715 93.5248 23.9927 94.4087C23.9139 95.2926 23.5862 96.1127 23.0094 96.869C22.4326 97.6253 21.6035 98.2519 20.5219 98.7487C19.4314 99.2496 18.4103 99.4729 17.4586 99.4187C16.5003 99.3621 15.6606 99.0756 14.9393 98.5591C14.2116 98.0403 13.6458 97.3444 13.242 96.4716C12.9741 95.8927 12.8085 95.3181 12.7452 94.7478C12.6774 94.1796 12.7124 93.6344 12.8501 93.1122C12.9813 92.5875 13.217 92.1013 13.5571 91.6535C13.8928 91.2077 14.3334 90.819 14.8791 90.4874L15.8618 92.6116C15.6077 92.7769 15.399 92.97 15.2356 93.1908C15.0702 93.4072 14.9558 93.646 14.8925 93.9073C14.827 94.1641 14.8108 94.4335 14.8436 94.7154C14.87 94.9949 14.9501 95.2793 15.084 95.5688C15.3189 96.0765 15.6556 96.4645 16.094 96.7328C16.526 96.9988 17.0349 97.1268 17.621 97.1168C18.2005 97.1044 18.8389 96.938 19.5361 96.6178C20.2467 96.2914 20.7961 95.9094 21.1844 95.4719C21.5682 95.0364 21.7944 94.5707 21.863 94.0749C21.9316 93.579 21.8495 93.0794 21.6167 92.5762C21.4869 92.2956 21.3284 92.0526 21.1412 91.847C20.9539 91.6414 20.7455 91.478 20.516 91.3566C20.2865 91.2353 20.04 91.1595 19.7768 91.1292C19.507 91.0966 19.2277 91.1196 18.9389 91.1982L17.9562 89.074C18.4412 88.916 18.9465 88.8486 19.4721 88.8718C19.9955 88.8905 20.5104 89.0077 21.0166 89.2233C21.5183 89.441 21.9849 89.7586 22.4164 90.1759C22.8435 90.5953 23.2043 91.1234 23.499 91.7602Z" fill="#0E0E0E"/>
<path d="M20.1086 81.7967C20.2875 82.606 20.2696 83.3456 20.0548 84.0154C19.8342 84.6814 19.4494 85.2429 18.9003 85.6998C18.3454 86.153 17.6546 86.4703 16.828 86.6518C15.9917 86.8353 15.2287 86.8371 14.5388 86.6572C13.8431 86.4734 13.2571 86.1251 12.7808 85.612C12.2987 85.0952 11.9682 84.4321 11.7893 83.6228C11.6093 82.8087 11.6296 82.0686 11.8502 81.4026C12.065 80.7328 12.4498 80.1714 13.0047 79.7182C13.5538 79.2612 14.2464 78.941 15.0827 78.7574C15.9093 78.576 16.6705 78.5771 17.3662 78.7608C18.0561 78.9408 18.6421 79.2892 19.1242 79.806C19.6005 80.3191 19.9286 80.9826 20.1086 81.7967ZM18.3608 82.1653C18.2793 81.7966 18.1077 81.5104 17.8459 81.3067C17.5794 81.1041 17.2498 80.9806 16.857 80.9363C16.4631 80.8872 16.0331 80.9138 15.5669 81.0161C15.0959 81.1195 14.6945 81.2754 14.3626 81.4838C14.0297 81.6874 13.7874 81.9364 13.6358 82.2308C13.4842 82.5252 13.4492 82.8568 13.5307 83.2255C13.6133 83.599 13.786 83.89 14.0487 84.0985C14.3104 84.3021 14.6358 84.429 15.0249 84.4792C15.4128 84.5246 15.8423 84.4956 16.3133 84.3922C16.7795 84.2899 17.1815 84.1364 17.5192 83.9317C17.8559 83.7222 18.1024 83.4698 18.2588 83.1744C18.4094 82.8752 18.4434 82.5388 18.3608 82.1653Z" fill="#0E0E0E"/>
<path d="M13.9837 73.7015L18.7509 73.5782L18.8101 75.8502L10.5599 76.0637L10.5016 73.8284L11.9701 73.7904L11.968 73.7095C11.4761 73.5359 11.0846 73.2492 10.7936 72.8496C10.5026 72.45 10.3491 71.9438 10.3331 71.3311C10.3183 70.7625 10.4308 70.2641 10.6708 69.836C10.9105 69.4031 11.2586 69.063 11.7149 68.8157C12.1712 68.5684 12.7216 68.4365 13.3661 68.4198L18.6129 68.284L18.6721 70.5561L13.8312 70.6814C13.3294 70.6944 12.9392 70.8344 12.6606 71.1016C12.3771 71.3689 12.2413 71.7305 12.2532 72.1864C12.2611 72.4904 12.337 72.7582 12.4809 72.9899C12.6199 73.2218 12.8165 73.4006 13.0709 73.5265C13.3252 73.6523 13.6295 73.7107 13.9837 73.7015Z" fill="#0E0E0E"/>
<path d="M11.2018 60.8505L12.9148 61.072L12.2755 65.981L10.5625 65.7596L11.2018 60.8505ZM8.76056 64.3918L9.05407 62.1378L16.6675 63.1222C16.9408 63.1575 17.1512 63.1229 17.2988 63.0184C17.4416 62.9132 17.5303 62.7269 17.5652 62.4594C17.5766 62.3719 17.5819 62.2737 17.5812 62.1648C17.5805 62.0559 17.5754 61.9613 17.566 61.881L19.311 61.7432C19.3519 62.0006 19.3742 62.2483 19.378 62.4861C19.3824 62.7191 19.37 62.9474 19.3409 63.1711C19.2351 63.9832 18.9509 64.5843 18.4882 64.9745C18.0206 65.364 17.4159 65.5108 16.6741 65.4149L8.76056 64.3918Z" fill="#0E0E0E"/>
<path d="M20.4338 57.8914C20.2888 58.3907 20.0708 58.8154 19.7796 59.1653C19.4851 59.5092 19.1301 59.7438 18.7146 59.8691C18.2992 59.9944 17.8314 59.9821 17.3114 59.8322C16.867 59.7041 16.5215 59.5178 16.2749 59.2731C16.0236 59.0271 15.8461 58.7386 15.7424 58.4075C15.6387 58.0765 15.5908 57.7207 15.5988 57.3401C15.6069 56.9596 15.6494 56.566 15.7264 56.1594C15.8165 55.6903 15.8806 55.3106 15.9188 55.0204C15.9569 54.7302 15.9519 54.5093 15.9037 54.3575C15.8522 54.1998 15.7437 54.097 15.5782 54.0493L15.5428 54.0391C15.2166 53.9451 14.9336 53.9758 14.6937 54.1313C14.4553 54.2821 14.2821 54.5436 14.174 54.9157C14.0605 55.3067 14.0571 55.6451 14.1636 55.9311C14.2668 56.2109 14.4398 56.4267 14.6827 56.5784L13.9309 58.5592C13.4788 58.3166 13.1215 57.9942 12.8592 57.5919C12.5922 57.1882 12.4332 56.7212 12.3822 56.191C12.3278 55.6546 12.3923 55.0709 12.5755 54.4396C12.7027 54.0016 12.8764 53.5973 13.0966 53.2269C13.3169 52.8565 13.5809 52.5472 13.8886 52.2989C14.1929 52.0447 14.542 51.8747 14.9357 51.7891C15.3294 51.7035 15.7603 51.7281 16.2283 51.863L21.5751 53.4041L20.97 55.4885L19.8637 55.1697L19.8473 55.2262C20.061 55.4256 20.2316 55.6585 20.3591 55.925C20.482 56.1901 20.5547 56.4867 20.5773 56.8148C20.5951 57.1416 20.5473 57.5004 20.4338 57.8914ZM19.0988 56.8252C19.1918 56.5048 19.21 56.2038 19.1535 55.9221C19.0936 55.6343 18.9747 55.3907 18.7969 55.1914C18.6158 54.9861 18.3881 54.8439 18.1139 54.7649L17.27 54.5216C17.2934 54.5999 17.3063 54.7056 17.3085 54.839C17.3122 54.9677 17.307 55.1091 17.293 55.2633C17.2789 55.4175 17.2625 55.571 17.2438 55.7239C17.2203 55.8754 17.2009 56.0127 17.1856 56.1359C17.1483 56.4059 17.1441 56.6497 17.1731 56.8674C17.1974 57.0837 17.2647 57.2664 17.3751 57.4156C17.4821 57.5588 17.6396 57.6603 17.8476 57.7203C18.1455 57.8061 18.4038 57.7632 18.6228 57.5915C18.8417 57.4198 19.0004 57.1643 19.0988 56.8252Z" fill="#0E0E0E"/>
<path d="M24.1903 47.9853C23.8127 48.7346 23.3275 49.2985 22.7348 49.6769C22.1378 50.0531 21.4827 50.2439 20.7696 50.2492C20.0521 50.2524 19.3195 50.067 18.5719 49.6929C17.8154 49.3144 17.2242 48.8376 16.7982 48.2623C16.3744 47.6826 16.1378 47.043 16.0884 46.3433C16.0389 45.6437 16.2019 44.9214 16.5773 44.1764C16.8998 43.5366 17.2979 43.0362 17.7717 42.6751C18.2477 42.3097 18.7675 42.0924 19.331 42.0232C19.8945 41.9539 20.4688 42.0492 21.0538 42.309L20.0866 44.2284C19.8226 44.1402 19.5696 44.1069 19.3274 44.1284C19.0853 44.1499 18.8662 44.2296 18.6701 44.3674C18.4739 44.5053 18.3129 44.6991 18.1871 44.9488C18.0281 45.2644 17.9747 45.5834 18.027 45.9058C18.0771 46.2217 18.2339 46.5279 18.4975 46.8244C18.7589 47.1143 19.1227 47.3759 19.5889 47.6091C20.0551 47.8423 20.4873 47.979 20.8856 48.0192C21.2861 48.0549 21.6329 48.0007 21.9258 47.8565C22.221 47.7078 22.4481 47.4758 22.6071 47.1602C22.7837 46.8097 22.8229 46.4589 22.7244 46.1078C22.6216 45.7546 22.3888 45.4516 22.0261 45.1987L22.9933 43.2793C23.5408 43.5917 23.9616 43.9915 24.2557 44.4788C24.5454 44.964 24.6908 45.5059 24.692 46.1046C24.6888 46.701 24.5215 47.328 24.1903 47.9853Z" fill="#0E0E0E"/>
<path d="M22.5178 34.8279L23.9269 35.8235L21.0534 39.8616L19.6443 38.8661L22.5178 34.8279ZM18.6958 36.8163L20.0151 34.9623L26.2778 39.3869C26.5026 39.5457 26.7048 39.6134 26.8844 39.59C27.0599 39.5637 27.2259 39.4406 27.3825 39.2206C27.4337 39.1486 27.4847 39.0643 27.5352 38.9678C27.5858 38.8713 27.6258 38.7854 27.6553 38.71L29.2616 39.4031C29.1767 39.6496 29.0799 39.8788 28.9714 40.0907C28.8657 40.2985 28.7474 40.4945 28.6165 40.6785C28.1411 41.3465 27.6073 41.7448 27.015 41.8734C26.4188 41.9992 25.8156 41.8465 25.2053 41.4154L18.6958 36.8163Z" fill="#0E0E0E"/>
<path d="M31.9566 21.5962L33.7636 20.1379L38.2565 25.665C38.7614 26.2861 39.0552 26.9514 39.1379 27.6608C39.2213 28.3634 39.1026 29.0587 38.7816 29.7468C38.4607 30.4349 37.9465 31.0645 37.239 31.6355C36.5315 32.2065 35.8067 32.5769 35.0645 32.7468C34.3223 32.9167 33.615 32.888 32.9427 32.6608C32.2672 32.4298 31.677 32.0037 31.1721 31.3826L26.6792 25.8555L28.4804 24.4018L32.8525 29.7803C33.1158 30.1042 33.4239 30.3351 33.7768 30.4731C34.1265 30.6074 34.4903 30.6419 34.868 30.5768C35.2427 30.508 35.604 30.3331 35.952 30.0522C36.3038 29.7683 36.5525 29.4509 36.6979 29.1C36.8402 28.7453 36.8799 28.3851 36.817 28.0195C36.7548 27.6469 36.592 27.2986 36.3288 26.9747L31.9566 21.5962Z" fill="#0E0E0E"/>
<path d="M46.5134 18.7673L44.7152 19.8342C44.5473 19.6281 44.3155 19.4963 44.0198 19.4389C43.7218 19.377 43.3958 19.4373 43.0417 19.6197C42.7269 19.7818 42.4963 19.9834 42.3499 20.2244C42.2078 20.4632 42.1933 20.6914 42.3063 20.9093C42.3967 21.0835 42.5424 21.1989 42.7434 21.2554C42.9466 21.3053 43.2346 21.2785 43.6074 21.1748L45.0742 20.7505C45.8614 20.5273 46.5134 20.4868 47.0304 20.629C47.5474 20.7712 47.9426 21.1059 48.216 21.633C48.4668 22.1165 48.5461 22.6111 48.4539 23.1168C48.3594 23.6181 48.1204 24.0972 47.737 24.5541C47.3513 25.0067 46.8414 25.3962 46.2075 25.7227C45.237 26.2225 44.3581 26.4185 43.5709 26.3106C42.788 26.2004 42.1688 25.8238 41.7134 25.1807L43.6461 24.0528C43.8654 24.3152 44.1304 24.463 44.4412 24.4962C44.752 24.5293 45.0888 24.4524 45.4517 24.2655C45.8058 24.0832 46.056 23.866 46.2023 23.614C46.3529 23.3598 46.3729 23.1259 46.2621 22.9125C46.0746 22.5509 45.6333 22.4691 44.9382 22.667L43.537 23.0575C42.7498 23.2807 42.0909 23.3082 41.5604 23.1398C41.0299 22.9714 40.6234 22.615 40.3409 22.0705C40.0969 21.6 40.0157 21.1285 40.0974 20.6559C40.1791 20.1832 40.4042 19.7361 40.7727 19.3145C41.1455 18.8906 41.6446 18.5177 42.2697 18.1957C43.1966 17.7184 44.0262 17.5395 44.7585 17.6591C45.493 17.7721 46.078 18.1415 46.5134 18.7673Z" fill="#0E0E0E"/>
<path d="M57.0647 16.5017L56.7618 14.4448L55.3127 15.946L54.3332 14.8778L55.9724 13.5914L53.9462 13.0948L54.3922 11.7044L56.3342 12.4749L55.7572 10.4771L57.1641 10.1739L57.4742 12.2293L58.9233 10.728L59.8987 11.8122L58.2668 13.097L60.2857 13.5951L59.8439 14.9697L57.9018 14.1991L58.4716 16.1985L57.0647 16.5017Z" fill="#0E0E0E"/>
</svg>
