<svg width="122" height="40" viewBox="0 0 122 40" fill="none" xmlns="http://www.w3.org/2000/svg">
<path d="M52.0009 21.0501C52.0009 26.8049 47.4989 31.0455 41.9738 31.0455C36.4487 31.0455 31.9468 26.8049 31.9468 21.0501C31.9468 15.2547 36.4487 11.0547 41.9738 11.0547C47.4989 11.0547 52.0009 15.2547 52.0009 21.0501ZM47.6114 21.0501C47.6114 17.4538 45.0022 14.9934 41.9738 14.9934C38.9455 14.9934 36.3362 17.4541 36.3362 21.0501C36.3362 24.6103 38.9455 27.1068 41.9738 27.1068C45.0022 27.107 47.6114 24.6058 47.6114 21.0501Z" fill="#FF4131"/>
<path d="M73.6322 21.0501C73.6322 26.8049 69.1303 31.0455 63.6052 31.0455C58.0801 31.0455 53.5781 26.8049 53.5781 21.0501C53.5781 15.2592 58.0801 11.0547 63.6052 11.0547C69.13 11.0547 73.6322 15.2547 73.6322 21.0501ZM69.2428 21.0501C69.2428 17.4538 66.6335 14.9934 63.6052 14.9934C60.5768 14.9934 57.9676 17.4541 57.9676 21.0501C57.9676 24.6103 60.5768 27.1068 63.6052 27.1068C66.6335 27.107 69.2428 24.6058 69.2428 21.0501Z" fill="#FFBC00"/>
<path d="M94.3624 11.6587V29.6035C94.3624 36.9852 90.009 40 84.8627 40C80.0183 40 77.1024 36.7597 76.0029 34.1099L79.8244 32.5191C80.5048 34.146 82.1723 36.0658 84.8582 36.0658C88.1524 36.0658 90.1939 34.0333 90.1939 30.2073V28.7698H90.0406C89.0583 29.982 87.1653 31.041 84.7771 31.041C79.7793 31.041 75.2007 26.6877 75.2007 21.0862C75.2007 15.4441 79.7793 11.0547 84.7771 11.0547C87.1611 11.0547 89.0538 12.1137 90.0406 13.2899H90.1939V11.663H94.3624V11.6587ZM90.5048 21.0862C90.5048 17.5666 88.1569 14.9934 85.1691 14.9934C82.1408 14.9934 79.6034 17.5666 79.6034 21.0862C79.6034 24.5697 82.1405 27.1068 85.1691 27.1068C88.1569 27.107 90.5048 24.5697 90.5048 21.0862Z" fill="#0085F7"/>
<path d="M101.235 1.13965V30.432H96.9536V1.13965H101.235Z" fill="#00A94B"/>
<path d="M117.918 24.3396L121.325 26.6109C120.225 28.2378 117.576 31.0406 112.997 31.0406C107.319 31.0406 103.078 26.6512 103.078 21.0452C103.078 15.101 107.355 11.0498 112.506 11.0498C117.693 11.0498 120.23 15.1777 121.059 17.4084L121.514 18.544L108.153 24.0781C109.175 26.0835 110.766 27.1064 112.997 27.1064C115.232 27.1067 116.782 26.0069 117.918 24.3396ZM107.432 20.7433L116.364 17.0346C115.872 15.7862 114.394 14.9166 112.655 14.9166C110.424 14.9164 107.319 16.8858 107.432 20.7433Z" fill="#FF4131"/>
<path d="M15.7413 18.4496V14.209H30.0316C30.1714 14.948 30.2433 15.8224 30.2433 16.7686C30.2433 19.9503 29.3735 23.8843 26.5706 26.6874C23.8441 29.5266 20.3605 31.0407 15.7458 31.0407C7.19236 31.0407 0 24.0736 0 15.5205C0 6.96732 7.19236 0 15.7458 0C20.4778 0 23.8486 1.85664 26.3812 4.2767L23.3889 7.26897C21.5728 5.56541 19.1121 4.24063 15.7413 4.24063C9.4952 4.24063 4.61018 9.27441 4.61018 15.5205C4.61018 21.7666 9.4952 26.8003 15.7413 26.8003C19.7926 26.8003 22.0999 25.1734 23.5783 23.6953C24.777 22.4966 25.5657 20.7842 25.8766 18.4453L15.7413 18.4496Z" fill="#0085F7"/>
</svg>
