<svg width="80" height="80" viewBox="0 0 80 80" fill="none" xmlns="http://www.w3.org/2000/svg">
<g clip-path="url(#clip0_125_80776)">
<path d="M50.1285 36.9353C54.7001 36.9353 58.4193 33.2159 58.4193 28.6442V8.29078C58.4193 3.71922 54.7001 0 50.1285 0C45.5568 0 41.8374 3.71922 41.8374 8.29078V28.6444C41.8376 33.2159 45.5569 36.9353 50.1285 36.9353Z" fill="white"/>
<path d="M65.7622 36.9354H71.7095C76.2811 36.9354 80.0003 33.216 80.0003 28.6443C80.0003 24.0727 76.2811 20.3535 71.7095 20.3535C67.1378 20.3535 63.4185 24.0727 63.4185 28.6443V34.5916C63.4185 35.886 64.4678 36.9354 65.7622 36.9354Z" fill="white"/>
<path d="M8.29078 38.1637H28.6442C33.2158 38.1637 36.935 34.4444 36.935 29.8727C36.935 25.3013 33.2158 21.582 28.6442 21.582H8.29078C3.71922 21.5822 0 25.3014 0 29.8728C0 34.4444 3.71922 38.1637 8.29078 38.1637Z" fill="white"/>
<path d="M28.6443 16.5816H34.5913C35.8857 16.5816 36.9351 15.5322 36.9351 14.2378V8.29078C36.9351 3.71922 33.2159 0 28.6443 0C24.0727 0 20.3535 3.71922 20.3535 8.29078C20.3535 12.8623 24.0727 16.5816 28.6443 16.5816Z" fill="white"/>
<path d="M29.8723 43.0645C25.3008 43.0645 21.5815 46.7838 21.5815 51.3555V71.7088C21.5815 76.2805 25.3008 79.9999 29.8723 79.9999C34.4442 79.9999 38.1636 76.2805 38.1636 71.7088V51.3555C38.1636 46.7838 34.444 43.0645 29.8723 43.0645Z" fill="white"/>
<path d="M14.238 43.0645H8.29078C3.71922 43.0645 0 46.7838 0 51.3555C0 55.9271 3.71922 59.6463 8.29078 59.6463C12.8625 59.6463 16.5819 55.9271 16.5819 51.3555V45.4082C16.5817 44.1138 15.5323 43.0645 14.238 43.0645Z" fill="white"/>
<path d="M71.709 41.8359H51.3557C46.7842 41.8359 43.0649 45.5553 43.0649 50.127C43.0649 54.6984 46.7842 58.4177 51.3557 58.4177H71.7092C76.2807 58.4177 79.9999 54.6984 79.9999 50.127C79.9998 45.5553 76.2806 41.8359 71.709 41.8359Z" fill="white"/>
<path d="M51.3557 63.418H45.4087C44.1143 63.418 43.0649 64.4673 43.0649 65.7617V71.7089C43.0649 76.2806 46.7842 80 51.3557 80C55.9274 80 59.6468 76.2806 59.6468 71.7089C59.6467 67.1373 55.9274 63.418 51.3557 63.418Z" fill="white"/>
</g>
<defs>
<clipPath id="clip0_125_80776">
<rect width="80" height="80" fill="white"/>
</clipPath>
</defs>
</svg>
