<svg width="30" height="30" viewBox="0 0 30 30" fill="none" xmlns="http://www.w3.org/2000/svg">
<g clip-path="url(#clip0_125_71126)">
<path d="M16.0068 14.7854C15.689 14.9234 15.3462 14.9946 14.9997 14.9946C14.6532 14.9946 14.3104 14.9234 13.9925 14.7854L1.77824 9.12826C1.5799 9.02822 1.41323 8.87509 1.29677 8.68592C1.18031 8.49675 1.11865 8.27897 1.11865 8.05683C1.11865 7.83469 1.18031 7.61691 1.29677 7.42774C1.41323 7.23857 1.5799 7.08544 1.77824 6.9854L13.9925 1.2854C14.3104 1.14739 14.6532 1.07617 14.9997 1.07617C15.3462 1.07617 15.689 1.14739 16.0068 1.2854L28.2211 6.94255C28.4194 7.04258 28.5861 7.19572 28.7026 7.38488C28.819 7.57405 28.8807 7.79183 28.8807 8.01397C28.8807 8.23612 28.819 8.4539 28.7026 8.64307C28.5861 8.83223 28.4194 8.98536 28.2211 9.0854L16.0068 14.7854Z" stroke="#0E0E0E" stroke-width="1.5" stroke-linecap="round" stroke-linejoin="round"/>
<path d="M28.9284 15.75L15.857 21.7714C15.5778 21.8988 15.2746 21.9647 14.9677 21.9647C14.6609 21.9647 14.3576 21.8988 14.0784 21.7714L1.07129 15.75" stroke="#0E0E0E" stroke-width="1.5" stroke-linecap="round" stroke-linejoin="round"/>
<path d="M28.9284 22.7139L15.857 28.7353C15.5778 28.8626 15.2746 28.9285 14.9677 28.9285C14.6609 28.9285 14.3576 28.8626 14.0784 28.7353L1.07129 22.7139" stroke="#0E0E0E" stroke-width="1.5" stroke-linecap="round" stroke-linejoin="round"/>
</g>
<defs>
<clipPath id="clip0_125_71126">
<rect width="30" height="30" fill="white"/>
</clipPath>
</defs>
</svg>
