<svg width="30" height="30" viewBox="0 0 30 30" fill="none" xmlns="http://www.w3.org/2000/svg">
<g clip-path="url(#clip0_427_114)">
<path d="M15.0003 24.6426C20.3259 24.6426 24.6431 20.3254 24.6431 14.9998C24.6431 9.67419 20.3259 5.35693 15.0003 5.35693C9.67468 5.35693 5.35742 9.67419 5.35742 14.9998C5.35742 20.3254 9.67468 24.6426 15.0003 24.6426Z" stroke="#0E0E0E" stroke-width="1.5" stroke-linecap="round" stroke-linejoin="round"/>
<path d="M15.0001 16.0711C15.5919 16.0711 16.0716 15.5914 16.0716 14.9997C16.0716 14.4079 15.5919 13.9282 15.0001 13.9282C14.4084 13.9282 13.9287 14.4079 13.9287 14.9997C13.9287 15.5914 14.4084 16.0711 15.0001 16.0711Z" stroke="#0E0E0E" stroke-width="1.5" stroke-linecap="round" stroke-linejoin="round"/>
<path d="M15 5.357V1.07129" stroke="#0E0E0E" stroke-width="1.5" stroke-linecap="round" stroke-linejoin="round"/>
<path d="M15 28.9283V24.6426" stroke="#0E0E0E" stroke-width="1.5" stroke-linecap="round" stroke-linejoin="round"/>
<path d="M24.6426 15H28.9283" stroke="#0E0E0E" stroke-width="1.5" stroke-linecap="round" stroke-linejoin="round"/>
<path d="M1.07129 15H5.357" stroke="#0E0E0E" stroke-width="1.5" stroke-linecap="round" stroke-linejoin="round"/>
</g>
<defs>
<clipPath id="clip0_427_114">
<rect width="30" height="30" fill="white"/>
</clipPath>
</defs>
</svg>
