<svg width="180" height="60" viewBox="0 0 180 60" fill="none" xmlns="http://www.w3.org/2000/svg">
<g clip-path="url(#clip0_125_77508)">
<path d="M171 0.75H9C4.44365 0.75 0.75 4.44365 0.75 9V51C0.75 55.5564 4.44365 59.25 9 59.25H171C175.556 59.25 179.25 55.5564 179.25 51V9C179.25 4.44365 175.556 0.75 171 0.75Z" fill="#0E0E0E"/>
<path d="M171 0.75H9C4.44365 0.75 0.75 4.44365 0.75 9V51C0.75 55.5564 4.44365 59.25 9 59.25H171C175.556 59.25 179.25 55.5564 179.25 51V9C179.25 4.44365 175.556 0.75 171 0.75Z" stroke="white" stroke-opacity="0.14"/>
<path d="M37.0567 31.1449C37.0749 29.765 37.4503 28.4122 38.1481 27.212C38.8458 26.0119 39.8431 25.0034 41.0472 24.2807C40.2822 23.2142 39.2731 22.3364 38.1 21.7172C36.9267 21.098 35.6218 20.7544 34.2888 20.7137C31.4452 20.4223 28.6887 22.3748 27.2397 22.3748C25.7626 22.3748 23.5317 20.7427 21.1293 20.7908C19.5753 20.8399 18.0609 21.281 16.7335 22.0714C15.4062 22.8617 14.3111 23.9743 13.5551 25.3006C10.2803 30.8362 12.723 38.9716 15.8601 43.4462C17.4295 45.6373 19.2639 48.0848 21.6642 47.998C24.0129 47.9029 24.8901 46.5358 27.7252 46.5358C30.5341 46.5358 31.3572 47.998 33.8061 47.9428C36.3264 47.9029 37.9143 45.742 39.4288 43.5302C40.5565 41.969 41.4243 40.2434 42 38.4176C40.5357 37.813 39.2862 36.8009 38.4072 35.5076C37.528 34.2143 37.0584 32.6971 37.0567 31.1449Z" fill="white"/>
<path d="M32.431 17.7706C33.8052 16.1601 34.4823 14.09 34.3183 12C32.2189 12.2153 30.2796 13.1949 28.8868 14.7437C28.2058 15.5002 27.6843 16.3804 27.352 17.334C27.0196 18.2875 26.8831 19.2957 26.9502 20.3007C28.0002 20.3112 29.0391 20.089 29.9884 19.6507C30.9379 19.2126 31.773 18.5697 32.431 17.7706Z" fill="white"/>
<path d="M55.1865 12.7524H58.2912C60.9741 12.7524 62.2793 14.3477 62.2793 17.2414C62.2793 20.1352 60.9609 21.7502 58.2912 21.7502H55.1865V12.7524ZM56.6829 14.0115V20.4911H58.1265C59.9063 20.4911 60.7434 19.4167 60.7434 17.2612C60.7434 15.0925 59.8997 14.0115 58.1265 14.0115H56.6829ZM67.0122 14.6641C68.8316 14.6641 70.1037 15.844 70.1037 17.8018V18.7048C70.1037 20.7284 68.8316 21.8689 67.0122 21.8689C65.1665 21.8689 63.9075 20.7416 63.9075 18.7114V17.8084C63.9075 15.9034 65.1863 14.6641 67.0122 14.6641ZM67.0188 15.844C65.9774 15.844 65.3841 16.7141 65.3841 17.8808V18.6587C65.3841 19.8254 65.9378 20.689 67.0188 20.689C68.0867 20.689 68.6339 19.832 68.6339 18.6587V17.8808C68.6339 16.7141 68.0603 15.844 67.0188 15.844ZM80.8484 14.7827L79.0158 21.7502H77.5262L76.0694 16.6087H76.0298L74.5994 21.7502H73.1031L71.1914 14.7827H72.7668L73.8875 20.0957H73.9533L75.3575 14.7827H76.7351L78.1787 20.0957H78.2447L79.385 14.7827H80.8484ZM82.2986 21.7502V14.7827H83.7356V16.0351H83.8082C83.9861 15.488 84.4937 14.6772 85.9043 14.6772C87.3084 14.6772 88.251 15.455 88.251 17.0437V21.7502H86.7876V17.4721C86.7876 16.4108 86.234 15.923 85.4099 15.923C84.3288 15.923 83.762 16.7536 83.762 17.8808V21.7502H82.2986ZM90.4658 21.7502V12.2778H91.9292V21.7502H90.4658ZM96.9522 14.6641C98.7716 14.6641 100.044 15.844 100.044 17.8018V18.7048C100.044 20.7284 98.7716 21.8689 96.9522 21.8689C95.1065 21.8689 93.8474 20.7416 93.8474 18.7114V17.8084C93.8474 15.9034 95.1263 14.6641 96.9522 14.6641ZM96.9588 15.844C95.9172 15.844 95.324 16.7141 95.324 17.8808V18.6587C95.324 19.8254 95.8778 20.689 96.9588 20.689C98.0267 20.689 98.5737 19.832 98.5737 18.6587V17.8808C98.5737 16.7141 98.0003 15.844 96.9588 15.844ZM103.834 21.8557C102.483 21.8557 101.553 21.0251 101.553 19.7266C101.553 18.4939 102.41 17.6633 104.019 17.6633H105.779V17.0107C105.779 16.2131 105.271 15.8374 104.467 15.8374C103.676 15.8374 103.32 16.1669 103.208 16.6283H101.817C101.903 15.4616 102.779 14.6772 104.513 14.6772C106.003 14.6772 107.235 15.2969 107.235 17.0305V21.7502H105.845V20.8471H105.779C105.469 21.3811 104.862 21.8557 103.834 21.8557ZM104.289 20.722C105.119 20.722 105.779 20.155 105.779 19.397V18.6455H104.249C103.399 18.6455 103.023 19.0739 103.023 19.654C103.023 20.3791 103.63 20.722 104.289 20.722ZM111.744 14.6904C112.726 14.6904 113.478 15.1255 113.748 15.8308H113.821V12.2778H115.284V21.7502H113.86V20.6362H113.788C113.577 21.3415 112.74 21.8425 111.724 21.8425C110.123 21.8425 109.081 20.7022 109.081 18.863V17.6699C109.081 15.8308 110.142 14.6904 111.744 14.6904ZM112.153 15.8902C111.177 15.8902 110.571 16.6153 110.571 17.8808V18.6455C110.571 19.9177 111.184 20.6428 112.186 20.6428C113.175 20.6428 113.821 19.9243 113.821 18.7378V17.6831C113.821 16.6087 113.115 15.8902 112.153 15.8902ZM123.319 14.6641C125.139 14.6641 126.411 15.844 126.411 17.8018V18.7048C126.411 20.7284 125.139 21.8689 123.319 21.8689C121.474 21.8689 120.215 20.7416 120.215 18.7114V17.8084C120.215 15.9034 121.493 14.6641 123.319 14.6641ZM123.326 15.844C122.284 15.844 121.691 16.7141 121.691 17.8808V18.6587C121.691 19.8254 122.245 20.689 123.326 20.689C124.394 20.689 124.941 19.832 124.941 18.6587V17.8808C124.941 16.7141 124.367 15.844 123.326 15.844ZM128.296 21.7502V14.7827H129.733V16.0351H129.806C129.984 15.488 130.491 14.6772 131.902 14.6772C133.306 14.6772 134.249 15.455 134.249 17.0437V21.7502H132.785V17.4721C132.785 16.4108 132.231 15.923 131.408 15.923C130.326 15.923 129.759 16.7536 129.759 17.8808V21.7502H128.296ZM139.911 14.8289V13.0886H141.341V14.8289H142.904V15.9758H141.341V19.6738C141.341 20.4319 141.625 20.6428 142.409 20.6428C142.607 20.6428 142.871 20.6296 142.983 20.6164V21.737C142.864 21.7568 142.376 21.7964 142.047 21.7964C140.353 21.7964 139.891 21.19 139.891 19.7924V15.9758H138.83V14.8289H139.911ZM144.749 21.7502V12.2778H146.206V16.0351H146.279C146.43 15.5408 146.997 14.6772 148.395 14.6772C149.753 14.6772 150.722 15.4616 150.722 17.0503V21.7502H149.265V17.4787C149.265 16.4174 148.678 15.923 147.847 15.923C146.799 15.923 146.206 16.7471 146.206 17.8808V21.7502H144.749ZM155.633 21.8689C153.734 21.8689 152.555 20.7022 152.555 18.7378V17.7952C152.555 15.8176 153.846 14.6641 155.547 14.6641C157.293 14.6641 158.526 15.877 158.526 17.7952V18.6125H154.004V18.9553C154.004 19.9573 154.598 20.6956 155.625 20.6956C156.39 20.6956 156.918 20.333 157.017 19.8979H158.447C158.361 20.7022 157.511 21.8689 155.633 21.8689ZM154.004 17.6567H157.095V17.5645C157.095 16.5163 156.483 15.8176 155.553 15.8176C154.625 15.8176 154.004 16.5163 154.004 17.5645V17.6567Z" fill="white"/>
<path d="M57.3091 45.7499H54.2637L60.4599 27.7543H63.8086L69.9916 45.7499H66.8277L65.2324 40.7665H58.9174L57.3091 45.7499ZM62.1474 30.8656H62.0287L59.5899 38.4725H64.56L62.1474 30.8656ZM78.3966 45.9476C76.5904 45.9476 75.2193 45.0907 74.481 43.8119H74.3755V50.3774H71.4487V31.8149H74.2965V33.8584H74.4019C75.1666 32.5268 76.5904 31.6303 78.4624 31.6303C81.5869 31.6303 83.815 33.9902 83.815 38.1562V39.3955C83.815 43.535 81.6133 45.9476 78.3966 45.9476ZM77.7241 43.535C79.5831 43.535 80.8486 42.0454 80.8486 39.2372V38.2616C80.8486 35.5591 79.6621 34.0165 77.6715 34.0165C75.628 34.0165 74.3491 35.6777 74.3491 38.2484V39.2372C74.3491 41.8739 75.6412 43.535 77.7241 43.535ZM93.2745 45.9476C91.4683 45.9476 90.0973 45.0907 89.359 43.8119H89.2536V50.3774H86.3268V31.8149H89.1744V33.8584H89.28C90.0445 32.5268 91.4683 31.6303 93.3405 31.6303C96.465 31.6303 98.6931 33.9902 98.6931 38.1562V39.3955C98.6931 43.535 96.4914 45.9476 93.2745 45.9476ZM92.6022 43.535C94.4611 43.535 95.7267 42.0454 95.7267 39.2372V38.2616C95.7267 35.5591 94.5402 34.0165 92.5494 34.0165C90.5059 34.0165 89.2272 35.6777 89.2272 38.2484V39.2372C89.2272 41.8739 90.5191 43.535 92.6022 43.535ZM104.758 40.7533H107.685C107.817 42.3091 109.188 43.6406 111.732 43.6406C114.066 43.6406 115.45 42.5464 115.45 40.8457C115.45 39.4745 114.527 38.7362 112.602 38.2748L109.649 37.5365C107.329 36.9961 105.246 35.6117 105.246 32.6849C105.246 29.2441 108.252 27.3589 111.745 27.3589C115.239 27.3589 118.153 29.2441 118.219 32.6059H115.345C115.213 31.0766 114.039 29.8109 111.706 29.8109C109.649 29.8109 108.252 30.7865 108.252 32.4608C108.252 33.6343 109.069 34.478 110.743 34.8602L113.683 35.5853C116.386 36.2446 118.443 37.5233 118.443 40.582C118.443 44.1152 115.582 46.1059 111.508 46.1059C106.498 46.1059 104.824 43.1791 104.758 40.7533ZM122.009 31.8149V28.4267H124.883V31.8149H127.599V34.1615H124.883V41.597C124.883 43.1132 125.45 43.535 127.019 43.535C127.269 43.535 127.507 43.535 127.678 43.5088V45.7499C127.441 45.7895 126.887 45.8422 126.294 45.8422C122.906 45.8422 121.97 44.6293 121.97 41.8343V34.1615H120.045V31.8149H122.009ZM135.503 31.5776C139.511 31.5776 141.686 34.3988 141.686 38.1958V39.3163C141.686 43.2451 139.524 45.9872 135.503 45.9872C131.482 45.9872 129.293 43.2451 129.293 39.3163V38.1958C129.293 34.412 131.495 31.5776 135.503 31.5776ZM135.503 33.9242C133.328 33.9242 132.247 35.704 132.247 38.2352V39.3031C132.247 41.7949 133.314 43.6274 135.503 43.6274C137.691 43.6274 138.746 41.8081 138.746 39.3031V38.2352C138.746 35.6908 137.678 33.9242 135.503 33.9242ZM144.158 45.7499V31.8149H147.085V33.6473H147.19C147.546 32.7773 148.588 31.6171 150.526 31.6171C150.909 31.6171 151.237 31.6435 151.515 31.6963V34.2802C151.264 34.2143 150.75 34.1747 150.262 34.1747C147.916 34.1747 147.124 35.6249 147.124 37.4969V45.7499H144.158ZM158.614 45.9872C154.884 45.9872 152.511 43.5218 152.511 39.3955V37.9847C152.511 34.0957 154.83 31.5776 158.496 31.5776C162.213 31.5776 164.454 34.1879 164.454 38.1166V39.4481H155.397V39.7778C155.397 42.1244 156.663 43.6801 158.653 43.6801C160.143 43.6801 161.158 42.9418 161.515 41.7421H164.296C163.875 43.9966 162.055 45.9872 158.614 45.9872ZM155.397 37.4047H161.593V37.3783C161.593 35.4008 160.368 33.8452 158.509 33.8452C156.624 33.8452 155.397 35.4008 155.397 37.3783V37.4047Z" fill="white"/>
</g>
<defs>
<clipPath id="clip0_125_77508">
<rect width="180" height="60" fill="white"/>
</clipPath>
</defs>
</svg>
