<svg width="30" height="30" viewBox="0 0 30 30" fill="none" xmlns="http://www.w3.org/2000/svg">
<path d="M15 28.6939C16.407 28.6939 17.8003 28.4167 19.1002 27.8783C20.4001 27.3398 21.5812 26.5506 22.5761 25.5557C23.5711 24.5608 24.3603 23.3797 24.8987 22.0798C25.4372 20.7798 25.7143 19.3866 25.7143 17.9796V12.0224C25.7144 9.39033 24.7457 6.85027 22.9929 4.88672" stroke="#0E0E0E" stroke-width="1.5" stroke-linecap="round" stroke-linejoin="round"/>
<path d="M4.28613 14.4023V17.9809C4.28542 20.0901 4.90725 22.1526 6.0737 23.9099C7.24014 25.6672 8.89932 27.0411 10.8433 27.8595" stroke="#0E0E0E" stroke-width="1.5" stroke-linecap="round" stroke-linejoin="round"/>
<path d="M20.3571 2.74401C17.8963 1.32327 14.9719 0.938261 12.2272 1.67367C9.48245 2.40907 7.14228 4.20466 5.72143 6.66544C5.13638 7.67586 4.7236 8.77662 4.5 9.92259" stroke="#0E0E0E" stroke-width="1.5" stroke-linecap="round" stroke-linejoin="round"/>
<path d="M13.8857 7.52245C14.6739 7.35883 15.4887 7.37419 16.2701 7.56741C17.0515 7.76062 17.7796 8.12676 18.4007 8.63883C19.0217 9.1509 19.5199 9.79584 19.8585 10.5261C20.1972 11.2563 20.3676 12.0533 20.3572 12.8582V16.3082" stroke="#0E0E0E" stroke-width="1.5" stroke-linecap="round" stroke-linejoin="round"/>
<path d="M18.9861 20.8077C18.257 21.6198 17.2973 22.1899 16.2353 22.4416C15.1733 22.6934 14.0598 22.6147 13.0437 22.2162C12.0276 21.8177 11.1575 21.1184 10.5498 20.2118C9.94214 19.3052 9.62584 18.2347 9.64326 17.1434V12.8577C9.63919 12.1217 9.785 11.3926 10.0718 10.7148" stroke="#0E0E0E" stroke-width="1.5" stroke-linecap="round" stroke-linejoin="round"/>
<path d="M15 13.0938V16.6723" stroke="#0E0E0E" stroke-width="1.5" stroke-linecap="round" stroke-linejoin="round"/>
</svg>
