<svg width="30" height="30" viewBox="0 0 30 30" fill="none" xmlns="http://www.w3.org/2000/svg">
<path d="M22.8002 3.2998H7.20022C6.84057 3.30968 6.48829 3.40405 6.17187 3.57529C5.85545 3.74653 5.58376 3.98983 5.37879 4.28552L1.47879 9.68552C1.18919 10.0947 1.04457 10.589 1.06786 11.0898C1.09115 11.5906 1.28103 12.0692 1.60736 12.4498L13.3074 25.9284C13.5077 26.1865 13.7643 26.3953 14.0577 26.539C14.3511 26.6827 14.6735 26.7574 15.0002 26.7574C15.3269 26.7574 15.6493 26.6827 15.9427 26.539C16.2361 26.3953 16.4928 26.1865 16.6931 25.9284L28.3931 12.4498C28.7194 12.0692 28.9093 11.5906 28.9326 11.0898C28.9559 10.589 28.8112 10.0947 28.5216 9.68552L24.6216 4.28552C24.4167 3.98983 24.145 3.74653 23.8286 3.57529C23.5121 3.40405 23.1599 3.30968 22.8002 3.2998V3.2998Z" stroke="#0E0E0E" stroke-width="1.5" stroke-linecap="round" stroke-linejoin="round"/>
<path d="M13.8858 3.27832L8.65723 11.3783L15.0001 26.6997" stroke="#0E0E0E" stroke-width="1.5" stroke-linecap="round" stroke-linejoin="round"/>
<path d="M16.1786 3.27832L21.3857 11.3783L15 26.6997" stroke="#0E0E0E" stroke-width="1.5" stroke-linecap="round" stroke-linejoin="round"/>
<path d="M1.11426 11.3779H28.8857" stroke="#0E0E0E" stroke-width="1.5" stroke-linecap="round" stroke-linejoin="round"/>
</svg>
