<svg width="30" height="30" viewBox="0 0 30 30" fill="none" xmlns="http://www.w3.org/2000/svg">
<path d="M15 21.4727V23.6369" stroke="#0E0E0E" stroke-width="1.5" stroke-linecap="round" stroke-linejoin="round"/>
<path d="M15 10.7363V12.7506" stroke="#0E0E0E" stroke-width="1.5" stroke-linecap="round" stroke-linejoin="round"/>
<path d="M15.0002 28.9078C22.5002 28.9078 27.8574 26.2507 27.8574 20.3364C27.8574 13.9078 24.6431 9.6221 18.2145 6.40781L20.7431 3.15067C20.8715 2.93696 20.9412 2.6931 20.945 2.44378C20.9489 2.19447 20.8867 1.94857 20.7649 1.73102C20.6431 1.51347 20.4659 1.33199 20.2513 1.20498C20.0367 1.07798 19.7924 1.00995 19.5431 1.00781H10.4574C10.208 1.00995 9.96368 1.07798 9.74911 1.20498C9.53454 1.33199 9.35736 1.51347 9.23553 1.73102C9.1137 1.94857 9.05155 2.19447 9.05538 2.44378C9.05922 2.6931 9.12889 2.93696 9.25735 3.15067L11.7859 6.42924C5.35735 9.66496 2.14307 13.9507 2.14307 20.3792C2.14307 26.2507 7.50021 28.9078 15.0002 28.9078Z" stroke="#0E0E0E" stroke-width="1.5" stroke-linecap="round" stroke-linejoin="round"/>
<path d="M12.8573 20.4871C13.1188 20.7975 13.4479 21.0439 13.8193 21.2073C14.1908 21.3707 14.5947 21.4469 15.0002 21.43C15.6199 21.4722 16.2319 21.2726 16.7074 20.8729C17.183 20.4733 17.4851 19.9049 17.5502 19.2871C17.4851 18.6694 17.183 18.101 16.7074 17.7013C16.2319 17.3017 15.6199 17.102 15.0002 17.1443C14.3805 17.1865 13.7685 16.9869 13.2929 16.5872C12.8174 16.1876 12.5153 15.6192 12.4502 15.0014C12.5101 14.3815 12.8107 13.8098 13.2875 13.4092C13.7643 13.0085 14.3792 12.8108 15.0002 12.8586C15.3985 12.8342 15.7973 12.8984 16.1678 13.0466C16.5384 13.1949 16.8714 13.4234 17.1431 13.7157" stroke="#0E0E0E" stroke-width="1.5" stroke-linecap="round" stroke-linejoin="round"/>
</svg>
