<svg width="30" height="30" viewBox="0 0 30 30" fill="none" xmlns="http://www.w3.org/2000/svg">
<g clip-path="url(#clip0_365_17710)">
<path d="M3.21415 12.8569H5.357C5.64116 12.8569 5.91369 12.9698 6.11462 13.1707C6.31555 13.3717 6.42843 13.6442 6.42843 13.9284V19.2855C6.42843 19.5697 6.31555 19.8422 6.11462 20.0431C5.91369 20.2441 5.64116 20.3569 5.357 20.3569H3.21415C2.64583 20.3569 2.10078 20.1312 1.69892 19.7293C1.29705 19.3274 1.07129 18.7824 1.07129 18.2141V14.9998C1.07129 14.4315 1.29705 13.8864 1.69892 13.4846C2.10078 13.0827 2.64583 12.8569 3.21415 12.8569V12.8569Z" stroke="#0E0E0E" stroke-width="1.5" stroke-linecap="round" stroke-linejoin="round"/>
<path d="M26.7859 20.3569H24.643C24.3588 20.3569 24.0863 20.2441 23.8854 20.0431C23.6844 19.8422 23.5716 19.5697 23.5716 19.2855V13.9284C23.5716 13.6442 23.6844 13.3717 23.8854 13.1707C24.0863 12.9698 24.3588 12.8569 24.643 12.8569H26.7859C27.3542 12.8569 27.8992 13.0827 28.3011 13.4846C28.7029 13.8864 28.9287 14.4315 28.9287 14.9998V18.2141C28.9287 18.7824 28.7029 19.3274 28.3011 19.7293C27.8992 20.1312 27.3542 20.3569 26.7859 20.3569V20.3569Z" stroke="#0E0E0E" stroke-width="1.5" stroke-linecap="round" stroke-linejoin="round"/>
<path d="M20.3574 26.2498C21.4941 26.2498 22.5842 25.7983 23.3879 24.9945C24.1916 24.1908 24.6431 23.1007 24.6431 21.9641V20.3569" stroke="#0E0E0E" stroke-width="1.5" stroke-linecap="round" stroke-linejoin="round"/>
<path d="M17.678 23.5713C18.3884 23.5713 19.0697 23.8535 19.572 24.3558C20.0744 24.8582 20.3566 25.5395 20.3566 26.2499C20.3566 26.9603 20.0744 27.6416 19.572 28.1439C19.0697 28.6462 18.3884 28.9284 17.678 28.9284H14.4637C13.7533 28.9284 13.072 28.6462 12.5697 28.1439C12.0674 27.6416 11.7852 26.9603 11.7852 26.2499C11.7852 25.5395 12.0674 24.8582 12.5697 24.3558C13.072 23.8535 13.7533 23.5713 14.4637 23.5713H17.678Z" stroke="#0E0E0E" stroke-width="1.5" stroke-linecap="round" stroke-linejoin="round"/>
<path d="M5.35742 12.857V10.7141C5.35742 8.1567 6.37336 5.704 8.18175 3.89562C9.99014 2.08723 12.4428 1.07129 15.0003 1.07129C17.5577 1.07129 20.0104 2.08723 21.8188 3.89562C23.6272 5.704 24.6431 8.1567 24.6431 10.7141V12.857" stroke="#0E0E0E" stroke-width="1.5" stroke-linecap="round" stroke-linejoin="round"/>
<path d="M11.7852 8.57129V11.7856" stroke="#0E0E0E" stroke-width="1.5" stroke-linecap="round" stroke-linejoin="round"/>
<path d="M18.2139 8.57129V11.7856" stroke="#0E0E0E" stroke-width="1.5" stroke-linecap="round" stroke-linejoin="round"/>
<path d="M11.7852 16.0713C11.7852 18.9213 18.2137 18.9213 18.2137 16.0713" stroke="#0E0E0E" stroke-width="1.5" stroke-linecap="round" stroke-linejoin="round"/>
</g>
<defs>
<clipPath id="clip0_365_17710">
<rect width="30" height="30" fill="white"/>
</clipPath>
</defs>
</svg>
