<svg width="30" height="30" viewBox="0 0 30 30" fill="none" xmlns="http://www.w3.org/2000/svg">
<path d="M22.8002 3.29688H7.20022C6.84057 3.30675 6.48829 3.40112 6.17187 3.57236C5.85545 3.7436 5.58376 3.9869 5.37879 4.28259L1.47879 9.68259C1.18919 10.0918 1.04457 10.586 1.06786 11.0868C1.09115 11.5876 1.28103 12.0663 1.60736 12.4469L13.3074 25.9254C13.5077 26.1835 13.7643 26.3924 14.0577 26.5361C14.3511 26.6798 14.6735 26.7545 15.0002 26.7545C15.3269 26.7545 15.6493 26.6798 15.9427 26.5361C16.2361 26.3924 16.4928 26.1835 16.6931 25.9254L28.3931 12.4469C28.7194 12.0663 28.9093 11.5876 28.9326 11.0868C28.9559 10.586 28.8112 10.0918 28.5216 9.68259L24.6216 4.28259C24.4167 3.9869 24.145 3.7436 23.8286 3.57236C23.5121 3.40112 23.1599 3.30675 22.8002 3.29688V3.29688Z" stroke="#0E0E0E" stroke-width="1.5" stroke-linecap="round" stroke-linejoin="round"/>
<path d="M13.8858 3.27734L8.65723 11.3773L15.0001 26.6988" stroke="#0E0E0E" stroke-width="1.5" stroke-linecap="round" stroke-linejoin="round"/>
<path d="M16.1786 3.27734L21.3857 11.3773L15 26.6988" stroke="#0E0E0E" stroke-width="1.5" stroke-linecap="round" stroke-linejoin="round"/>
<path d="M1.11426 11.3789H28.8857" stroke="#0E0E0E" stroke-width="1.5" stroke-linecap="round" stroke-linejoin="round"/>
</svg>
