<svg width="80" height="80" viewBox="0 0 80 80" fill="none" xmlns="http://www.w3.org/2000/svg">
<path d="M80 15.195C77.025 16.5 73.855 17.365 70.55 17.785C73.95 15.755 76.545 12.565 77.765 8.72C74.595 10.61 71.095 11.945 67.365 12.69C64.355 9.485 60.065 7.5 55.385 7.5C46.305 7.5 38.995 14.87 38.995 23.905C38.995 25.205 39.105 26.455 39.375 27.645C25.74 26.98 13.675 20.445 5.57 10.49C4.155 12.945 3.325 15.755 3.325 18.78C3.325 24.46 6.25 29.495 10.61 32.41C7.975 32.36 5.39 31.595 3.2 30.39C3.2 30.44 3.2 30.505 3.2 30.57C3.2 38.54 8.885 45.16 16.34 46.685C15.005 47.05 13.55 47.225 12.04 47.225C10.99 47.225 9.93 47.165 8.935 46.945C11.06 53.44 17.09 58.215 24.26 58.37C18.68 62.735 11.595 65.365 3.925 65.365C2.58 65.365 1.29 65.305 0 65.14C7.265 69.825 15.875 72.5 25.16 72.5C55.34 72.5 71.84 47.5 71.84 25.83C71.84 25.105 71.815 24.405 71.78 23.71C75.035 21.4 77.77 18.515 80 15.195Z" fill="white"/>
</svg>
