<svg width="30" height="30" viewBox="0 0 30 30" fill="none" xmlns="http://www.w3.org/2000/svg">
<path d="M24.6431 10.7141C24.6431 16.0499 15.0003 28.9284 15.0003 28.9284C15.0003 28.9284 5.35742 16.0499 5.35742 10.7141C5.35742 8.1567 6.37336 5.704 8.18175 3.89562C9.99014 2.08723 12.4428 1.07129 15.0003 1.07129C17.5577 1.07129 20.0104 2.08723 21.8188 3.89562C23.6272 5.704 24.6431 8.1567 24.6431 10.7141V10.7141Z" stroke="#0E0E0E" stroke-width="1.5" stroke-linecap="round" stroke-linejoin="round"/>
<path d="M15.0004 13.9286C16.7756 13.9286 18.2147 12.4895 18.2147 10.7143C18.2147 8.93908 16.7756 7.5 15.0004 7.5C13.2252 7.5 11.7861 8.93908 11.7861 10.7143C11.7861 12.4895 13.2252 13.9286 15.0004 13.9286Z" stroke="#0E0E0E" stroke-width="1.5" stroke-linecap="round" stroke-linejoin="round"/>
</svg>
