<svg width="80" height="80" viewBox="0 0 80 80" fill="none" xmlns="http://www.w3.org/2000/svg">
<g clip-path="url(#clip0_125_80788)">
<path d="M27.4801 30.9062C31.3236 30.1561 35.0739 29.125 38.6361 28C33.902 19.328 28.0426 11.4998 21.1519 4.89062C11.027 10.328 3.32357 20.0312 0.839355 31.6092C8.29264 33.1092 17.4958 32.9219 27.4801 30.9062Z" fill="white"/>
<path d="M65.4017 9.39047L64.7454 11.9686C63.7144 16.0936 54.9956 21.9998 43.5581 26.2656L43.0423 26.453C38.4017 17.6873 32.5423 9.71859 25.6987 2.82813C30.105 1.09375 34.9329 0 39.9486 0C48.9015 0 57.2454 3.15625 63.9017 8.17172C64.4172 8.54672 64.9331 8.92188 65.4017 9.39047Z" fill="white"/>
<path d="M44.8704 41.9219C43.6517 38.5939 42.2923 35.3595 40.7923 32.2188C36.855 33.5314 32.6831 34.6564 28.4173 35.5C23.7767 36.4375 17.73 37.2812 11.355 37.2812C7.69856 37.2812 3.79231 37 0.089341 36.2967C-0.00456527 37.5155 0.10481 38.7344 0.10481 40C0.10481 52.3281 5.72981 63.3436 14.4954 70.6561C14.5423 70.3748 14.5893 70.0936 14.6359 69.8123C16.4173 59.0314 28.8862 47.6408 44.8704 41.9219Z" fill="white"/>
<path d="M46.4171 46.3281C49.6046 56.3594 51.3859 67.25 51.5732 78.2658C47.9171 79.3908 43.9794 80.0002 39.9484 80.0002C32.4015 80.0002 25.3234 77.7345 19.3232 74.0781C19.0888 72.9531 19.0888 71.7813 19.2766 70.5625C20.7298 61.7033 32.3546 51.4377 46.4171 46.3281Z" fill="white"/>
<path d="M79.5267 45.6716C77.5581 59.4063 68.4487 70.8904 56.1675 76.3749C55.8394 65.4999 53.9642 54.906 50.8237 44.9216C61.3237 42.0155 71.277 42.3437 79.5267 45.6716Z" fill="white"/>
<path d="M79.9487 39.9998V40.8436C70.9958 37.5153 60.3862 37.3748 49.3237 40.5155C48.105 37.1406 46.6987 33.8594 45.1987 30.6719C52.9036 27.7789 67.2826 21.1208 69.2925 13.0938C75.8083 20.1716 79.9487 29.6403 79.9487 39.9998Z" fill="white"/>
</g>
<defs>
<clipPath id="clip0_125_80788">
<rect width="80" height="80" fill="white"/>
</clipPath>
</defs>
</svg>
