<svg width="20" height="20" viewBox="0 0 20 20" fill="none" xmlns="http://www.w3.org/2000/svg">
<path d="M19.9719 11.1335C19.9719 11.1334 19.9719 11.1334 19.9718 11.1333L16.1958 1.65187C16.1156 1.45041 15.8873 1.35206 15.6858 1.4322C15.6857 1.43225 15.6855 1.4323 15.6854 1.4324L0.366301 7.53231C0.303827 7.5593 0.249648 7.60239 0.209259 7.65716C0.0818582 7.72336 0.00137412 7.85439 0 7.99794V18.2057C0 18.4225 0.175789 18.5983 0.392605 18.5983H16.882C17.0988 18.5983 17.2746 18.4225 17.2746 18.2057V12.6307L19.7528 11.6437C19.9542 11.5633 20.0523 11.3349 19.9719 11.1335ZM16.4894 17.8131H0.785211V8.39054H16.4894V17.8131ZM6.55062 7.6073L13.1244 4.98783C13.7111 5.60452 14.524 5.95502 15.3752 5.95835L16.0309 7.6073H6.55062ZM17.2746 11.7874V7.99794C17.2746 7.78112 17.0988 7.60533 16.882 7.60533H16.8757L16.0438 5.51589C16.0346 5.49847 16.0238 5.48188 16.0116 5.46642C15.9695 5.27733 15.7944 5.14831 15.6013 5.16411C14.8094 5.2363 14.0346 4.90269 13.5429 4.27761C13.4206 4.12661 13.2055 4.08906 13.0392 4.18967C13.0206 4.19188 13.0021 4.19531 12.9838 4.19988L4.95821 7.39568C4.86109 7.43377 4.7834 7.50929 4.74267 7.60533H2.30538L15.6116 2.30712L19.0975 11.0603L17.2746 11.7874Z" fill="#B9FB6A"/>
<path d="M1.85063 15.1626C2.61288 15.3879 3.20934 15.9837 3.43558 16.7456C3.4852 16.9119 3.63816 17.0259 3.8117 17.0259C3.83206 17.0246 3.85228 17.0216 3.87216 17.0169C3.88978 17.0219 3.90779 17.0256 3.92594 17.0279H13.3485C13.3647 17.0258 13.3807 17.0225 13.3964 17.0181C13.5925 17.0658 13.7902 16.9455 13.838 16.7493C13.8381 16.7486 13.8383 16.7479 13.8384 16.7472C14.0641 15.9844 14.6607 15.3879 15.4234 15.1622C15.6084 15.1057 15.7233 14.9214 15.6927 14.7304C15.698 14.7113 15.7017 14.6919 15.7041 14.6723V11.5314C15.7018 11.5117 15.6979 11.4923 15.6923 11.4733C15.7231 11.2823 15.6081 11.0978 15.423 11.0414C14.6603 10.8158 14.0638 10.219 13.8388 9.4561C13.782 9.26986 13.5959 9.15463 13.4038 9.18677C13.3857 9.18172 13.3672 9.17804 13.3485 9.17578H3.92594C3.90617 9.17814 3.88659 9.18206 3.86745 9.18756C3.67649 9.15713 3.49226 9.27202 3.43558 9.45689C3.20978 10.2195 2.61327 10.8158 1.85063 11.0414C1.66567 11.098 1.55073 11.2823 1.58131 11.4733C1.5762 11.4924 1.57252 11.5118 1.57031 11.5314V14.6723C1.57257 14.6907 1.57625 14.709 1.58131 14.7268C1.54911 14.9191 1.66429 15.1054 1.85063 15.1626ZM2.35552 11.6908C3.14387 11.3742 3.76871 10.7493 4.08534 9.96099H13.1887C13.5055 10.7493 14.1304 11.3742 14.9189 11.6908V14.5129C14.1308 14.8298 13.5061 15.4546 13.1891 16.2427H4.08534C3.76836 15.4546 3.14363 14.8298 2.35552 14.5129V11.6908Z" fill="#B9FB6A"/>
<path d="M8.63688 15.4574C9.93788 15.4574 10.9925 14.4027 10.9925 13.1017C10.9925 11.8007 9.93788 10.7461 8.63688 10.7461C7.33589 10.7461 6.28125 11.8007 6.28125 13.1017C6.28253 14.4022 7.33643 15.4561 8.63688 15.4574ZM8.63688 11.5313C9.5042 11.5313 10.2073 12.2344 10.2073 13.1017C10.2073 13.969 9.5042 14.6721 8.63688 14.6721C7.76957 14.6721 7.06646 13.969 7.06646 13.1017C7.06646 12.2344 7.76957 11.5313 8.63688 11.5313Z" fill="#B9FB6A"/>
<path d="M4.31938 13.6915C4.6446 13.6915 4.90828 13.4278 4.90828 13.1026C4.90828 12.7774 4.6446 12.5137 4.31938 12.5137C3.99415 12.5137 3.73047 12.7774 3.73047 13.1026C3.73047 13.4279 3.99415 13.6915 4.31938 13.6915ZM4.31938 12.9063C4.42778 12.9063 4.51568 12.9942 4.51568 13.1026C4.51568 13.211 4.42778 13.2989 4.31938 13.2989C4.21097 13.2989 4.12307 13.211 4.12307 13.1026C4.12307 12.9942 4.21097 12.9063 4.31938 12.9063Z" fill="#B9FB6A"/>
<path d="M12.9561 13.6915C13.2813 13.6915 13.545 13.4278 13.545 13.1026C13.545 12.7774 13.2813 12.5137 12.9561 12.5137C12.6309 12.5137 12.3672 12.7774 12.3672 13.1026C12.3672 13.4279 12.6309 13.6915 12.9561 13.6915ZM12.9561 12.9063C13.0645 12.9063 13.1524 12.9942 13.1524 13.1026C13.1524 13.211 13.0645 13.2989 12.9561 13.2989C12.8477 13.2989 12.7598 13.211 12.7598 13.1026C12.7598 12.9942 12.8477 12.9063 12.9561 12.9063Z" fill="#B9FB6A"/>
</svg>
