<svg width="100" height="16" viewBox="0 0 100 16" fill="none" xmlns="http://www.w3.org/2000/svg">
<path d="M8 0L9.79611 5.52786H15.6085L10.9062 8.94427L12.7023 14.4721L8 11.0557L3.29772 14.4721L5.09383 8.94427L0.391548 5.52786H6.20389L8 0Z" fill="#163300"/>
<path d="M29 0L30.7961 5.52786H36.6085L31.9062 8.94427L33.7023 14.4721L29 11.0557L24.2977 14.4721L26.0938 8.94427L21.3915 5.52786H27.2039L29 0Z" fill="#163300"/>
<path d="M50 0L51.7961 5.52786H57.6085L52.9062 8.94427L54.7023 14.4721L50 11.0557L45.2977 14.4721L47.0938 8.94427L42.3915 5.52786H48.2039L50 0Z" fill="#163300"/>
<path d="M71 0L72.7961 5.52786H78.6085L73.9062 8.94427L75.7023 14.4721L71 11.0557L66.2977 14.4721L68.0938 8.94427L63.3915 5.52786H69.2039L71 0Z" fill="#163300"/>
<path d="M92 0L93.7961 5.52786H99.6085L94.9062 8.94427L96.7023 14.4721L92 11.0557L87.2977 14.4721L89.0938 8.94427L84.3915 5.52786H90.2039L92 0Z" fill="#163300"/>
</svg>
