<svg width="30" height="30" viewBox="0 0 30 30" fill="none" xmlns="http://www.w3.org/2000/svg">
<g clip-path="url(#clip0_366_682)">
<path d="M28.9286 22.5V26.7857C28.9286 27.354 28.7028 27.8991 28.3009 28.3009C27.8991 28.7028 27.354 28.9286 26.7857 28.9286H22.5" stroke="#0E0E0E" stroke-width="1.5" stroke-linecap="round" stroke-linejoin="round"/>
<path d="M22.5 1.07031H26.7857C27.354 1.07031 27.8991 1.29608 28.3009 1.69794C28.7028 2.0998 28.9286 2.64485 28.9286 3.21317V7.49888" stroke="#0E0E0E" stroke-width="1.5" stroke-linecap="round" stroke-linejoin="round"/>
<path d="M1.07129 7.49888V3.21317C1.07129 2.64485 1.29705 2.0998 1.69892 1.69794C2.10078 1.29608 2.64583 1.07031 3.21415 1.07031H7.49986" stroke="#0E0E0E" stroke-width="1.5" stroke-linecap="round" stroke-linejoin="round"/>
<path d="M7.49986 28.9286H3.21415C2.64583 28.9286 2.10078 28.7028 1.69892 28.3009C1.29705 27.8991 1.07129 27.354 1.07129 26.7857V22.5" stroke="#0E0E0E" stroke-width="1.5" stroke-linecap="round" stroke-linejoin="round"/>
<path d="M8.57129 7.5V11.7857" stroke="#0E0E0E" stroke-width="1.5" stroke-linecap="round" stroke-linejoin="round"/>
<path d="M21.4287 7.5V11.7857" stroke="#0E0E0E" stroke-width="1.5" stroke-linecap="round" stroke-linejoin="round"/>
<path d="M14.9994 9.64062V17.1406H11.7852" stroke="#0E0E0E" stroke-width="1.5" stroke-linecap="round" stroke-linejoin="round"/>
<path d="M9.64258 21.4258C11.0882 22.7989 13.0059 23.5646 14.9997 23.5646C16.9936 23.5646 18.9113 22.7989 20.3569 21.4258" stroke="#0E0E0E" stroke-width="1.5" stroke-linecap="round" stroke-linejoin="round"/>
</g>
<defs>
<clipPath id="clip0_366_682">
<rect width="30" height="30" fill="white"/>
</clipPath>
</defs>
</svg>
