<svg width="30" height="30" viewBox="0 0 30 30" fill="none" xmlns="http://www.w3.org/2000/svg">
<g clip-path="url(#clip0_125_67980)">
<path d="M18.2146 10.7139C19.3981 10.7139 20.3575 9.75455 20.3575 8.57108C20.3575 7.38761 19.3981 6.42822 18.2146 6.42822C17.0312 6.42822 16.0718 7.38761 16.0718 8.57108C16.0718 9.75455 17.0312 10.7139 18.2146 10.7139Z" stroke="#0E0E0E" stroke-width="1.5" stroke-linecap="round" stroke-linejoin="round"/>
<path d="M9.64321 21.4285C10.2349 21.4285 10.7146 20.9488 10.7146 20.3571C10.7146 19.7653 10.2349 19.2856 9.64321 19.2856C9.05147 19.2856 8.57178 19.7653 8.57178 20.3571C8.57178 20.9488 9.05147 21.4285 9.64321 21.4285Z" stroke="#0E0E0E" stroke-width="1.5" stroke-linecap="round" stroke-linejoin="round"/>
<path d="M9.64286 13.9283C10.8263 13.9283 11.7857 12.9689 11.7857 11.7854C11.7857 10.602 10.8263 9.64258 9.64286 9.64258C8.45939 9.64258 7.5 10.602 7.5 11.7854C7.5 12.9689 8.45939 13.9283 9.64286 13.9283Z" stroke="#0E0E0E" stroke-width="1.5" stroke-linecap="round" stroke-linejoin="round"/>
<path d="M20.4002 26.3141C20.3763 25.8985 20.2319 25.4988 19.9845 25.1639C19.7371 24.829 19.3976 24.5735 19.0073 24.4284C18.0381 24.1099 17.2144 23.456 16.6841 22.5844C16.1539 21.7129 15.9519 20.6807 16.1146 19.6735C16.2773 18.6664 16.794 17.7503 17.5717 17.09C18.3494 16.4297 19.3371 16.0685 20.3573 16.0713H24.3645C25.0518 16.0732 25.7294 15.9098 26.3403 15.5949C26.9512 15.2799 27.4773 14.8227 27.8744 14.2617C28.2715 13.7008 28.5279 13.0525 28.6219 12.3717C28.7158 11.6909 28.6447 10.9974 28.4145 10.3499C27.5622 7.94337 26.0649 5.81741 24.0861 4.20425C22.1074 2.59109 19.7234 1.5528 17.1945 1.20281C14.6657 0.852813 12.0893 1.20459 9.74677 2.21969C7.4043 3.2348 5.38587 4.87418 3.91201 6.95874C2.43815 9.0433 1.56557 11.4928 1.38958 14.0397C1.2136 16.5866 1.74099 19.1329 2.91414 21.4004C4.08728 23.6678 5.86105 25.5692 8.04165 26.8969C10.2223 28.2245 12.7258 28.9273 15.2788 28.9284C16.5395 28.932 17.7946 28.7588 19.0073 28.4141C19.4528 28.2893 19.8385 28.0086 20.0942 27.6231C20.3499 27.2376 20.4585 26.773 20.4002 26.3141V26.3141Z" stroke="#0E0E0E" stroke-width="1.5" stroke-linecap="round" stroke-linejoin="round"/>
</g>
<defs>
<clipPath id="clip0_125_67980">
<rect width="30" height="30" fill="white"/>
</clipPath>
</defs>
</svg>
