<svg width="30" height="30" viewBox="0 0 30 30" fill="none" xmlns="http://www.w3.org/2000/svg">
<path d="M11.2075 4.82031L12.1289 2.44174C12.2843 2.03902 12.5577 1.69262 12.9133 1.44791C13.2689 1.2032 13.6901 1.07159 14.1218 1.07031H15.8789C16.3106 1.07159 16.7318 1.2032 17.0874 1.44791C17.443 1.69262 17.7164 2.03902 17.8718 2.44174L18.7932 4.82031L21.9218 6.62031L24.4504 6.2346C24.8714 6.17745 25.2999 6.24676 25.6815 6.43372C26.063 6.62068 26.3804 6.91685 26.5932 7.2846L27.4504 8.7846C27.67 9.1582 27.7712 9.58963 27.7406 10.0219C27.71 10.4542 27.549 10.8671 27.2789 11.206L25.7146 13.1989V16.7989L27.3218 18.7917C27.5919 19.1307 27.7528 19.5435 27.7834 19.9758C27.814 20.4081 27.7129 20.8396 27.4932 21.2132L26.6361 22.7132C26.4232 23.0809 26.1059 23.3771 25.7243 23.564C25.3428 23.751 24.9142 23.8203 24.4932 23.7632L21.9646 23.3775L18.8361 25.1775L17.9146 27.556C17.7592 27.9587 17.4858 28.3051 17.1302 28.5499C16.7747 28.7946 16.3534 28.9262 15.9218 28.9275H14.1218C13.6901 28.9262 13.2689 28.7946 12.9133 28.5499C12.5577 28.3051 12.2843 27.9587 12.1289 27.556L11.2075 25.1775L8.07892 23.3775L5.55035 23.7632C5.12932 23.8203 4.70079 23.751 4.31924 23.564C3.93769 23.3771 3.62033 23.0809 3.40749 22.7132L2.55035 21.2132C2.33071 20.8396 2.22952 20.4081 2.26012 19.9758C2.29073 19.5435 2.4517 19.1307 2.72178 18.7917L4.28607 16.7989V13.1989L2.67892 11.206C2.40884 10.8671 2.24787 10.4542 2.21727 10.0219C2.18666 9.58963 2.28785 9.1582 2.50749 8.7846L3.36464 7.2846C3.57747 6.91685 3.89483 6.62068 4.27638 6.43372C4.65794 6.24676 5.08646 6.17745 5.50749 6.2346L8.03607 6.62031L11.2075 4.82031ZM10.7146 14.9989C10.7146 15.8465 10.966 16.6751 11.4369 17.3799C11.9078 18.0847 12.5772 18.634 13.3603 18.9584C14.1434 19.2827 15.0051 19.3676 15.8365 19.2022C16.6678 19.0369 17.4314 18.6287 18.0308 18.0293C18.6302 17.43 19.0384 16.6663 19.2037 15.835C19.3691 15.0036 19.2842 14.1419 18.9598 13.3588C18.6355 12.5757 18.0861 11.9064 17.3814 11.4354C16.6766 10.9645 15.848 10.7132 15.0004 10.7132C13.8637 10.7132 12.7736 11.1647 11.9699 11.9684C11.1662 12.7722 10.7146 13.8622 10.7146 14.9989V14.9989Z" stroke="#0E0E0E" stroke-width="1.5" stroke-linecap="round" stroke-linejoin="round"/>
</svg>
