<svg width="24" height="24" viewBox="0 0 24 24" fill="none" xmlns="http://www.w3.org/2000/svg">
<path d="M18.2404 2.64062H5.76037C5.47265 2.64853 5.19083 2.72402 4.93769 2.86102C4.68455 2.99801 4.46721 3.19265 4.30323 3.4292L1.18323 7.7492C0.95155 8.07658 0.83585 8.47196 0.854484 8.87259C0.873118 9.27323 1.02502 9.65616 1.28608 9.96063L10.6461 20.7435C10.8063 20.95 11.0117 21.1171 11.2464 21.232C11.4811 21.347 11.739 21.4067 12.0004 21.4067C12.2617 21.4067 12.5196 21.347 12.7544 21.232C12.9891 21.1171 13.1944 20.95 13.3547 20.7435L22.7147 9.96063C22.9757 9.65616 23.1276 9.27323 23.1463 8.87259C23.1649 8.47196 23.0492 8.07658 22.8175 7.7492L19.6975 3.4292C19.5335 3.19265 19.3162 2.99801 19.063 2.86102C18.8099 2.72402 18.5281 2.64853 18.2404 2.64062V2.64062Z" stroke="#0E0E0E" stroke-width="1.5" stroke-linecap="round" stroke-linejoin="round"/>
<path d="M11.1091 2.62305L6.92627 9.10305L12.0006 21.3602" stroke="#0E0E0E" stroke-width="1.5" stroke-linecap="round" stroke-linejoin="round"/>
<path d="M12.9433 2.62305L17.1091 9.10305L12.0005 21.3602" stroke="#0E0E0E" stroke-width="1.5" stroke-linecap="round" stroke-linejoin="round"/>
<path d="M0.891602 9.10352H23.1087" stroke="#0E0E0E" stroke-width="1.5" stroke-linecap="round" stroke-linejoin="round"/>
</svg>
