<svg width="20" height="20" viewBox="0 0 20 20" fill="none" xmlns="http://www.w3.org/2000/svg">
<path fill-rule="evenodd" clip-rule="evenodd" d="M3.70918 13.2012C4.151 13.2012 4.50918 13.5593 4.50918 14.0012V15.6012C4.50918 15.8133 4.59345 16.0168 4.74351 16.1669C4.89352 16.3169 5.097 16.4012 5.30918 16.4012H14.9092C15.1213 16.4012 15.3248 16.3169 15.4748 16.1669C15.6249 16.0168 15.7092 15.8133 15.7092 15.6012V14.0012C15.7092 13.5593 16.0673 13.2012 16.5092 13.2012C16.951 13.2012 17.3092 13.5593 17.3092 14.0012V15.6012C17.3092 16.2377 17.0564 16.8481 16.6062 17.2982C16.1561 17.7483 15.5456 18.0012 14.9092 18.0012H5.30918C4.67268 18.0012 4.0622 17.7484 3.61211 17.2982C3.16204 16.8481 2.90918 16.2377 2.90918 15.6012V14.0012C2.90918 13.5593 3.26735 13.2012 3.70918 13.2012Z" fill="#B9FB6A"/>
<path fill-rule="evenodd" clip-rule="evenodd" d="M5.54339 8.63471C5.85582 8.32228 6.36235 8.32228 6.67477 8.63471L10.1091 12.069L13.5434 8.63471C13.8558 8.32228 14.3623 8.32228 14.6747 8.63471C14.9872 8.94711 14.9872 9.45367 14.6747 9.76607L10.6747 13.7661C10.3623 14.0785 9.85579 14.0785 9.54339 13.7661L5.54339 9.76607C5.23098 9.45367 5.23098 8.94711 5.54339 8.63471Z" fill="#B9FB6A"/>
<path fill-rule="evenodd" clip-rule="evenodd" d="M10.1091 2.80078C10.5509 2.80078 10.9091 3.15896 10.9091 3.60078V13.2008C10.9091 13.6426 10.5509 14.0008 10.1091 14.0008C9.66724 14.0008 9.30908 13.6426 9.30908 13.2008V3.60078C9.30908 3.15896 9.66724 2.80078 10.1091 2.80078Z" fill="#B9FB6A"/>
</svg>
