<svg width="30" height="30" viewBox="0 0 30 30" fill="none" xmlns="http://www.w3.org/2000/svg">
<path d="M14.722 20.356C20.0476 20.356 24.3648 16.0388 24.3648 10.7132C24.3648 5.38757 20.0476 1.07031 14.722 1.07031C9.39636 1.07031 5.0791 5.38757 5.0791 10.7132C5.0791 16.0388 9.39636 20.356 14.722 20.356Z" stroke="#0E0E0E" stroke-width="1.5" stroke-linecap="round" stroke-linejoin="round"/>
<path d="M14.7213 14.9972C17.0882 14.9972 19.007 13.0784 19.007 10.7115C19.007 8.34456 17.0882 6.42578 14.7213 6.42578C12.3543 6.42578 10.4355 8.34456 10.4355 10.7115C10.4355 13.0784 12.3543 14.9972 14.7213 14.9972Z" stroke="#0E0E0E" stroke-width="1.5" stroke-linecap="round" stroke-linejoin="round"/>
<path d="M12.8573 20.1835L10.9716 28.1121C10.9342 28.2627 10.8652 28.4037 10.7692 28.5257C10.6731 28.6476 10.5522 28.7477 10.4144 28.8192C10.269 28.8823 10.1122 28.9149 9.9537 28.9149C9.79519 28.9149 9.63838 28.8823 9.49298 28.8192L2.3787 25.7121C2.22947 25.6415 2.09816 25.5381 1.99463 25.4095C1.8911 25.281 1.81803 25.1306 1.78092 24.9698C1.7438 24.8089 1.7436 24.6418 1.78033 24.4809C1.81706 24.3199 1.88976 24.1694 1.99298 24.0406L7.50012 17.1406" stroke="#0E0E0E" stroke-width="1.5" stroke-linecap="round" stroke-linejoin="round"/>
<path d="M17.1426 20.0772L19.0711 28.1129C19.1095 28.2662 19.1813 28.409 19.2813 28.5313C19.3813 28.6535 19.5071 28.7522 19.6497 28.8201C19.7911 28.884 19.9445 28.917 20.0997 28.917C20.2549 28.917 20.4083 28.884 20.5497 28.8201L27.6211 25.7129C27.7726 25.6432 27.9057 25.5391 28.0099 25.4089C28.1141 25.2787 28.1864 25.126 28.2211 24.9629C28.2618 24.8034 28.2635 24.6365 28.2262 24.4761C28.1889 24.3158 28.1137 24.1667 28.0069 24.0415L22.264 16.7344" stroke="#0E0E0E" stroke-width="1.5" stroke-linecap="round" stroke-linejoin="round"/>
</svg>
