<svg width="30" height="30" viewBox="0 0 30 30" fill="none" xmlns="http://www.w3.org/2000/svg">
<g clip-path="url(#clip0_330_18385)">
<path d="M3.21415 12.8555H5.357C5.64116 12.8555 5.91369 12.9684 6.11462 13.1693C6.31555 13.3702 6.42843 13.6427 6.42843 13.9269V19.284C6.42843 19.5682 6.31555 19.8407 6.11462 20.0417C5.91369 20.2426 5.64116 20.3555 5.357 20.3555H3.21415C2.64583 20.3555 2.10078 20.1297 1.69892 19.7278C1.29705 19.326 1.07129 18.7809 1.07129 18.2126V14.9983C1.07129 14.43 1.29705 13.885 1.69892 13.4831C2.10078 13.0812 2.64583 12.8555 3.21415 12.8555V12.8555Z" stroke="#0E0E0E" stroke-width="1.5" stroke-linecap="round" stroke-linejoin="round"/>
<path d="M26.7854 20.3555H24.6425C24.3583 20.3555 24.0858 20.2426 23.8849 20.0417C23.684 19.8407 23.5711 19.5682 23.5711 19.284V13.9269C23.5711 13.6427 23.684 13.3702 23.8849 13.1693C24.0858 12.9684 24.3583 12.8555 24.6425 12.8555H26.7854C27.3537 12.8555 27.8987 13.0812 28.3006 13.4831C28.7025 13.885 28.9282 14.43 28.9282 14.9983V18.2126C28.9282 18.7809 28.7025 19.326 28.3006 19.7278C27.8987 20.1297 27.3537 20.3555 26.7854 20.3555V20.3555Z" stroke="#0E0E0E" stroke-width="1.5" stroke-linecap="round" stroke-linejoin="round"/>
<path d="M20.3569 26.2483C21.4936 26.2483 22.5837 25.7968 23.3874 24.9931C24.1911 24.1893 24.6426 23.0993 24.6426 21.9626V20.3555" stroke="#0E0E0E" stroke-width="1.5" stroke-linecap="round" stroke-linejoin="round"/>
<path d="M17.6785 23.5703C18.3889 23.5703 19.0702 23.8525 19.5725 24.3548C20.0749 24.8572 20.3571 25.5385 20.3571 26.2489C20.3571 26.9593 20.0749 27.6406 19.5725 28.1429C19.0702 28.6452 18.3889 28.9275 17.6785 28.9275H14.4642C13.7538 28.9275 13.0725 28.6452 12.5702 28.1429C12.0679 27.6406 11.7856 26.9593 11.7856 26.2489C11.7856 25.5385 12.0679 24.8572 12.5702 24.3548C13.0725 23.8525 13.7538 23.5703 14.4642 23.5703H17.6785Z" stroke="#0E0E0E" stroke-width="1.5" stroke-linecap="round" stroke-linejoin="round"/>
<path d="M5.35693 12.856V10.7132C5.35693 8.15572 6.37287 5.70303 8.18126 3.89464C9.98965 2.08625 12.4423 1.07031 14.9998 1.07031C17.5572 1.07031 20.0099 2.08625 21.8183 3.89464C23.6267 5.70303 24.6426 8.15572 24.6426 10.7132V12.856" stroke="#0E0E0E" stroke-width="1.5" stroke-linecap="round" stroke-linejoin="round"/>
<path d="M11.7856 8.57031V11.7846" stroke="#0E0E0E" stroke-width="1.5" stroke-linecap="round" stroke-linejoin="round"/>
<path d="M18.2144 8.57031V11.7846" stroke="#0E0E0E" stroke-width="1.5" stroke-linecap="round" stroke-linejoin="round"/>
<path d="M11.7856 16.0703C11.7856 18.9203 18.2142 18.9203 18.2142 16.0703" stroke="#0E0E0E" stroke-width="1.5" stroke-linecap="round" stroke-linejoin="round"/>
</g>
<defs>
<clipPath id="clip0_330_18385">
<rect width="30" height="30" fill="white"/>
</clipPath>
</defs>
</svg>
