<svg width="30" height="30" viewBox="0 0 30 30" fill="none" xmlns="http://www.w3.org/2000/svg">
<path d="M15 21.4707V23.635" stroke="#0E0E0E" stroke-width="1.5" stroke-linecap="round" stroke-linejoin="round"/>
<path d="M15 10.7354V12.7496" stroke="#0E0E0E" stroke-width="1.5" stroke-linecap="round" stroke-linejoin="round"/>
<path d="M15.0002 28.9068C22.5002 28.9068 27.8574 26.2497 27.8574 20.3354C27.8574 13.9068 24.6431 9.62112 18.2145 6.40684L20.7431 3.14969C20.8715 2.93599 20.9412 2.69212 20.945 2.44281C20.9489 2.19349 20.8867 1.9476 20.7649 1.73004C20.6431 1.51249 20.4659 1.33101 20.2513 1.20401C20.0367 1.077 19.7924 1.00898 19.5431 1.00684H10.4574C10.208 1.00898 9.96368 1.077 9.74911 1.20401C9.53454 1.33101 9.35736 1.51249 9.23553 1.73004C9.1137 1.9476 9.05155 2.19349 9.05538 2.44281C9.05922 2.69212 9.12889 2.93599 9.25735 3.14969L11.7859 6.42826C5.35735 9.66398 2.14307 13.9497 2.14307 20.3783C2.14307 26.2497 7.50021 28.9068 15.0002 28.9068Z" stroke="#0E0E0E" stroke-width="1.5" stroke-linecap="round" stroke-linejoin="round"/>
<path d="M12.8573 20.4852C13.1188 20.7956 13.4479 21.0419 13.8193 21.2053C14.1908 21.3688 14.5947 21.445 15.0002 21.4281C15.6199 21.4703 16.2319 21.2706 16.7074 20.871C17.183 20.4714 17.4851 19.9029 17.5502 19.2852C17.4851 18.6675 17.183 18.099 16.7074 17.6994C16.2319 17.2998 15.6199 17.1001 15.0002 17.1423C14.3805 17.1846 13.7685 16.9849 13.2929 16.5853C12.8174 16.1857 12.5153 15.6172 12.4502 14.9995C12.5101 14.3796 12.8107 13.8079 13.2875 13.4072C13.7643 13.0065 14.3792 12.8089 15.0002 12.8566C15.3985 12.8323 15.7973 12.8965 16.1678 13.0447C16.5384 13.1929 16.8714 13.4214 17.1431 13.7138" stroke="#0E0E0E" stroke-width="1.5" stroke-linecap="round" stroke-linejoin="round"/>
</svg>
