<svg width="24" height="30" viewBox="0 0 24 30" fill="none" xmlns="http://www.w3.org/2000/svg">
<path d="M20.0455 15.9539C20.012 12.1639 23.0969 10.32 23.238 10.2342C21.4909 7.64359 18.7828 7.28964 17.8312 7.26141C15.5568 7.01799 13.3506 8.64549 12.192 8.64549C11.0103 8.64549 9.22612 7.28493 7.30322 7.32491C4.82876 7.36372 2.51388 8.82071 1.24428 11.0832C-1.37587 15.6964 0.578254 22.4757 3.08855 26.2046C4.34428 28.032 5.81161 30.0699 7.7322 29.9982C9.61117 29.9205 10.313 28.7811 12.5805 28.7811C14.8272 28.7811 15.4863 29.9982 17.445 29.9523C19.4616 29.9205 20.7312 28.1178 21.943 26.2751C23.3941 24.1832 23.9769 22.1206 24 22.0147C23.9537 21.9983 20.0848 20.4954 20.0455 15.9539ZM16.3454 4.80841C17.356 3.52311 18.0474 1.77449 17.8555 0C16.3928 0.0658525 14.5635 1.02895 13.5102 2.28602C12.5782 3.39376 11.7457 5.2094 11.9607 6.91686C13.6038 7.04151 15.2908 6.07372 16.3454 4.80841Z" fill="#0E0E0E"/>
</svg>
