<svg width="30" height="30" viewBox="0 0 30 30" fill="none" xmlns="http://www.w3.org/2000/svg">
<path fill-rule="evenodd" clip-rule="evenodd" d="M5.56426 19.8003C6.22699 19.8003 6.76426 20.3375 6.76426 21.0003V23.4003C6.76426 23.7185 6.89067 24.0237 7.11575 24.2488C7.34077 24.4738 7.64598 24.6003 7.96426 24.6003H22.3642C22.6825 24.6003 22.9876 24.4739 23.2128 24.2488C23.4379 24.0237 23.5642 23.7185 23.5642 23.4003V21.0003C23.5642 20.3375 24.1015 19.8003 24.7642 19.8003C25.427 19.8003 25.9642 20.3375 25.9642 21.0003V23.4003C25.9642 24.355 25.585 25.2707 24.9098 25.9459C24.2347 26.621 23.319 27.0003 22.3642 27.0003H7.96426C7.0095 27.0003 6.09379 26.6211 5.41865 25.9459C4.74355 25.2707 4.36426 24.355 4.36426 23.4003V21.0003C4.36426 20.3375 4.90151 19.8003 5.56426 19.8003Z" fill="#0E0E0E"/>
<path fill-rule="evenodd" clip-rule="evenodd" d="M8.31582 12.9516C8.78446 12.4829 9.54425 12.4829 10.0129 12.9516L15.1643 18.1031L20.3158 12.9516C20.7844 12.4829 21.5443 12.4829 22.0129 12.9516C22.4816 13.4202 22.4816 14.18 22.0129 14.6486L16.0129 20.6486C15.5443 21.1172 14.7844 21.1172 14.3158 20.6486L8.31582 14.6486C7.8472 14.18 7.8472 13.4202 8.31582 12.9516Z" fill="#0E0E0E"/>
<path fill-rule="evenodd" clip-rule="evenodd" d="M15.1644 4.2002C15.8271 4.2002 16.3644 4.73746 16.3644 5.4002V19.8002C16.3644 20.463 15.8271 21.0002 15.1644 21.0002C14.5016 21.0002 13.9644 20.463 13.9644 19.8002V5.4002C13.9644 4.73746 14.5016 4.2002 15.1644 4.2002Z" fill="#0E0E0E"/>
</svg>
