<svg width="130" height="22" viewBox="0 0 130 22" fill="none" xmlns="http://www.w3.org/2000/svg">
<path d="M10.5245 1.46352C10.6741 1.00287 11.3259 1.00287 11.4755 1.46353L13.3574 7.25532C13.4243 7.46133 13.6163 7.60081 13.8329 7.60081H19.9228C20.4071 7.60081 20.6085 8.22062 20.2167 8.50532L15.2899 12.0848C15.1146 12.2122 15.0413 12.4379 15.1082 12.6439L16.9901 18.4357C17.1398 18.8963 16.6125 19.2794 16.2207 18.9947L11.2939 15.4152C11.1186 15.2878 10.8814 15.2878 10.7061 15.4152L5.77931 18.9947C5.38745 19.2794 4.86021 18.8963 5.00989 18.4357L6.89176 12.6439C6.9587 12.4379 6.88537 12.2122 6.71012 12.0848L1.78333 8.50532C1.39147 8.22062 1.59286 7.60081 2.07722 7.60081H8.16708C8.38369 7.60081 8.57567 7.46133 8.6426 7.25532L10.5245 1.46352Z" fill="#FF9900"/>
<path d="M37.5245 1.46352C37.6741 1.00287 38.3259 1.00287 38.4755 1.46353L40.3574 7.25532C40.4243 7.46133 40.6163 7.60081 40.8329 7.60081H46.9228C47.4071 7.60081 47.6085 8.22062 47.2167 8.50532L42.2899 12.0848C42.1146 12.2122 42.0413 12.4379 42.1082 12.6439L43.9901 18.4357C44.1398 18.8963 43.6125 19.2794 43.2207 18.9947L38.2939 15.4152C38.1186 15.2878 37.8814 15.2878 37.7061 15.4152L32.7793 18.9947C32.3875 19.2794 31.8602 18.8963 32.0099 18.4357L33.8918 12.6439C33.9587 12.4379 33.8854 12.2122 33.7101 12.0848L28.7833 8.50532C28.3915 8.22062 28.5929 7.60081 29.0772 7.60081H35.1671C35.3837 7.60081 35.5757 7.46133 35.6426 7.25532L37.5245 1.46352Z" fill="#FF9900"/>
<path d="M64.5245 1.46352C64.6741 1.00287 65.3259 1.00287 65.4755 1.46353L67.3574 7.25532C67.4243 7.46133 67.6163 7.60081 67.8329 7.60081H73.9228C74.4071 7.60081 74.6085 8.22062 74.2167 8.50532L69.2899 12.0848C69.1146 12.2122 69.0413 12.4379 69.1082 12.6439L70.9901 18.4357C71.1398 18.8963 70.6125 19.2794 70.2207 18.9947L65.2939 15.4152C65.1186 15.2878 64.8814 15.2878 64.7061 15.4152L59.7793 18.9947C59.3875 19.2794 58.8602 18.8963 59.0099 18.4357L60.8918 12.6439C60.9587 12.4379 60.8854 12.2122 60.7101 12.0848L55.7833 8.50532C55.3915 8.22062 55.5929 7.60081 56.0772 7.60081H62.1671C62.3837 7.60081 62.5757 7.46133 62.6426 7.25532L64.5245 1.46352Z" fill="#FF9900"/>
<path d="M91.5245 1.46352C91.6741 1.00287 92.3259 1.00287 92.4755 1.46353L94.3574 7.25532C94.4243 7.46133 94.6163 7.60081 94.8329 7.60081H100.923C101.407 7.60081 101.609 8.22062 101.217 8.50532L96.2899 12.0848C96.1146 12.2122 96.0413 12.4379 96.1082 12.6439L97.9901 18.4357C98.1398 18.8963 97.6125 19.2794 97.2207 18.9947L92.2939 15.4152C92.1186 15.2878 91.8814 15.2878 91.7061 15.4152L86.7793 18.9947C86.3875 19.2794 85.8602 18.8963 86.0099 18.4357L87.8918 12.6439C87.9587 12.4379 87.8854 12.2122 87.7101 12.0848L82.7833 8.50532C82.3915 8.22062 82.5929 7.60081 83.0772 7.60081H89.1671C89.3837 7.60081 89.5757 7.46133 89.6426 7.25532L91.5245 1.46352Z" fill="#FF9900"/>
<path d="M118.524 1.46352C118.674 1.00287 119.326 1.00287 119.476 1.46353L121.357 7.25532C121.424 7.46133 121.616 7.60081 121.833 7.60081H127.923C128.407 7.60081 128.609 8.22062 128.217 8.50532L123.29 12.0848C123.115 12.2122 123.041 12.4379 123.108 12.6439L124.99 18.4357C125.14 18.8963 124.613 19.2794 124.221 18.9947L119.294 15.4152C119.119 15.2878 118.881 15.2878 118.706 15.4152L113.779 18.9947C113.387 19.2794 112.86 18.8963 113.01 18.4357L114.892 12.6439C114.959 12.4379 114.885 12.2122 114.71 12.0848L109.783 8.50532C109.391 8.22062 109.593 7.60081 110.077 7.60081H116.167C116.384 7.60081 116.576 7.46133 116.643 7.25532L118.524 1.46352Z" fill="#FF9900"/>
</svg>
