<svg width="100" height="100" viewBox="0 0 100 100" fill="none" xmlns="http://www.w3.org/2000/svg">
<g clip-path="url(#clip0_330_18332)">
<path d="M22.1621 60.4297L18.6812 73.4242L5.95879 73.6934C2.15664 66.6412 0 58.5727 0 49.9984C0 41.7072 2.01641 33.8885 5.59063 27.0039H5.59336L16.9199 29.0805L21.8816 40.3391C20.8432 43.3666 20.2771 46.6166 20.2771 49.9984C20.2775 53.6687 20.9424 57.1853 22.1621 60.4297Z" fill="#FBBB00"/>
<path d="M99.1268 40.6602C99.701 43.6848 100 46.8084 100 50.0008C100 53.5805 99.624 57.0723 98.907 60.4404C96.473 71.902 90.1131 81.9102 81.3027 88.9926L81.3 88.9898L67.0336 88.2619L65.0145 75.6574C70.8605 72.2289 75.4293 66.8635 77.8359 60.4404H51.0996V40.6602H78.226H99.1268Z" fill="#518EF8"/>
<path d="M81.2996 88.9873L81.3023 88.99C72.7338 95.8773 61.849 99.9982 50.0002 99.9982C30.959 99.9982 14.4041 89.3555 5.95898 73.6934L22.1623 60.4297C26.3848 71.6988 37.2557 79.7209 50.0002 79.7209C55.4781 79.7209 60.6102 78.24 65.0139 75.6549L81.2996 88.9873Z" fill="#28B446"/>
<path d="M81.915 11.5109L65.7172 24.7719C61.1596 21.923 55.7721 20.2773 50.0002 20.2773C36.9672 20.2773 25.893 28.6674 21.882 40.3406L5.59355 27.0055H5.59082C13.9123 10.9615 30.676 0 50.0002 0C62.132 0 73.2557 4.32148 81.915 11.5109Z" fill="#F14336"/>
</g>
<defs>
<clipPath id="clip0_330_18332">
<rect width="100" height="100" fill="white"/>
</clipPath>
</defs>
</svg>
