<svg width="139" height="98" viewBox="0 0 139 98" fill="none" xmlns="http://www.w3.org/2000/svg">
<g opacity="0.05">
<path d="M113.085 33.9968C116.125 26.325 120.93 18.7301 127.366 11.42C129.414 9.09405 129.674 5.77349 128.012 3.15822C126.733 1.14647 124.581 0.000450134 122.302 0.000450134C121.661 0.000450134 121.007 0.0908585 120.363 0.278488C106.724 4.26357 74.9087 18.4182 74.0543 63.6622C73.7243 81.1329 86.5023 96.1419 103.141 97.8327C112.312 98.7504 121.486 95.7712 128.286 89.6252C135.094 83.4724 139 74.6885 139 65.5226C139 50.231 128.146 36.8585 113.085 33.9968ZM122.079 82.7558C117.755 86.6641 112.312 88.7459 106.541 88.7459C105.725 88.7459 104.902 88.7052 104.077 88.6193C92.194 87.4146 83.0732 76.5285 83.3129 63.8386C83.9028 32.5321 100.854 18.4385 114.891 12.1343C110.449 18.1424 106.959 24.3223 104.477 30.5859C103.51 33.0249 103.67 35.7509 104.915 38.0655C106.22 40.4932 108.546 42.2156 111.292 42.792C121.984 45.0276 129.741 54.5891 129.741 65.5226C129.741 72.0732 126.948 78.3548 122.079 82.7558Z" fill="#89EA5F"/>
<path d="M54.0823 3.15778C52.8029 1.14602 50.651 0 48.3725 0C47.7306 0 47.0796 0.0904083 46.4331 0.278038C32.7938 4.26311 0.981026 18.4177 0.126595 63.6618C-0.198891 81.1324 12.5768 96.1415 29.2179 97.8322C38.3996 98.7658 47.5587 95.773 54.358 89.6247C61.1663 83.4719 65.0723 74.688 65.0723 65.5221C65.0723 50.2305 54.2178 36.858 39.1591 33.9964C42.2016 26.3178 47.0072 18.7228 53.4402 11.4173C55.4882 9.08906 55.746 5.77077 54.0823 3.15778ZM30.5516 30.5809C29.5842 33.0199 29.7424 35.7459 30.9856 38.0606C32.2921 40.4905 34.6158 42.2129 37.3644 42.7916C48.0561 45.0271 55.8138 54.5886 55.8138 65.5221C55.8138 72.075 53.0199 78.3544 48.1511 82.7554C43.8292 86.6636 38.3861 88.7455 32.6131 88.7455C31.7993 88.7455 30.9765 88.7048 30.1492 88.6189C18.2686 87.4141 9.14561 76.528 9.38522 63.8382C9.97291 32.5294 26.9259 18.4381 40.963 12.1338C36.5235 18.1374 33.038 24.3173 30.5516 30.5809Z" fill="#89EA5F"/>
</g>
</svg>
