<svg width="32" height="32" viewBox="0 0 32 32" fill="none" xmlns="http://www.w3.org/2000/svg">
<g clip-path="url(#clip0_415_29067)">
<path d="M20.0226 29.7142C21.4302 30.6223 23.1076 31.0181 24.7727 30.8349C26.4377 30.6517 27.9889 29.9009 29.1655 28.7085L30.1941 27.7028C30.645 27.2416 30.8975 26.6221 30.8975 25.9771C30.8975 25.332 30.645 24.7126 30.1941 24.2514L25.8284 19.9314C25.371 19.4819 24.7554 19.23 24.1141 19.23C23.4728 19.23 22.8572 19.4819 22.3998 19.9314V19.9314C21.9385 20.3823 21.3191 20.6348 20.6741 20.6348C20.029 20.6348 19.4096 20.3823 18.9484 19.9314L12.0912 13.0742C11.8625 12.8488 11.6808 12.5801 11.5568 12.2839C11.4328 11.9876 11.369 11.6697 11.369 11.3485C11.369 11.0274 11.4328 10.7094 11.5568 10.4131C11.6808 10.1169 11.8625 9.84823 12.0912 9.6228V9.6228C12.5407 9.16542 12.7926 8.5498 12.7926 7.90851C12.7926 7.26723 12.5407 6.65161 12.0912 6.19423L7.74836 1.85137C7.28712 1.40043 6.66769 1.14795 6.02264 1.14795C5.3776 1.14795 4.75817 1.40043 4.29693 1.85137L3.29121 2.87994C2.09886 4.0565 1.34798 5.60772 1.16482 7.27278C0.981666 8.93784 1.37741 10.6152 2.2855 12.0228C7.01703 18.9959 13.0374 25.0007 20.0226 29.7142V29.7142Z" stroke="#0D0D0D" stroke-width="2" stroke-linecap="round" stroke-linejoin="round"/>
</g>
<defs>
<clipPath id="clip0_415_29067">
<rect width="32" height="32" fill="white"/>
</clipPath>
</defs>
</svg>
