<svg width="40" height="40" viewBox="0 0 40 40" fill="none" xmlns="http://www.w3.org/2000/svg">
<g clip-path="url(#clip0_125_77720)">
<path d="M4.28585 17.1431H7.143C7.52188 17.1431 7.88524 17.2936 8.15315 17.5615C8.42106 17.8294 8.57157 18.1928 8.57157 18.5716V25.7145C8.57157 26.0934 8.42106 26.4567 8.15315 26.7246C7.88524 26.9926 7.52188 27.1431 7.143 27.1431H4.28585C3.52809 27.1431 2.80137 26.842 2.26555 26.3062C1.72973 25.7704 1.42871 25.0437 1.42871 24.2859V20.0002C1.42871 19.2424 1.72973 18.5157 2.26555 17.9799C2.80137 17.4441 3.52809 17.1431 4.28585 17.1431V17.1431Z" stroke="#0E0E0E" stroke-width="1.5" stroke-linecap="round" stroke-linejoin="round"/>
<path d="M35.7146 27.1431H32.8575C32.4786 27.1431 32.1152 26.9926 31.8473 26.7246C31.5794 26.4567 31.4289 26.0934 31.4289 25.7145V18.5716C31.4289 18.1928 31.5794 17.8294 31.8473 17.5615C32.1152 17.2936 32.4786 17.1431 32.8575 17.1431H35.7146C36.4724 17.1431 37.1991 17.4441 37.7349 17.9799C38.2708 18.5157 38.5718 19.2424 38.5718 20.0002V24.2859C38.5718 25.0437 38.2708 25.7704 37.7349 26.3062C37.1991 26.842 36.4724 27.1431 35.7146 27.1431V27.1431Z" stroke="#0E0E0E" stroke-width="1.5" stroke-linecap="round" stroke-linejoin="round"/>
<path d="M27.1431 35.0002C28.6586 35.0002 30.112 34.3982 31.1837 33.3265C32.2553 32.2549 32.8574 30.8014 32.8574 29.2859V27.1431" stroke="#0E0E0E" stroke-width="1.5" stroke-linecap="round" stroke-linejoin="round"/>
<path d="M23.5715 31.4287C24.5187 31.4287 25.4271 31.805 26.0969 32.4748C26.7667 33.1445 27.1429 34.0529 27.1429 35.0001C27.1429 35.9473 26.7667 36.8557 26.0969 37.5255C25.4271 38.1953 24.5187 38.5716 23.5715 38.5716H19.2858C18.3386 38.5716 17.4302 38.1953 16.7604 37.5255C16.0906 36.8557 15.7144 35.9473 15.7144 35.0001C15.7144 34.0529 16.0906 33.1445 16.7604 32.4748C17.4302 31.805 18.3386 31.4287 19.2858 31.4287H23.5715Z" stroke="#0E0E0E" stroke-width="1.5" stroke-linecap="round" stroke-linejoin="round"/>
<path d="M7.14307 17.143V14.2859C7.14307 10.8759 8.49765 7.60566 10.9088 5.19448C13.32 2.7833 16.5903 1.42871 20.0002 1.42871C23.4101 1.42871 26.6804 2.7833 29.0916 5.19448C31.5028 7.60566 32.8574 10.8759 32.8574 14.2859V17.143" stroke="#0E0E0E" stroke-width="1.5" stroke-linecap="round" stroke-linejoin="round"/>
<path d="M15.7144 11.4287V15.7144" stroke="#0E0E0E" stroke-width="1.5" stroke-linecap="round" stroke-linejoin="round"/>
<path d="M24.2856 11.4287V15.7144" stroke="#0E0E0E" stroke-width="1.5" stroke-linecap="round" stroke-linejoin="round"/>
<path d="M15.7144 21.4287C15.7144 25.2287 24.2858 25.2287 24.2858 21.4287" stroke="#0E0E0E" stroke-width="1.5" stroke-linecap="round" stroke-linejoin="round"/>
</g>
<defs>
<clipPath id="clip0_125_77720">
<rect width="40" height="40" fill="white"/>
</clipPath>
</defs>
</svg>
