<svg width="24" height="24" viewBox="0 0 24 24" fill="none" xmlns="http://www.w3.org/2000/svg">
<g clip-path="url(#clip0_410_40)">
<path d="M7.71408 22.2866C11.5012 22.2866 14.5712 19.2165 14.5712 15.4294C14.5712 11.6423 11.5012 8.57227 7.71408 8.57227C3.92698 8.57227 0.856934 11.6423 0.856934 15.4294C0.856934 19.2165 3.92698 22.2866 7.71408 22.2866Z" stroke="#0E0E0E" stroke-width="1.5" stroke-linecap="round" stroke-linejoin="round"/>
<path d="M16.2854 22.2866C20.0725 22.2866 23.1425 19.2165 23.1425 15.4294C23.1425 11.6423 20.0725 8.57227 16.2854 8.57227C12.4983 8.57227 9.42822 11.6423 9.42822 15.4294C9.42822 19.2165 12.4983 22.2866 16.2854 22.2866Z" stroke="#0E0E0E" stroke-width="1.5" stroke-linecap="round" stroke-linejoin="round"/>
<path d="M11.9997 15.4291C15.7868 15.4291 18.8569 12.3591 18.8569 8.57199C18.8569 4.78489 15.7868 1.71484 11.9997 1.71484C8.21263 1.71484 5.14258 4.78489 5.14258 8.57199C5.14258 12.3591 8.21263 15.4291 11.9997 15.4291Z" stroke="#0E0E0E" stroke-width="1.5" stroke-linecap="round" stroke-linejoin="round"/>
</g>
<defs>
<clipPath id="clip0_410_40">
<rect width="24" height="24" fill="white"/>
</clipPath>
</defs>
</svg>
