<svg width="30" height="30" viewBox="0 0 30 30" fill="none" xmlns="http://www.w3.org/2000/svg">
<path d="M15.9375 13.5938L19.875 9.375L4.59375 1.125C4.5 1.03125 4.3125 1.03125 4.03125 0.9375L15.9375 13.5938Z" fill="#0E0E0E"/>
<path d="M21.5625 19.6875L27.0938 16.6875C27.75 16.3125 28.125 15.75 28.125 15C28.125 14.25 27.75 13.5937 27.0938 13.3125L21.5625 10.3125L17.1562 15L21.5625 19.6875Z" fill="#0E0E0E"/>
<path d="M2.25 1.78076C1.96875 2.06201 1.875 2.43701 1.875 2.81201V27.187C1.875 27.562 1.96875 27.937 2.25 28.312L14.625 14.9995L2.25 1.78076Z" fill="#0E0E0E"/>
<path d="M15.9375 16.4062L4.03125 29.0625C4.21875 29.0625 4.40625 28.9687 4.59375 28.875L19.875 20.625L15.9375 16.4062Z" fill="#0E0E0E"/>
</svg>
