<svg width="30" height="30" viewBox="0 0 30 30" fill="none" xmlns="http://www.w3.org/2000/svg">
<g clip-path="url(#clip0_410_46)">
<path d="M18.8787 25.8651C17.9107 26.8332 16.7615 27.601 15.4967 28.1249C14.2319 28.6488 12.8763 28.9185 11.5073 28.9185C8.74247 28.9185 6.09089 27.8201 4.13586 25.8651C2.18084 23.9101 1.08252 21.2585 1.08252 18.4937C1.08252 15.7289 2.18084 13.0773 4.13586 11.1223L14.1859 1.07227L18.8787 5.76512L9.66444 15.0008C9.07214 15.7291 8.77093 16.6511 8.81905 17.5885C8.86718 18.526 9.26122 19.4123 9.92497 20.076C10.5887 20.7398 11.475 21.1338 12.4125 21.1819C13.3499 21.2301 14.2719 20.9288 15.0002 20.3366L24.2144 11.1223L28.9287 15.8151L18.8787 25.8651Z" stroke="#0E0E0E" stroke-width="1.5" stroke-linecap="round" stroke-linejoin="round"/>
<path d="M19.6929 15.666L24.3857 20.3589" stroke="#0E0E0E" stroke-width="1.5" stroke-linecap="round" stroke-linejoin="round"/>
<path d="M9.64307 5.61523L14.3359 10.3081" stroke="#0E0E0E" stroke-width="1.5" stroke-linecap="round" stroke-linejoin="round"/>
</g>
<defs>
<clipPath id="clip0_410_46">
<rect width="30" height="30" fill="white"/>
</clipPath>
</defs>
</svg>
