<svg width="30" height="30" viewBox="0 0 30 30" fill="none" xmlns="http://www.w3.org/2000/svg">
<path d="M16.0068 14.7859C15.689 14.9239 15.3462 14.9951 14.9997 14.9951C14.6532 14.9951 14.3104 14.9239 13.9925 14.7859L1.77824 9.12875C1.5799 9.02871 1.41323 8.87558 1.29677 8.68641C1.18031 8.49724 1.11865 8.27946 1.11865 8.05732C1.11865 7.83518 1.18031 7.6174 1.29677 7.42823C1.41323 7.23906 1.5799 7.08593 1.77824 6.98589L13.9925 1.28589C14.3104 1.14788 14.6532 1.07666 14.9997 1.07666C15.3462 1.07666 15.689 1.14788 16.0068 1.28589L28.2211 6.94303C28.4194 7.04307 28.5861 7.1962 28.7026 7.38537C28.819 7.57454 28.8807 7.79232 28.8807 8.01446C28.8807 8.2366 28.819 8.45439 28.7026 8.64355C28.5861 8.83272 28.4194 8.98585 28.2211 9.08589L16.0068 14.7859Z" stroke="#0E0E0E" stroke-width="1.5" stroke-linecap="round" stroke-linejoin="round"/>
<path d="M28.9284 15.75L15.857 21.7714C15.5778 21.8988 15.2746 21.9647 14.9677 21.9647C14.6609 21.9647 14.3576 21.8988 14.0784 21.7714L1.07129 15.75" stroke="#0E0E0E" stroke-width="1.5" stroke-linecap="round" stroke-linejoin="round"/>
<path d="M28.9284 22.7144L15.857 28.7358C15.5778 28.8631 15.2746 28.929 14.9677 28.929C14.6609 28.929 14.3576 28.8631 14.0784 28.7358L1.07129 22.7144" stroke="#0E0E0E" stroke-width="1.5" stroke-linecap="round" stroke-linejoin="round"/>
</svg>
