<svg width="24" height="24" viewBox="0 0 24 24" fill="none" xmlns="http://www.w3.org/2000/svg">
<g clip-path="url(#clip0_410_17)">
<path d="M12.8055 11.8287C12.5513 11.9391 12.277 11.9961 11.9998 11.9961C11.7226 11.9961 11.4484 11.9391 11.1941 11.8287L1.42269 7.303C1.26402 7.22297 1.13068 7.10046 1.03751 6.94913C0.944349 6.79779 0.89502 6.62357 0.89502 6.44586C0.89502 6.26814 0.944349 6.09392 1.03751 5.94258C1.13068 5.79125 1.26402 5.66874 1.42269 5.58871L11.1941 1.02871C11.4484 0.918302 11.7226 0.861328 11.9998 0.861328C12.277 0.861328 12.5513 0.918302 12.8055 1.02871L22.577 5.55443C22.7357 5.63446 22.869 5.75696 22.9622 5.9083C23.0553 6.05963 23.1047 6.23386 23.1047 6.41157C23.1047 6.58928 23.0553 6.76351 22.9622 6.91484C22.869 7.06618 22.7357 7.18868 22.577 7.26871L12.8055 11.8287Z" stroke="#0E0E0E" stroke-width="1.5" stroke-linecap="round" stroke-linejoin="round"/>
<path d="M23.1426 12.5996L12.6855 17.4168C12.4622 17.5186 12.2196 17.5713 11.9741 17.5713C11.7286 17.5713 11.486 17.5186 11.2626 17.4168L0.856934 12.5996" stroke="#0E0E0E" stroke-width="1.5" stroke-linecap="round" stroke-linejoin="round"/>
<path d="M23.1426 18.1719L12.6855 22.989C12.4622 23.0909 12.2196 23.1436 11.9741 23.1436C11.7286 23.1436 11.486 23.0909 11.2626 22.989L0.856934 18.1719" stroke="#0E0E0E" stroke-width="1.5" stroke-linecap="round" stroke-linejoin="round"/>
</g>
<defs>
<clipPath id="clip0_410_17">
<rect width="24" height="24" fill="white"/>
</clipPath>
</defs>
</svg>
