<svg width="30" height="30" viewBox="0 0 30 30" fill="none" xmlns="http://www.w3.org/2000/svg">
<path d="M22.8002 3.30029H7.20022C6.84057 3.31017 6.48829 3.40454 6.17187 3.57578C5.85545 3.74702 5.58376 3.99032 5.37879 4.28601L1.47879 9.68601C1.18919 10.0952 1.04457 10.5895 1.06786 11.0903C1.09115 11.591 1.28103 12.0697 1.60736 12.4503L13.3074 25.9289C13.5077 26.187 13.7643 26.3958 14.0577 26.5395C14.3511 26.6832 14.6735 26.7579 15.0002 26.7579C15.3269 26.7579 15.6493 26.6832 15.9427 26.5395C16.2361 26.3958 16.4928 26.187 16.6931 25.9289L28.3931 12.4503C28.7194 12.0697 28.9093 11.591 28.9326 11.0903C28.9559 10.5895 28.8112 10.0952 28.5216 9.68601L24.6216 4.28601C24.4167 3.99032 24.145 3.74702 23.8286 3.57578C23.5121 3.40454 23.1599 3.31017 22.8002 3.30029V3.30029Z" stroke="#0E0E0E" stroke-width="1.5" stroke-linecap="round" stroke-linejoin="round"/>
<path d="M13.8858 3.27881L8.65723 11.3788L15.0001 26.7002" stroke="#0E0E0E" stroke-width="1.5" stroke-linecap="round" stroke-linejoin="round"/>
<path d="M16.1786 3.27881L21.3857 11.3788L15 26.7002" stroke="#0E0E0E" stroke-width="1.5" stroke-linecap="round" stroke-linejoin="round"/>
<path d="M1.11426 11.3789H28.8857" stroke="#0E0E0E" stroke-width="1.5" stroke-linecap="round" stroke-linejoin="round"/>
</svg>
