<svg width="30" height="30" viewBox="0 0 30 30" fill="none" xmlns="http://www.w3.org/2000/svg">
<g clip-path="url(#clip0_339_356)">
<path d="M23.8477 0H6.15234C2.75994 0 0 2.75994 0 6.15234V23.8477C0 27.2401 2.75994 30 6.15234 30H23.8477C27.2401 30 30 27.2401 30 23.8477V6.15234C30 2.75994 27.2401 0 23.8477 0ZM28.2422 23.8477C28.2422 26.2708 26.2708 28.2422 23.8477 28.2422H6.15234C3.7292 28.2422 1.75781 26.2708 1.75781 23.8477V6.15234C1.75781 3.7292 3.7292 1.75781 6.15234 1.75781H23.8477C26.2708 1.75781 28.2422 3.7292 28.2422 6.15234V23.8477Z" fill="#0E0E0E"/>
<path d="M17.9089 7.23825C17.8076 6.86032 17.5653 6.54439 17.2264 6.3488C16.5271 5.94497 15.6294 6.18538 15.2255 6.88499L15 7.27546L14.7745 6.88493C14.3706 6.1855 13.473 5.94497 12.7736 6.34874C12.0741 6.75263 11.8335 7.65023 12.2374 8.34978L13.3085 10.2051L9.35613 17.0509H6.47461C5.66689 17.0509 5.00977 17.708 5.00977 18.5157C5.00977 19.3234 5.66689 19.9806 6.47461 19.9806H17.5992L15.9077 17.0509H12.739L17.7626 8.34984C17.9582 8.01099 18.0103 7.61618 17.9089 7.23825Z" fill="#0E0E0E"/>
<path d="M23.5255 17.0508H20.644L17.3682 11.377L15.6768 14.3066L20.7629 23.1161C20.9586 23.455 21.2744 23.6974 21.6524 23.7987C21.7787 23.8325 21.9067 23.8493 22.0339 23.8493C22.2878 23.8493 22.5383 23.7827 22.7641 23.6523C23.4636 23.2485 23.704 22.3508 23.3002 21.6514L22.3354 19.9805H23.5255C24.3332 19.9805 24.9904 19.3234 24.9904 18.5157C24.9904 17.7079 24.3332 17.0508 23.5255 17.0508Z" fill="#0E0E0E"/>
<path d="M6.98796 21.1523L6.69985 21.6513C6.29602 22.3508 6.53655 23.2485 7.23604 23.6523C7.46614 23.7851 7.71762 23.8483 7.966 23.8482C8.4726 23.8482 8.96602 23.5855 9.23708 23.1161L10.3709 21.1523H6.98796Z" fill="#0E0E0E"/>
</g>
<defs>
<clipPath id="clip0_339_356">
<rect width="30" height="30" fill="white"/>
</clipPath>
</defs>
</svg>
