<svg width="30" height="30" viewBox="0 0 30 30" fill="none" xmlns="http://www.w3.org/2000/svg">
<path d="M11.207 4.82129L12.1284 2.44272C12.2838 2.04 12.5572 1.6936 12.9128 1.44889C13.2684 1.20418 13.6896 1.07256 14.1213 1.07129H15.8784C16.3101 1.07256 16.7313 1.20418 17.0869 1.44889C17.4425 1.6936 17.7159 2.04 17.8713 2.44272L18.7927 4.82129L21.9213 6.62129L24.4499 6.23557C24.8709 6.17843 25.2994 6.24773 25.681 6.4347C26.0625 6.62166 26.3799 6.91783 26.5927 7.28557L27.4499 8.78557C27.6695 9.15918 27.7707 9.5906 27.7401 10.0229C27.7095 10.4552 27.5485 10.8681 27.2784 11.207L25.7142 13.1999V16.7999L27.3213 18.7927C27.5914 19.1317 27.7523 19.5445 27.783 19.9768C27.8136 20.4091 27.7124 20.8405 27.4927 21.2141L26.6356 22.7141C26.4227 23.0819 26.1054 23.3781 25.7238 23.565C25.3423 23.752 24.9138 23.8213 24.4927 23.7641L21.9642 23.3784L18.8356 25.1784L17.9141 27.557C17.7588 27.9597 17.4854 28.3061 17.1298 28.5508C16.7742 28.7955 16.353 28.9272 15.9213 28.9284H14.1213C13.6896 28.9272 13.2684 28.7955 12.9128 28.5508C12.5572 28.3061 12.2838 27.9597 12.1284 27.557L11.207 25.1784L8.07844 23.3784L5.54986 23.7641C5.12883 23.8213 4.70031 23.752 4.31875 23.565C3.9372 23.3781 3.61984 23.0819 3.40701 22.7141L2.54986 21.2141C2.33022 20.8405 2.22903 20.4091 2.25963 19.9768C2.29024 19.5445 2.45121 19.1317 2.72129 18.7927L4.28558 16.7999V13.1999L2.67843 11.207C2.40835 10.8681 2.24738 10.4552 2.21678 10.0229C2.18617 9.5906 2.28737 9.15918 2.50701 8.78557L3.36415 7.28557C3.57699 6.91783 3.89434 6.62166 4.2759 6.4347C4.65745 6.24773 5.08597 6.17843 5.50701 6.23557L8.03558 6.62129L11.207 4.82129ZM10.7141 14.9999C10.7141 15.8475 10.9655 16.6761 11.4364 17.3809C11.9073 18.0857 12.5767 18.635 13.3598 18.9593C14.1429 19.2837 15.0046 19.3686 15.836 19.2032C16.6673 19.0379 17.431 18.6297 18.0303 18.0303C18.6297 17.4309 19.0379 16.6673 19.2032 15.836C19.3686 15.0046 19.2837 14.1429 18.9593 13.3598C18.635 12.5767 18.0857 11.9073 17.3809 11.4364C16.6761 10.9655 15.8475 10.7141 14.9999 10.7141C13.8632 10.7141 12.7731 11.1657 11.9694 11.9694C11.1657 12.7731 10.7141 13.8632 10.7141 14.9999V14.9999Z" stroke="#0E0E0E" stroke-width="1.5" stroke-linecap="round" stroke-linejoin="round"/>
</svg>
