<svg width="24" height="24" viewBox="0 0 24 24" fill="none" xmlns="http://www.w3.org/2000/svg">
<g clip-path="url(#clip0_410_23)">
<path d="M5.57122 10.286C8.17485 10.286 10.2855 8.17534 10.2855 5.57171C10.2855 2.96808 8.17485 0.857422 5.57122 0.857422C2.96759 0.857422 0.856934 2.96808 0.856934 5.57171C0.856934 8.17534 2.96759 10.286 5.57122 10.286Z" stroke="#0E0E0E" stroke-width="1.5" stroke-linecap="round" stroke-linejoin="round"/>
<path d="M18.4282 10.286C21.0318 10.286 23.1424 8.17534 23.1424 5.57171C23.1424 2.96808 21.0318 0.857422 18.4282 0.857422C15.8245 0.857422 13.7139 2.96808 13.7139 5.57171C13.7139 8.17534 15.8245 10.286 18.4282 10.286Z" stroke="#0E0E0E" stroke-width="1.5" stroke-linecap="round" stroke-linejoin="round"/>
<path d="M5.57122 23.1434C8.17485 23.1434 10.2855 21.0328 10.2855 18.4291C10.2855 15.8255 8.17485 13.7148 5.57122 13.7148C2.96759 13.7148 0.856934 15.8255 0.856934 18.4291C0.856934 21.0328 2.96759 23.1434 5.57122 23.1434Z" stroke="#0E0E0E" stroke-width="1.5" stroke-linecap="round" stroke-linejoin="round"/>
<path d="M18.4282 23.1434C21.0318 23.1434 23.1424 21.0328 23.1424 18.4291C23.1424 15.8255 21.0318 13.7148 18.4282 13.7148C15.8245 13.7148 13.7139 15.8255 13.7139 18.4291C13.7139 21.0328 15.8245 23.1434 18.4282 23.1434Z" stroke="#0E0E0E" stroke-width="1.5" stroke-linecap="round" stroke-linejoin="round"/>
</g>
<defs>
<clipPath id="clip0_410_23">
<rect width="24" height="24" fill="white"/>
</clipPath>
</defs>
</svg>
