<svg width="30" height="30" viewBox="0 0 30 30" fill="none" xmlns="http://www.w3.org/2000/svg">
<g clip-path="url(#clip0_411_8)">
<path d="M6.96512 12.857C10.2197 12.857 12.858 10.2187 12.858 6.96415C12.858 3.70961 10.2197 1.07129 6.96512 1.07129C3.71059 1.07129 1.07227 3.70961 1.07227 6.96415C1.07227 10.2187 3.71059 12.857 6.96512 12.857Z" stroke="#0E0E0E" stroke-width="1.5" stroke-linecap="round" stroke-linejoin="round"/>
<path d="M23.0374 12.857C26.2919 12.857 28.9302 10.2187 28.9302 6.96415C28.9302 3.70961 26.2919 1.07129 23.0374 1.07129C19.7829 1.07129 17.1445 3.70961 17.1445 6.96415C17.1445 10.2187 19.7829 12.857 23.0374 12.857Z" stroke="#0E0E0E" stroke-width="1.5" stroke-linecap="round" stroke-linejoin="round"/>
<path d="M6.96512 28.9283C10.2197 28.9283 12.858 26.29 12.858 23.0354C12.858 19.7809 10.2197 17.1426 6.96512 17.1426C3.71059 17.1426 1.07227 19.7809 1.07227 23.0354C1.07227 26.29 3.71059 28.9283 6.96512 28.9283Z" stroke="#0E0E0E" stroke-width="1.5" stroke-linecap="round" stroke-linejoin="round"/>
<path d="M23.0374 28.9283C26.2919 28.9283 28.9302 26.29 28.9302 23.0354C28.9302 19.7809 26.2919 17.1426 23.0374 17.1426C19.7829 17.1426 17.1445 19.7809 17.1445 23.0354C17.1445 26.29 19.7829 28.9283 23.0374 28.9283Z" stroke="#0E0E0E" stroke-width="1.5" stroke-linecap="round" stroke-linejoin="round"/>
</g>
<defs>
<clipPath id="clip0_411_8">
<rect width="30" height="30" fill="white"/>
</clipPath>
</defs>
</svg>
