<svg width="180" height="60" viewBox="0 0 180 60" fill="none" xmlns="http://www.w3.org/2000/svg">
<g clip-path="url(#clip0_178_81)">
<path d="M171 0.75H9C4.44365 0.75 0.75 4.44365 0.75 9V51C0.75 55.5564 4.44365 59.25 9 59.25H171C175.556 59.25 179.25 55.5564 179.25 51V9C179.25 4.44365 175.556 0.75 171 0.75Z" fill="#0E0E0E"/>
<path d="M171 0.75H9C4.44365 0.75 0.75 4.44365 0.75 9V51C0.75 55.5564 4.44365 59.25 9 59.25H171C175.556 59.25 179.25 55.5564 179.25 51V9C179.25 4.44365 175.556 0.75 171 0.75Z" stroke="white" stroke-opacity="0.14"/>
<path d="M26.7071 29.1924L12.1343 45.0087C12.1356 45.0115 12.1356 45.0157 12.137 45.0186C12.5846 46.7359 14.1176 47.9998 15.938 47.9998C16.6661 47.9998 17.3492 47.7982 17.9349 47.4456L17.9814 47.4175L34.3842 37.7388L26.7071 29.1924Z" fill="#EA4335"/>
<path d="M41.4498 26.4995L41.4361 26.4897L34.3543 22.292L26.376 29.5521L34.383 37.7375L41.4265 33.5819C42.661 32.8988 43.5001 31.5677 43.5001 30.0336C43.5001 28.508 42.6735 27.1839 41.4498 26.4995Z" fill="#FBBC04"/>
<path d="M12.1341 14.9897C12.0465 15.32 12 15.6671 12 16.0255V43.9742C12 44.3326 12.0465 44.6797 12.1355 45.0086L27.2079 29.5967L12.1341 14.9897Z" fill="#4285F4"/>
<path d="M26.8148 29.9999L34.3565 22.2891L17.9727 12.5753C17.3774 12.2099 16.682 12 15.9389 12C14.1185 12 12.5827 13.2667 12.1352 14.9855L12.1338 14.9897L26.8148 29.9999Z" fill="#34A853"/>
<path d="M65.4152 17.565C65.4152 19.065 64.9701 20.2601 64.0802 21.15C63.0801 22.2101 61.7652 22.74 60.1352 22.74C58.5752 22.74 57.2552 22.2 56.1752 21.12C55.0952 20.04 54.5552 18.71 54.5552 17.13C54.5552 15.5501 55.0952 14.22 56.1752 13.14C57.2552 12.06 58.5752 11.52 60.1352 11.52C60.9252 11.52 61.6701 11.66 62.3702 11.94C63.0702 12.22 63.6452 12.615 64.0952 13.125L63.1052 14.115C62.7752 13.715 62.3451 13.405 61.8152 13.185C61.2951 12.955 60.7352 12.84 60.1352 12.84C58.9652 12.84 57.9752 13.245 57.1652 14.055C56.3652 14.875 55.9652 15.9 55.9652 17.13C55.9652 18.36 56.3652 19.385 57.1652 20.205C57.9752 21.015 58.9652 21.42 60.1352 21.42C61.2051 21.42 62.0952 21.12 62.8052 20.52C63.5151 19.92 63.9252 19.095 64.0352 18.045H60.1352V16.755H65.3402C65.3901 17.0351 65.4152 17.3051 65.4152 17.565ZM73.3619 11.76V13.08H68.4719V16.485H72.8819V17.775H68.4719V21.18H73.3619V22.5H67.0919V11.76H73.3619ZM78.8817 13.08V22.5H77.5017V13.08H74.5017V11.76H81.8817V13.08H78.8817ZM87.9983 22.5H86.6183V11.76H87.9983V22.5ZM93.8232 13.08V22.5H92.4432V13.08H89.4432V11.76H96.8232V13.08H93.8232ZM111.782 17.13C111.782 18.72 111.252 20.0501 110.192 21.12C109.122 22.2 107.812 22.74 106.262 22.74C104.702 22.74 103.392 22.2 102.332 21.12C101.272 20.0501 100.742 18.72 100.742 17.13C100.742 15.54 101.272 14.21 102.332 13.14C103.392 12.06 104.702 11.52 106.262 11.52C107.822 11.52 109.132 12.065 110.192 13.155C111.252 14.225 111.782 15.5501 111.782 17.13ZM102.152 17.13C102.152 18.3701 102.542 19.395 103.322 20.205C104.112 21.015 105.092 21.42 106.262 21.42C107.432 21.42 108.407 21.015 109.187 20.205C109.977 19.4051 110.372 18.38 110.372 17.13C110.372 15.8801 109.977 14.855 109.187 14.055C108.407 13.245 107.432 12.84 106.262 12.84C105.092 12.84 104.112 13.245 103.322 14.055C102.542 14.865 102.152 15.89 102.152 17.13ZM114.79 22.5H113.41V11.76H115.09L120.31 20.115H120.37L120.31 18.045V11.76H121.69V22.5H120.25L114.79 13.74H114.73L114.79 15.81V22.5Z" fill="white"/>
<path d="M140.277 47.1146H142.72V30.5971H140.277V47.1146ZM162.284 36.5469L159.483 43.7082H159.399L156.492 36.5469H153.859L158.218 46.5556L155.734 52.1235H158.282L165 36.5469H162.284ZM148.428 45.2382C147.626 45.2382 146.511 44.8353 146.511 43.8351C146.511 42.5613 147.9 42.0724 149.101 42.0724C150.174 42.0724 150.681 42.3063 151.333 42.6248C151.143 44.1547 149.838 45.2382 148.428 45.2382ZM148.722 36.1861C146.953 36.1861 145.12 36.9723 144.364 38.7152L146.532 39.6282C146.995 38.7152 147.858 38.4165 148.764 38.4165C150.029 38.4165 151.312 39.1815 151.333 40.5424V40.7116C150.891 40.4565 149.944 40.0747 148.785 40.0747C146.448 40.0747 144.068 41.3709 144.068 43.7928C144.068 46.0033 145.984 47.4276 148.132 47.4276C149.775 47.4276 150.681 46.6838 151.249 45.8116H151.333V47.0868H153.691V40.7538C153.691 37.8219 151.522 36.1861 148.722 36.1861ZM133.623 38.5579H130.148V32.8962H133.623C135.45 32.8962 136.487 34.4223 136.487 35.7264C136.487 37.0067 135.45 38.5579 133.623 38.5579ZM133.56 30.5971H127.706V47.1146H130.148V40.8568H133.56C136.268 40.8568 138.93 38.8776 138.93 35.7264C138.93 32.5752 136.268 30.5971 133.56 30.5971ZM101.637 45.2409C99.9498 45.2409 98.5369 43.8153 98.5369 41.857C98.5369 39.8778 99.9498 38.4297 101.637 38.4297C103.304 38.4297 104.611 39.8778 104.611 41.857C104.611 43.8153 103.304 45.2409 101.637 45.2409ZM104.443 37.4718H104.358C103.81 36.8125 102.756 36.2166 101.427 36.2166C98.6416 36.2166 96.0898 38.6847 96.0898 41.857C96.0898 45.007 98.6416 47.4553 101.427 47.4553C102.756 47.4553 103.81 46.8594 104.358 46.1777H104.443V46.9876C104.443 49.1373 103.304 50.2869 101.469 50.2869C99.9706 50.2869 99.0423 49.2008 98.6627 48.2852L96.5323 49.1796C97.1439 50.67 98.7687 52.5 101.469 52.5C104.337 52.5 106.764 50.7969 106.764 46.6467V36.5562H104.443V37.4718ZM108.451 47.1146H110.898V30.596H108.451V47.1146ZM114.504 41.6655C114.441 39.4947 116.171 38.3874 117.415 38.3874C118.386 38.3874 119.209 38.8764 119.482 39.5793L114.504 41.6655ZM122.098 39.792C121.635 38.5368 120.221 36.2166 117.331 36.2166C114.462 36.2166 112.079 38.4931 112.079 41.836C112.079 44.9859 114.441 47.4553 117.605 47.4553C120.158 47.4553 121.635 45.8803 122.246 44.9647L120.348 43.6871C119.715 44.624 118.85 45.2409 117.605 45.2409C116.361 45.2409 115.475 44.6661 114.905 43.5392L122.351 40.4301L122.098 39.792ZM62.7752 37.9408V40.3245H68.4276C68.2587 41.6655 67.816 42.6446 67.1418 43.3251C66.3181 44.1561 65.0312 45.0718 62.7752 45.0718C59.2937 45.0718 56.5728 42.2403 56.5728 38.7283C56.5728 35.215 59.2937 32.3848 62.7752 32.3848C64.6527 32.3848 66.0235 33.1301 67.0357 34.0881L68.7026 32.406C67.2884 31.0439 65.4122 30 62.7752 30C58.0079 30 54 33.9175 54 38.7283C54 43.5391 58.0079 47.4553 62.7752 47.4553C65.348 47.4553 67.2883 46.6032 68.8072 45.007C70.3693 43.432 70.8537 41.219 70.8537 39.4299C70.8537 38.8764 70.8118 38.3662 70.7268 37.9408H62.7752ZM77.2812 45.2409C75.5936 45.2409 74.1375 43.8364 74.1375 41.836C74.1375 39.8131 75.5936 38.4297 77.2812 38.4297C78.9677 38.4297 80.4237 39.8131 80.4237 41.836C80.4237 43.8364 78.9677 45.2409 77.2812 45.2409ZM77.2812 36.2166C74.2004 36.2166 71.6904 38.5791 71.6904 41.836C71.6904 45.0718 74.2004 47.4553 77.2812 47.4553C80.3609 47.4553 82.8708 45.0718 82.8708 41.836C82.8708 38.5791 80.3609 36.2166 77.2812 36.2166ZM89.475 45.2409C87.7874 45.2409 86.3313 43.8364 86.3313 41.836C86.3313 39.8131 87.7874 38.4297 89.475 38.4297C91.1628 38.4297 92.6175 39.8131 92.6175 41.836C92.6175 43.8364 91.1628 45.2409 89.475 45.2409ZM89.475 36.2166C86.3955 36.2166 83.8855 38.5791 83.8855 41.836C83.8855 45.0718 86.3955 47.4553 89.475 47.4553C92.5547 47.4553 95.0646 45.0718 95.0646 41.836C95.0646 38.5791 92.5547 36.2166 89.475 36.2166Z" fill="white"/>
</g>
<defs>
<clipPath id="clip0_178_81">
<rect width="180" height="60" fill="white"/>
</clipPath>
</defs>
</svg>
