<svg width="80" height="80" viewBox="0 0 80 80" fill="none" xmlns="http://www.w3.org/2000/svg">
<path d="M75.9155 21.254C75.0513 18.0409 72.518 15.5081 69.3054 14.6429C63.4364 13.0371 39.96 13.0371 39.96 13.0371C39.96 13.0371 16.4845 13.0371 10.6155 14.5821C7.46475 15.4463 4.86969 18.0414 4.00543 21.254C2.46094 27.1225 2.46094 39.2931 2.46094 39.2931C2.46094 39.2931 2.46094 51.525 4.00543 57.3321C4.87061 60.5447 7.40295 63.0775 10.616 63.9427C16.5463 65.549 39.9609 65.549 39.9609 65.549C39.9609 65.549 63.4364 65.549 69.3054 64.0041C72.5185 63.1393 75.0513 60.6065 75.9164 57.3939C77.4605 51.525 77.4605 39.3549 77.4605 39.3549C77.4605 39.3549 77.5223 27.1225 75.9155 21.254ZM32.4857 50.5366V28.0495L52.0074 39.2931L32.4857 50.5366Z" fill="white"/>
</svg>
