<svg width="30" height="30" viewBox="0 0 30 30" fill="none" xmlns="http://www.w3.org/2000/svg">
<g clip-path="url(#clip0_125_77638)">
<path d="M3.21415 12.8569H5.357C5.64116 12.8569 5.91369 12.9698 6.11462 13.1707C6.31555 13.3717 6.42843 13.6442 6.42843 13.9284V19.2855C6.42843 19.5697 6.31555 19.8422 6.11462 20.0431C5.91369 20.2441 5.64116 20.3569 5.357 20.3569H3.21415C2.64583 20.3569 2.10078 20.1312 1.69892 19.7293C1.29705 19.3274 1.07129 18.7824 1.07129 18.2141V14.9998C1.07129 14.4315 1.29705 13.8864 1.69892 13.4846C2.10078 13.0827 2.64583 12.8569 3.21415 12.8569V12.8569Z" stroke="#0E0E0E" stroke-width="1.5" stroke-linecap="round" stroke-linejoin="round"/>
<path d="M26.7854 20.3569H24.6425C24.3583 20.3569 24.0858 20.2441 23.8849 20.0431C23.684 19.8422 23.5711 19.5697 23.5711 19.2855V13.9284C23.5711 13.6442 23.684 13.3717 23.8849 13.1707C24.0858 12.9698 24.3583 12.8569 24.6425 12.8569H26.7854C27.3537 12.8569 27.8987 13.0827 28.3006 13.4846C28.7025 13.8864 28.9282 14.4315 28.9282 14.9998V18.2141C28.9282 18.7824 28.7025 19.3274 28.3006 19.7293C27.8987 20.1312 27.3537 20.3569 26.7854 20.3569V20.3569Z" stroke="#0E0E0E" stroke-width="1.5" stroke-linecap="round" stroke-linejoin="round"/>
<path d="M20.3569 26.2498C21.4936 26.2498 22.5837 25.7983 23.3874 24.9945C24.1911 24.1908 24.6426 23.1007 24.6426 21.9641V20.3569" stroke="#0E0E0E" stroke-width="1.5" stroke-linecap="round" stroke-linejoin="round"/>
<path d="M17.6785 23.5713C18.3889 23.5713 19.0702 23.8535 19.5725 24.3558C20.0749 24.8582 20.3571 25.5395 20.3571 26.2499C20.3571 26.9603 20.0749 27.6416 19.5725 28.1439C19.0702 28.6462 18.3889 28.9284 17.6785 28.9284H14.4642C13.7538 28.9284 13.0725 28.6462 12.5702 28.1439C12.0679 27.6416 11.7856 26.9603 11.7856 26.2499C11.7856 25.5395 12.0679 24.8582 12.5702 24.3558C13.0725 23.8535 13.7538 23.5713 14.4642 23.5713H17.6785Z" stroke="#0E0E0E" stroke-width="1.5" stroke-linecap="round" stroke-linejoin="round"/>
<path d="M5.35693 12.857V10.7141C5.35693 8.1567 6.37287 5.704 8.18126 3.89562C9.98965 2.08723 12.4423 1.07129 14.9998 1.07129C17.5572 1.07129 20.0099 2.08723 21.8183 3.89562C23.6267 5.704 24.6426 8.1567 24.6426 10.7141V12.857" stroke="#0E0E0E" stroke-width="1.5" stroke-linecap="round" stroke-linejoin="round"/>
<path d="M11.7856 8.57129V11.7856" stroke="#0E0E0E" stroke-width="1.5" stroke-linecap="round" stroke-linejoin="round"/>
<path d="M18.2144 8.57129V11.7856" stroke="#0E0E0E" stroke-width="1.5" stroke-linecap="round" stroke-linejoin="round"/>
<path d="M11.7856 16.0713C11.7856 18.9213 18.2142 18.9213 18.2142 16.0713" stroke="#0E0E0E" stroke-width="1.5" stroke-linecap="round" stroke-linejoin="round"/>
</g>
<defs>
<clipPath id="clip0_125_77638">
<rect width="30" height="30" fill="white"/>
</clipPath>
</defs>
</svg>
