<svg width="30" height="30" viewBox="0 0 30 30" fill="none" xmlns="http://www.w3.org/2000/svg">
<g clip-path="url(#clip0_125_77603)">
<path d="M18.7981 13.8507C20.5125 13.8507 21.9072 12.456 21.9072 10.7416V3.10904C21.9072 1.39471 20.5125 0 18.7981 0C17.0837 0 15.689 1.39471 15.689 3.10904V10.7416C15.689 12.456 17.0838 13.8507 18.7981 13.8507Z" fill="#0E0E0E"/>
<path d="M24.6606 13.8505H26.8909C28.6052 13.8505 29.9999 12.4558 29.9999 10.7414C29.9999 9.02703 28.6052 7.63232 26.8909 7.63232C25.1765 7.63232 23.7817 9.02703 23.7817 10.7414V12.9716C23.7817 13.457 24.1753 13.8505 24.6606 13.8505Z" fill="#0E0E0E"/>
<path d="M3.10904 14.3114H10.7416C12.4559 14.3114 13.8506 12.9166 13.8506 11.2022C13.8506 9.48797 12.4559 8.09326 10.7416 8.09326H3.10904C1.39471 8.09332 0 9.48803 0 11.2023C0 12.9166 1.39471 14.3114 3.10904 14.3114Z" fill="#0E0E0E"/>
<path d="M10.7414 6.21809H12.9715C13.4569 6.21809 13.8504 5.82457 13.8504 5.33918V3.10904C13.8504 1.39471 12.4557 0 10.7414 0C9.02703 0 7.63232 1.39471 7.63232 3.10904C7.63232 4.82338 9.02703 6.21809 10.7414 6.21809Z" fill="#0E0E0E"/>
<path d="M11.2023 16.1494C9.48797 16.1494 8.09326 17.5442 8.09326 19.2586V26.8911C8.09326 28.6054 9.48797 30.0002 11.2023 30.0002C12.9168 30.0002 14.3115 28.6054 14.3115 26.8911V19.2586C14.3115 17.5442 12.9167 16.1494 11.2023 16.1494Z" fill="#0E0E0E"/>
<path d="M5.33924 16.1494H3.10904C1.39471 16.1494 0 17.5442 0 19.2586C0 20.9729 1.39471 22.3676 3.10904 22.3676C4.82344 22.3676 6.2182 20.9729 6.2182 19.2586V17.0283C6.21814 16.5429 5.82463 16.1494 5.33924 16.1494Z" fill="#0E0E0E"/>
<path d="M26.8909 15.6885H19.2585C17.5441 15.6885 16.1494 17.0832 16.1494 18.7976C16.1494 20.5119 17.5441 21.9066 19.2585 21.9066H26.891C28.6053 21.9066 30 20.5119 30 18.7976C30 17.0832 28.6053 15.6885 26.8909 15.6885Z" fill="#0E0E0E"/>
<path d="M19.2585 23.7817H17.0283C16.5429 23.7817 16.1494 24.1753 16.1494 24.6606V26.8908C16.1494 28.6052 17.5441 30 19.2585 30C20.9729 30 22.3676 28.6052 22.3676 26.8908C22.3676 25.1765 20.9729 23.7817 19.2585 23.7817Z" fill="#0E0E0E"/>
</g>
<defs>
<clipPath id="clip0_125_77603">
<rect width="30" height="30" fill="white"/>
</clipPath>
</defs>
</svg>
