<svg width="30" height="30" viewBox="0 0 30 30" fill="none" xmlns="http://www.w3.org/2000/svg">
<path d="M16.0068 14.7874C15.689 14.9254 15.3462 14.9966 14.9997 14.9966C14.6532 14.9966 14.3104 14.9254 13.9925 14.7874L1.77824 9.13022C1.5799 9.03018 1.41323 8.87705 1.29677 8.68788C1.18031 8.49871 1.11865 8.28093 1.11865 8.05879C1.11865 7.83664 1.18031 7.61886 1.29677 7.42969C1.41323 7.24053 1.5799 7.0874 1.77824 6.98736L13.9925 1.28736C14.3104 1.14934 14.6532 1.07812 14.9997 1.07812C15.3462 1.07813 15.689 1.14934 16.0068 1.28736L28.2211 6.9445C28.4194 7.04454 28.5861 7.19767 28.7026 7.38684C28.819 7.57601 28.8807 7.79379 28.8807 8.01593C28.8807 8.23807 28.819 8.45585 28.7026 8.64502C28.5861 8.83419 28.4194 8.98732 28.2211 9.08736L16.0068 14.7874Z" stroke="#0E0E0E" stroke-width="1.5" stroke-linecap="round" stroke-linejoin="round"/>
<path d="M28.9284 15.75L15.857 21.7714C15.5778 21.8988 15.2746 21.9647 14.9677 21.9647C14.6609 21.9647 14.3576 21.8988 14.0784 21.7714L1.07129 15.75" stroke="#0E0E0E" stroke-width="1.5" stroke-linecap="round" stroke-linejoin="round"/>
<path d="M28.9284 22.7148L15.857 28.7363C15.5778 28.8636 15.2746 28.9295 14.9677 28.9295C14.6609 28.9295 14.3576 28.8636 14.0784 28.7363L1.07129 22.7148" stroke="#0E0E0E" stroke-width="1.5" stroke-linecap="round" stroke-linejoin="round"/>
</svg>
