<svg width="15" height="15" viewBox="0 0 15 15" fill="none" xmlns="http://www.w3.org/2000/svg">
<path fill-rule="evenodd" clip-rule="evenodd" d="M2.78213 9.90039C3.1135 9.90039 3.38213 10.169 3.38213 10.5004V11.7004C3.38213 11.8595 3.44533 12.0121 3.55787 12.1247C3.67039 12.2372 3.82299 12.3004 3.98213 12.3004H11.1821C11.3412 12.3004 11.4938 12.2372 11.6064 12.1247C11.7189 12.0121 11.7821 11.8595 11.7821 11.7004V10.5004C11.7821 10.169 12.0507 9.90039 12.3821 9.90039C12.7135 9.90039 12.9821 10.169 12.9821 10.5004V11.7004C12.9821 12.1778 12.7925 12.6356 12.4549 12.9732C12.1173 13.3107 11.6595 13.5004 11.1821 13.5004H3.98213C3.50475 13.5004 3.0469 13.3108 2.70932 12.9732C2.37178 12.6356 2.18213 12.1778 2.18213 11.7004V10.5004C2.18213 10.169 2.45076 9.90039 2.78213 9.90039Z" fill="white"/>
<path fill-rule="evenodd" clip-rule="evenodd" d="M4.15767 6.47457C4.39199 6.24025 4.77188 6.24025 5.0062 6.47457L7.58192 9.05031L10.1577 6.47457C10.392 6.24025 10.7719 6.24025 11.0062 6.47457C11.2405 6.70887 11.2405 7.08879 11.0062 7.32309L8.00618 10.3231C7.77188 10.5574 7.39196 10.5574 7.15766 10.3231L4.15767 7.32309C3.92336 7.08879 3.92336 6.70887 4.15767 6.47457Z" fill="white"/>
<path fill-rule="evenodd" clip-rule="evenodd" d="M7.58193 2.09961C7.91331 2.09961 8.18193 2.36824 8.18193 2.69961V9.89961C8.18193 10.231 7.91331 10.4996 7.58193 10.4996C7.25055 10.4996 6.98193 10.231 6.98193 9.89961V2.69961C6.98193 2.36824 7.25055 2.09961 7.58193 2.09961Z" fill="white"/>
</svg>
