<svg width="24" height="24" viewBox="0 0 24 24" fill="none" xmlns="http://www.w3.org/2000/svg">
<path d="M11.9995 0.107422C14.2444 0.107422 16.3975 0.999553 17.9849 2.58691C19.5721 4.17417 20.4642 6.3266 20.4644 8.57129C20.4644 9.81411 19.918 11.3873 19.1899 12.9639C18.4487 14.5691 17.4668 16.2861 16.4946 17.8535C15.521 19.4233 14.5483 20.8564 13.8198 21.8965C13.4555 22.4167 13.1512 22.8397 12.938 23.1328C12.8315 23.2793 12.7475 23.3938 12.6899 23.4717L12.6069 23.584C12.6051 23.5864 12.6031 23.5885 12.6021 23.5898L12.6011 23.5918C12.4595 23.7809 12.2358 23.8936 11.9995 23.8936C11.7635 23.8934 11.5414 23.7817 11.3999 23.5928L11.9995 23.1436L11.3989 23.5928V23.5918L11.3979 23.5898C11.3969 23.5884 11.3949 23.5865 11.3931 23.584L11.3101 23.4717C11.2525 23.3938 11.1686 23.2793 11.062 23.1328C10.8488 22.8396 10.5446 22.4168 10.1802 21.8965C9.45173 20.8564 8.47907 19.4233 7.50537 17.8535C6.53318 16.2861 5.55133 14.5691 4.81006 12.9639C4.08204 11.3873 3.53564 9.81411 3.53564 8.57129C3.53576 6.32657 4.42787 4.17418 6.01514 2.58691C7.6024 0.999651 9.75479 0.107533 11.9995 0.107422ZM11.9995 1.60742C10.1526 1.60753 8.38164 2.3415 7.07568 3.64746C5.76973 4.95342 5.03576 6.7244 5.03564 8.57129C5.03564 9.46275 5.45395 10.7792 6.17236 12.335C6.87745 13.8618 7.82356 15.5208 8.77979 17.0625C9.73449 18.6017 10.6908 20.0111 11.4087 21.0361C11.6301 21.3522 11.8309 21.6303 11.9995 21.8652C12.1682 21.6302 12.3698 21.3524 12.5913 21.0361C13.3092 20.0111 14.2646 18.6017 15.2192 17.0625C16.1756 15.5207 17.1225 13.862 17.8276 12.335C18.5461 10.7792 18.9644 9.46275 18.9644 8.57129C18.9642 6.72443 18.2302 4.95341 16.9243 3.64746C15.6183 2.3414 13.8466 1.60742 11.9995 1.60742ZM12.0005 5.25C13.8346 5.25026 15.3217 6.73714 15.3218 8.57129C15.3218 10.4055 13.8346 11.8923 12.0005 11.8926C10.1662 11.8925 8.6792 10.4056 8.6792 8.57129C8.67927 6.73703 10.1662 5.25008 12.0005 5.25ZM12.0005 6.75C10.9947 6.75008 10.1793 7.56545 10.1792 8.57129C10.1792 9.57719 10.9946 10.3925 12.0005 10.3926C13.0062 10.3923 13.8218 9.57707 13.8218 8.57129C13.8217 7.56557 13.0062 6.75026 12.0005 6.75Z" fill="#B9FB6A"/>
</svg>
