<svg width="30" height="30" viewBox="0 0 30 30" fill="none" xmlns="http://www.w3.org/2000/svg">
<g clip-path="url(#clip0_366_693)">
<path d="M15.7713 28.7775C15.2748 28.969 14.7249 28.969 14.2284 28.7775V28.7775C10.3513 27.2572 7.02228 24.6041 4.67533 21.1639C2.32837 17.7237 1.07244 13.6562 1.07129 9.49174V3.21317C1.07129 2.64485 1.29705 2.0998 1.69892 1.69794C2.10078 1.29608 2.64583 1.07031 3.21415 1.07031H26.7856C27.3539 1.07031 27.8989 1.29608 28.3008 1.69794C28.7027 2.0998 28.9284 2.64485 28.9284 3.21317V9.47031C28.9316 13.6384 27.6777 17.7107 25.3304 21.155C22.9832 24.5994 19.6518 27.2559 15.7713 28.7775V28.7775Z" stroke="#0E0E0E" stroke-width="1.5" stroke-linecap="round" stroke-linejoin="round"/>
<path d="M14.9997 17.1401C17.9584 17.1401 20.3569 14.7416 20.3569 11.7829C20.3569 8.82426 17.9584 6.42578 14.9997 6.42578C12.0411 6.42578 9.64258 8.82426 9.64258 11.7829C9.64258 14.7416 12.0411 17.1401 14.9997 17.1401Z" stroke="#0E0E0E" stroke-width="1.5" stroke-linecap="round" stroke-linejoin="round"/>
<path d="M6.96436 23.979C7.9698 22.8389 9.20634 21.9259 10.5918 21.3004C11.9773 20.675 13.48 20.3516 15.0001 20.3516C16.5202 20.3516 18.0229 20.675 19.4083 21.3004C20.7938 21.9259 22.0303 22.8389 23.0358 23.979" stroke="#0E0E0E" stroke-width="1.5" stroke-linecap="round" stroke-linejoin="round"/>
</g>
<defs>
<clipPath id="clip0_366_693">
<rect width="30" height="30" fill="white"/>
</clipPath>
</defs>
</svg>
