<svg width="30" height="30" viewBox="0 0 30 30" fill="none" xmlns="http://www.w3.org/2000/svg">
<path d="M23.0455 15.9539C23.012 12.1639 26.0969 10.32 26.238 10.2342C24.4909 7.64359 21.7828 7.28964 20.8312 7.26141C18.5568 7.01799 16.3506 8.64549 15.192 8.64549C14.0103 8.64549 12.2261 7.28493 10.3032 7.32491C7.82876 7.36372 5.51388 8.82071 4.24428 11.0832C1.62413 15.6964 3.57825 22.4757 6.08855 26.2046C7.34428 28.032 8.81161 30.0699 10.7322 29.9982C12.6112 29.9205 13.313 28.7811 15.5805 28.7811C17.8272 28.7811 18.4863 29.9982 20.445 29.9523C22.4616 29.9205 23.7312 28.1178 24.943 26.2751C26.3941 24.1832 26.9769 22.1206 27 22.0147C26.9537 21.9983 23.0848 20.4954 23.0455 15.9539ZM19.3454 4.80841C20.356 3.52311 21.0474 1.77449 20.8555 0C19.3928 0.0658525 17.5635 1.02895 16.5102 2.28602C15.5782 3.39376 14.7457 5.2094 14.9607 6.91686C16.6038 7.04151 18.2908 6.07372 19.3454 4.80841Z" fill="#0E0E0E"/>
</svg>
