<svg width="80" height="80" viewBox="0 0 80 80" fill="none" xmlns="http://www.w3.org/2000/svg">
<path fill-rule="evenodd" clip-rule="evenodd" d="M40.0956 2.13867C18.6808 2.13867 1.28125 19.4101 1.28125 40.8578C1.28125 62.3045 18.6808 79.576 40.0956 79.576C61.5105 79.576 78.7188 62.3045 78.7188 40.8578C78.7188 19.4101 61.5104 2.13867 40.0956 2.13867ZM43.1548 51.2965C40.2868 51.1064 39.1396 49.5886 36.8452 48.2598C35.6979 54.7123 34.1683 60.7856 29.7706 64.0124C28.4322 54.3331 31.6826 47.1212 33.2123 39.339C30.5354 34.9737 33.5947 25.8636 39.1396 28.1409C46.0229 30.7983 33.2123 44.843 41.8164 46.5509C50.9942 48.4489 54.6271 30.7983 49.0822 25.1042C40.8603 16.9427 25.3729 24.9141 27.285 36.6815C27.8586 39.5291 30.7267 40.4776 28.6234 44.4638C23.2697 43.3252 21.7401 39.1488 21.9312 33.835C22.3136 24.9141 29.9618 18.6506 37.8011 17.7022C47.5525 16.5635 56.7303 21.3081 57.8775 30.4181C59.4072 40.8578 53.4798 52.0559 43.1548 51.2965Z" fill="white"/>
</svg>
