<svg width="30" height="30" viewBox="0 0 30 30" fill="none" xmlns="http://www.w3.org/2000/svg">
<g clip-path="url(#clip0_410_52)">
<path d="M18.2146 10.7154C19.3981 10.7154 20.3575 9.75601 20.3575 8.57254C20.3575 7.38908 19.3981 6.42969 18.2146 6.42969C17.0312 6.42969 16.0718 7.38908 16.0718 8.57254C16.0718 9.75601 17.0312 10.7154 18.2146 10.7154Z" stroke="#0E0E0E" stroke-width="1.5" stroke-linecap="round" stroke-linejoin="round"/>
<path d="M9.64321 21.43C10.2349 21.43 10.7146 20.9503 10.7146 20.3585C10.7146 19.7668 10.2349 19.2871 9.64321 19.2871C9.05147 19.2871 8.57178 19.7668 8.57178 20.3585C8.57178 20.9503 9.05147 21.43 9.64321 21.43Z" stroke="#0E0E0E" stroke-width="1.5" stroke-linecap="round" stroke-linejoin="round"/>
<path d="M9.64286 13.9302C10.8263 13.9302 11.7857 12.9709 11.7857 11.7874C11.7857 10.6039 10.8263 9.64453 9.64286 9.64453C8.45939 9.64453 7.5 10.6039 7.5 11.7874C7.5 12.9709 8.45939 13.9302 9.64286 13.9302Z" stroke="#0E0E0E" stroke-width="1.5" stroke-linecap="round" stroke-linejoin="round"/>
<path d="M20.4002 26.3151C20.3763 25.8995 20.2319 25.4998 19.9845 25.1649C19.7371 24.83 19.3976 24.5744 19.0073 24.4294C18.0381 24.1109 17.2144 23.457 16.6841 22.5854C16.1539 21.7138 15.9519 20.6817 16.1146 19.6745C16.2773 18.6674 16.794 17.7513 17.5717 17.091C18.3494 16.4307 19.3371 16.0695 20.3573 16.0723H24.3645C25.0518 16.0742 25.7294 15.9108 26.3403 15.5958C26.9512 15.2809 27.4773 14.8237 27.8744 14.2627C28.2715 13.7017 28.5279 13.0535 28.6219 12.3727C28.7158 11.6919 28.6447 10.9984 28.4145 10.3508C27.5622 7.94434 26.0649 5.81838 24.0861 4.20523C22.1074 2.59207 19.7234 1.55377 17.1945 1.20378C14.6657 0.853789 12.0893 1.20556 9.74677 2.22067C7.4043 3.23577 5.38587 4.87516 3.91201 6.95972C2.43815 9.04428 1.56557 11.4938 1.38958 14.0407C1.2136 16.5876 1.74099 19.1339 2.91414 21.4013C4.08728 23.6688 5.86105 25.5702 8.04165 26.8978C10.2223 28.2255 12.7258 28.9283 15.2788 28.9294C16.5395 28.9329 17.7946 28.7598 19.0073 28.4151C19.4528 28.2903 19.8385 28.0096 20.0942 27.6241C20.3499 27.2386 20.4585 26.774 20.4002 26.3151V26.3151Z" stroke="#0E0E0E" stroke-width="1.5" stroke-linecap="round" stroke-linejoin="round"/>
</g>
<defs>
<clipPath id="clip0_410_52">
<rect width="30" height="30" fill="white"/>
</clipPath>
</defs>
</svg>
