<svg width="50" height="50" viewBox="0 0 50 50" fill="none" xmlns="http://www.w3.org/2000/svg">
<rect width="50" height="50" rx="25" fill="#B9FB6A"/>
<path d="M32.393 28.9019C32.2502 29.1029 32.1217 29.2969 31.9647 29.4872C29.2534 32.7802 24.5138 33.7855 20.6403 31.9165C20.1133 31.6203 19.5696 31.3371 19.1032 30.9469V30.9026C19.1032 30.9469 19.0781 30.9469 19.0116 30.8779C18.9724 30.8779 18.6607 30.6162 18.6036 30.5662C17.7351 29.8132 16.9381 28.8055 16.411 27.7896C15.6663 26.3536 15.288 24.5941 15.3784 22.9952C15.4629 21.4974 15.8852 20.1174 16.6264 18.8314C17.7589 16.8637 19.6267 15.3243 21.8073 14.595C26.2103 13.121 31.1593 15.2101 33.1817 19.3703C34.7116 22.5182 34.4011 26.0681 32.393 28.9007V28.9019ZM27.9448 19.1681C25.6607 17.449 22.3332 17.8951 20.5463 20.1067C19.6231 21.25 19.1901 22.7763 19.3923 24.2253C19.5946 25.6743 20.4309 27.0674 21.6491 27.9014C21.912 28.0822 22.2047 28.225 22.4712 28.382C22.5913 28.4522 22.8043 28.5272 22.9399 28.5747C23.9249 28.9174 24.9671 28.9626 25.9628 28.7306C27.739 28.3154 29.1131 27.1186 29.7733 25.4471C30.6965 23.1082 29.9066 20.6433 27.946 19.1669L27.9448 19.1681Z" fill="#0E0E0E"/>
<path d="M22.5413 34.6548C23.0838 34.8273 24.3519 34.8546 24.9634 34.8475C27.2404 34.8213 29.6614 34.0968 31.5708 32.8988C31.7029 32.8155 31.9575 32.5883 32.0907 32.5372C32.1347 32.5205 32.1538 32.5074 32.1954 32.5419C32.2703 32.605 32.4547 32.9405 32.5297 33.0487C33.1638 33.9659 33.855 34.9022 34.4415 35.8456C34.4581 35.8718 34.4891 35.8884 34.4998 35.9075C34.5438 35.9884 34.4641 35.9658 34.4117 35.9991C34.1928 36.1383 33.9834 36.2941 33.7622 36.4321C28.2064 39.8905 21.1339 39.8429 15.6103 36.3655L15 35.9384L17.3401 32.5015C17.3722 32.4777 17.5399 32.6347 17.5732 32.6585C18.9069 33.5745 20.6497 34.3228 22.2403 34.6036C22.3533 34.6238 22.4175 34.6155 22.5413 34.6548Z" fill="#0E0E0E"/>
<path d="M33.1946 14.2307C32.1073 14.9374 30.5964 14.7946 29.6637 13.8703C28.6441 12.8603 28.5276 11.2292 29.4043 10.0871C29.4388 10.0419 29.5055 10.0158 29.5423 9.96461C29.8469 9.53396 30.5333 9.16159 31.0604 9.05809C31.9514 8.8844 32.8996 9.09854 33.5694 9.72311C34.6698 10.751 34.8435 12.3118 33.9584 13.5407C33.749 13.831 33.4896 14.0392 33.1946 14.2307Z" fill="#0E0E0E"/>
</svg>
