<svg width="165" height="50" viewBox="0 0 165 50" fill="none" xmlns="http://www.w3.org/2000/svg">
<rect width="50" height="50" rx="25" fill="#B9FB6A"/>
<path d="M32.393 28.9019C32.2502 29.1029 32.1217 29.2969 31.9647 29.4872C29.2534 32.7802 24.5138 33.7855 20.6403 31.9165C20.1133 31.6203 19.5696 31.3371 19.1032 30.9469V30.9026C19.1032 30.9469 19.0781 30.9469 19.0116 30.8779C18.9724 30.8779 18.6607 30.6162 18.6036 30.5662C17.7351 29.8132 16.9381 28.8055 16.411 27.7896C15.6663 26.3536 15.288 24.5941 15.3784 22.9952C15.4629 21.4974 15.8852 20.1174 16.6264 18.8314C17.7589 16.8637 19.6267 15.3243 21.8073 14.595C26.2103 13.121 31.1593 15.2101 33.1817 19.3703C34.7116 22.5182 34.4011 26.0681 32.393 28.9007V28.9019ZM27.9448 19.1681C25.6607 17.449 22.3332 17.8951 20.5463 20.1067C19.6231 21.25 19.1901 22.7763 19.3923 24.2253C19.5946 25.6743 20.4309 27.0674 21.6491 27.9014C21.912 28.0822 22.2047 28.225 22.4712 28.382C22.5913 28.4522 22.8043 28.5272 22.9399 28.5747C23.9249 28.9174 24.9671 28.9626 25.9628 28.7306C27.739 28.3154 29.1131 27.1186 29.7733 25.4471C30.6965 23.1082 29.9066 20.6433 27.946 19.1669L27.9448 19.1681Z" fill="#0E0E0E"/>
<path d="M22.5413 34.6548C23.0838 34.8273 24.3519 34.8546 24.9634 34.8475C27.2404 34.8213 29.6614 34.0968 31.5708 32.8988C31.7029 32.8155 31.9575 32.5883 32.0907 32.5372C32.1347 32.5205 32.1537 32.5074 32.1954 32.5419C32.2703 32.605 32.4547 32.9405 32.5297 33.0487C33.1638 33.9659 33.855 34.9022 34.4415 35.8456C34.4581 35.8718 34.4891 35.8884 34.4998 35.9075C34.5438 35.9884 34.4641 35.9658 34.4117 35.9991C34.1928 36.1383 33.9834 36.2941 33.7622 36.4321C28.2064 39.8905 21.1339 39.8429 15.6103 36.3655L15 35.9384L17.3401 32.5015C17.3722 32.4777 17.5399 32.6347 17.5732 32.6585C18.9069 33.5745 20.6497 34.3228 22.2403 34.6036C22.3533 34.6238 22.4175 34.6155 22.5413 34.6548Z" fill="#0E0E0E"/>
<path d="M33.1946 14.2307C32.1073 14.9374 30.5964 14.7946 29.6637 13.8703C28.6441 12.8603 28.5276 11.2292 29.4043 10.0871C29.4388 10.0419 29.5055 10.0158 29.5423 9.96461C29.8469 9.53396 30.5333 9.16159 31.0604 9.05809C31.9514 8.8844 32.8996 9.09854 33.5694 9.72311C34.6698 10.751 34.8435 12.3118 33.9584 13.5407C33.749 13.831 33.4896 14.0392 33.1946 14.2307Z" fill="#0E0E0E"/>
<path d="M69.8086 35H66.1396L72.8174 16.084H77.0322L83.6973 35H80.041L74.9883 19.9688H74.8359L69.8086 35ZM69.9355 27.5859H79.9014V30.3281H69.9355V27.5859ZM85.0811 40.3066V20.8066H88.3564V23.1553H88.5596C88.7288 22.8167 88.9701 22.4528 89.2832 22.0635C89.5964 21.6657 90.0195 21.3271 90.5527 21.0479C91.0944 20.7686 91.7842 20.6289 92.6221 20.6289C93.7139 20.6289 94.6999 20.9082 95.5801 21.4668C96.4603 22.0254 97.1585 22.8464 97.6748 23.9297C98.1995 25.013 98.4619 26.346 98.4619 27.9287C98.4619 29.486 98.208 30.8105 97.7002 31.9023C97.1924 32.9941 96.4941 33.8278 95.6055 34.4033C94.7253 34.9704 93.7266 35.2539 92.6094 35.2539C91.8053 35.2539 91.1325 35.1185 90.5908 34.8477C90.0576 34.5684 89.626 34.2383 89.2959 33.8574C88.9743 33.4681 88.7288 33.0999 88.5596 32.7529H88.4199V40.3066H85.0811ZM91.6953 32.5117C92.4316 32.5117 93.0452 32.3128 93.5361 31.915C94.0355 31.5173 94.4121 30.9714 94.666 30.2773C94.9199 29.5833 95.0469 28.7962 95.0469 27.916C95.0469 27.0358 94.9199 26.2529 94.666 25.5674C94.4121 24.8818 94.0397 24.3444 93.5488 23.9551C93.0579 23.5658 92.4401 23.3711 91.6953 23.3711C90.9759 23.3711 90.3665 23.5573 89.8672 23.9297C89.3763 24.3021 88.9997 24.8311 88.7373 25.5166C88.4834 26.1937 88.3564 26.9935 88.3564 27.916C88.3564 28.8301 88.4834 29.6341 88.7373 30.3281C88.9997 31.0137 89.3805 31.5511 89.8799 31.9404C90.3792 32.3213 90.9844 32.5117 91.6953 32.5117ZM100.315 40.3066V20.8066H103.591V23.1553H103.794C103.963 22.8167 104.204 22.4528 104.518 22.0635C104.831 21.6657 105.254 21.3271 105.787 21.0479C106.329 20.7686 107.019 20.6289 107.856 20.6289C108.948 20.6289 109.934 20.9082 110.814 21.4668C111.695 22.0254 112.393 22.8464 112.909 23.9297C113.434 25.013 113.696 26.346 113.696 27.9287C113.696 29.486 113.442 30.8105 112.935 31.9023C112.427 32.9941 111.729 33.8278 110.84 34.4033C109.96 34.9704 108.961 35.2539 107.844 35.2539C107.04 35.2539 106.367 35.1185 105.825 34.8477C105.292 34.5684 104.86 34.2383 104.53 33.8574C104.209 33.4681 103.963 33.0999 103.794 32.7529H103.654V40.3066H100.315ZM106.93 32.5117C107.666 32.5117 108.28 32.3128 108.771 31.915C109.27 31.5173 109.646 30.9714 109.9 30.2773C110.154 29.5833 110.281 28.7962 110.281 27.916C110.281 27.0358 110.154 26.2529 109.9 25.5674C109.646 24.8818 109.274 24.3444 108.783 23.9551C108.292 23.5658 107.674 23.3711 106.93 23.3711C106.21 23.3711 105.601 23.5573 105.102 23.9297C104.611 24.3021 104.234 24.8311 103.972 25.5166C103.718 26.1937 103.591 26.9935 103.591 27.916C103.591 28.8301 103.718 29.6341 103.972 30.3281C104.234 31.0137 104.615 31.5511 105.114 31.9404C105.614 32.3213 106.219 32.5117 106.93 32.5117ZM115.372 35V32.8799L122.672 23.7012V23.5742H115.601V20.8066H126.76V23.1045L119.815 32.1055V32.2324H127.001V35H115.372ZM135.062 35.2793C133.641 35.2793 132.413 34.9831 131.381 34.3906C130.348 33.7897 129.553 32.9434 128.994 31.8516C128.444 30.7598 128.169 29.4733 128.169 27.9922C128.169 26.528 128.444 25.2458 128.994 24.1455C129.544 23.0368 130.319 22.1735 131.317 21.5557C132.316 20.9378 133.493 20.6289 134.847 20.6289C135.718 20.6289 136.544 20.7686 137.322 21.0479C138.109 21.3271 138.803 21.7588 139.404 22.3428C140.014 22.9268 140.492 23.6715 140.839 24.5771C141.186 25.4743 141.359 26.5449 141.359 27.7891V28.8301H129.73V26.583H139.696L138.135 27.2432C138.135 26.4391 138.012 25.7409 137.767 25.1484C137.521 24.5475 137.157 24.0778 136.675 23.7393C136.192 23.4007 135.591 23.2314 134.872 23.2314C134.153 23.2314 133.539 23.4007 133.031 23.7393C132.523 24.0778 132.138 24.5348 131.876 25.1104C131.614 25.6774 131.482 26.3122 131.482 27.0146V28.5762C131.482 29.4395 131.631 30.18 131.927 30.7979C132.231 31.4072 132.655 31.8727 133.196 32.1943C133.746 32.516 134.385 32.6768 135.113 32.6768C135.587 32.6768 136.019 32.609 136.408 32.4736C136.806 32.3382 137.145 32.1351 137.424 31.8643C137.712 31.585 137.932 31.2422 138.084 30.8359L141.207 31.2041C141.004 32.0251 140.627 32.7445 140.077 33.3623C139.535 33.9717 138.837 34.4456 137.982 34.7842C137.136 35.1143 136.163 35.2793 135.062 35.2793ZM146.514 26.6973V35H143.175V20.8066H146.45V23.2314H146.615C146.937 22.4359 147.44 21.8053 148.126 21.3398C148.82 20.8659 149.7 20.6289 150.767 20.6289C151.748 20.6289 152.603 20.8363 153.331 21.251C154.059 21.6657 154.622 22.2751 155.02 23.0791C155.426 23.8747 155.629 24.8395 155.629 25.9736V35H152.29V26.4941C152.29 25.5462 152.045 24.8057 151.554 24.2725C151.063 23.7308 150.386 23.46 149.522 23.46C148.938 23.46 148.418 23.5869 147.961 23.8408C147.512 24.0947 147.157 24.4629 146.895 24.9453C146.641 25.4193 146.514 26.0033 146.514 26.6973Z" fill="white"/>
<path d="M160.542 35.2158C159.966 35.2158 159.48 35.0212 159.082 34.6318C158.693 34.234 158.498 33.7516 158.498 33.1846C158.498 32.6175 158.693 32.1393 159.082 31.75C159.48 31.3522 159.966 31.1533 160.542 31.1533C161.118 31.1533 161.6 31.3522 161.989 31.75C162.387 32.1393 162.586 32.6175 162.586 33.1846C162.586 33.7516 162.387 34.234 161.989 34.6318C161.6 35.0212 161.118 35.2158 160.542 35.2158Z" fill="#B9FB6A"/>
</svg>
