<svg width="192" height="60" viewBox="0 0 192 60" fill="none" xmlns="http://www.w3.org/2000/svg">
<rect width="60.0007" height="60" rx="30" fill="#0E0E0E"/>
<path d="M38.8632 35.8815C38.6919 36.1228 38.5377 36.3555 38.3493 36.5839C35.0957 40.5355 29.4081 41.7418 24.7598 39.499C24.1274 39.1435 23.475 38.8038 22.9153 38.3355V38.2823C22.9153 38.3355 22.8852 38.3355 22.8054 38.2527C22.7583 38.2527 22.3843 37.9387 22.3158 37.8787C21.2736 36.975 20.3171 35.7659 19.6847 34.5467C18.791 32.8236 18.337 30.7122 18.4455 28.7935C18.5469 26.9961 19.0537 25.3401 19.9431 23.7969C21.3021 21.4357 23.5435 19.5883 26.1603 18.7132C31.4439 16.9444 37.3828 19.4513 39.8097 24.4436C41.6456 28.221 41.273 32.481 38.8632 35.8801V35.8815ZM33.5254 24.2009C30.7844 22.138 26.7913 22.6734 24.647 25.3273C23.5392 26.6992 23.0196 28.5308 23.2623 30.2696C23.505 32.0084 24.5086 33.6801 25.9704 34.6809C26.2859 34.8979 26.6371 35.0692 26.9569 35.2576C27.1011 35.3419 27.3567 35.4318 27.5194 35.4889C28.7015 35.9 29.9521 35.9543 31.147 35.6759C33.2784 35.1777 34.9273 33.7415 35.7196 31.7358C36.8274 28.9291 35.8795 25.9711 33.5268 24.1995L33.5254 24.2009Z" fill="#B9FB6A"/>
<path d="M27.0496 42.7851C27.7006 42.9921 29.2225 43.025 29.9563 43.0164C32.6887 42.985 35.5939 42.1156 37.8852 40.678C38.0437 40.5781 38.3492 40.3054 38.5091 40.244C38.5619 40.224 38.5847 40.2083 38.6347 40.2497C38.7247 40.3254 38.9459 40.728 39.0359 40.8579C39.7968 41.9585 40.6262 43.0821 41.33 44.2142C41.35 44.2456 41.3871 44.2655 41.4 44.2884C41.4528 44.3855 41.3572 44.3583 41.2944 44.3983C41.0317 44.5653 40.7804 44.7524 40.5149 44.918C33.8479 49.068 25.3608 49.0109 18.7324 44.838L18 44.3255L20.8081 40.2012C20.8467 40.1726 21.048 40.3611 21.0879 40.3896C22.6883 41.4889 24.7797 42.3868 26.6884 42.7237C26.8241 42.748 26.9012 42.738 27.0496 42.7851Z" fill="#B9FB6A"/>
<path d="M39.817 18.2769C38.5122 19.1249 36.6991 18.9536 35.5798 17.8443C34.3564 16.6323 34.2165 14.6751 35.2686 13.3046C35.31 13.2503 35.39 13.2189 35.4342 13.1575C35.7997 12.6407 36.6234 12.1939 37.2559 12.0697C38.3251 11.8613 39.4629 12.1182 40.2667 12.8677C41.5872 14.1012 41.7957 15.9742 40.7335 17.4489C40.4823 17.7972 40.171 18.047 39.817 18.2769Z" fill="#B9FB6A"/>
<path d="M189.275 37.9561C188.584 37.9561 188 37.7225 187.523 37.2553C187.056 36.7779 186.822 36.199 186.822 35.5186C186.822 34.8381 187.056 34.2643 187.523 33.7971C188 33.3197 188.584 33.0811 189.275 33.0811C189.966 33.0811 190.545 33.3197 191.012 33.7971C191.489 34.2643 191.728 34.8381 191.728 35.5186C191.728 36.199 191.489 36.7779 191.012 37.2553C190.545 37.7225 189.966 37.9561 189.275 37.9561Z" fill="#0E0E0E"/>
<path d="M172.45 27.7361V37.6994H168.443V20.6674H172.374V23.5771H172.572C172.958 22.6225 173.562 21.8658 174.385 21.3072C175.218 20.7385 176.274 20.4541 177.554 20.4541C178.732 20.4541 179.758 20.7029 180.631 21.2006C181.504 21.6982 182.18 22.4295 182.657 23.3943C183.145 24.349 183.388 25.5068 183.388 26.8678V37.6994H179.382V27.4924C179.382 26.3549 179.087 25.4662 178.498 24.8264C177.909 24.1764 177.097 23.8514 176.061 23.8514C175.36 23.8514 174.735 24.0037 174.187 24.3084C173.648 24.6131 173.222 25.0549 172.907 25.6338C172.602 26.2025 172.45 26.9033 172.45 27.7361Z" fill="#0E0E0E"/>
<path d="M158.708 38.0346C157.002 38.0346 155.529 37.6791 154.29 36.9682C153.051 36.2471 152.096 35.2314 151.426 33.9213C150.766 32.6111 150.436 31.0674 150.436 29.29C150.436 27.533 150.766 25.9943 151.426 24.674C152.086 23.3436 153.015 22.3076 154.214 21.5662C155.412 20.8248 156.824 20.4541 158.449 20.4541C159.495 20.4541 160.485 20.6217 161.42 20.9568C162.364 21.292 163.197 21.81 163.918 22.5107C164.649 23.2115 165.223 24.1053 165.64 25.192C166.056 26.2686 166.264 27.5533 166.264 29.0463V30.2955H152.309V27.599H164.269L162.395 28.3912C162.395 27.4264 162.247 26.5885 161.953 25.8775C161.658 25.1564 161.222 24.5928 160.643 24.1865C160.064 23.7803 159.343 23.5771 158.479 23.5771C157.616 23.5771 156.88 23.7803 156.27 24.1865C155.661 24.5928 155.199 25.1412 154.884 25.8318C154.569 26.5123 154.412 27.274 154.412 28.117V29.9908C154.412 31.0268 154.59 31.9154 154.945 32.6568C155.311 33.3881 155.818 33.9467 156.468 34.3326C157.129 34.7186 157.895 34.9115 158.769 34.9115C159.338 34.9115 159.856 34.8303 160.323 34.6678C160.8 34.5053 161.206 34.2615 161.542 33.9365C161.887 33.6014 162.151 33.19 162.334 32.7025L166.081 33.1443C165.838 34.1295 165.386 34.9928 164.726 35.7342C164.076 36.4654 163.238 37.0342 162.212 37.4404C161.196 37.8365 160.028 38.0346 158.708 38.0346Z" fill="#0E0E0E"/>
<path d="M135.064 37.6961V35.152L143.824 24.1375V23.9852H135.339V20.6641H148.73V23.4215L140.397 34.2227V34.375H149.019V37.6961H135.064Z" fill="#0E0E0E"/>
<path d="M116.998 44.0674V20.6674H120.929V23.4857H121.172C121.375 23.0795 121.665 22.6428 122.041 22.1756C122.416 21.6982 122.924 21.292 123.564 20.9568C124.214 20.6217 125.042 20.4541 126.047 20.4541C127.358 20.4541 128.541 20.7893 129.597 21.4596C130.653 22.1299 131.491 23.115 132.111 24.415C132.74 25.715 133.055 27.3146 133.055 29.2139C133.055 31.0826 132.751 32.6721 132.141 33.9822C131.532 35.2924 130.694 36.2928 129.627 36.9834C128.571 37.6639 127.373 38.0041 126.032 38.0041C125.067 38.0041 124.26 37.8416 123.61 37.5166C122.97 37.1814 122.452 36.7854 122.056 36.3283C121.67 35.8611 121.375 35.4193 121.172 35.0029H121.005V44.0674H116.998ZM124.935 34.7135C125.819 34.7135 126.555 34.4748 127.144 33.9975C127.743 33.5201 128.195 32.865 128.5 32.0322C128.805 31.1994 128.957 30.2549 128.957 29.1986C128.957 28.1424 128.805 27.2029 128.5 26.3803C128.195 25.5576 127.749 24.9127 127.159 24.4455C126.57 23.9783 125.829 23.7447 124.935 23.7447C124.072 23.7447 123.341 23.9682 122.741 24.415C122.152 24.8619 121.7 25.4967 121.386 26.3193C121.081 27.1318 120.929 28.0916 120.929 29.1986C120.929 30.2955 121.081 31.2604 121.386 32.0932C121.7 32.9158 122.157 33.5607 122.757 34.0279C123.356 34.485 124.082 34.7135 124.935 34.7135Z" fill="#0E0E0E"/>
<path d="M98.7168 44.0674V20.6674H102.647V23.4857H102.891C103.094 23.0795 103.384 22.6428 103.759 22.1756C104.135 21.6982 104.643 21.292 105.283 20.9568C105.933 20.6217 106.761 20.4541 107.766 20.4541C109.076 20.4541 110.26 20.7893 111.316 21.4596C112.372 22.1299 113.21 23.115 113.829 24.415C114.459 25.715 114.774 27.3146 114.774 29.2139C114.774 31.0826 114.469 32.6721 113.86 33.9822C113.251 35.2924 112.413 36.2928 111.346 36.9834C110.29 37.6639 109.092 38.0041 107.751 38.0041C106.786 38.0041 105.979 37.8416 105.329 37.5166C104.689 37.1814 104.171 36.7854 103.775 36.3283C103.389 35.8611 103.094 35.4193 102.891 35.0029H102.723V44.0674H98.7168ZM106.654 34.7135C107.538 34.7135 108.274 34.4748 108.863 33.9975C109.462 33.5201 109.914 32.865 110.219 32.0322C110.524 31.1994 110.676 30.2549 110.676 29.1986C110.676 28.1424 110.524 27.2029 110.219 26.3803C109.914 25.5576 109.467 24.9127 108.878 24.4455C108.289 23.9783 107.548 23.7447 106.654 23.7447C105.791 23.7447 105.059 23.9682 104.46 24.415C103.871 24.8619 103.419 25.4967 103.104 26.3193C102.8 27.1318 102.647 28.0916 102.647 29.1986C102.647 30.2955 102.8 31.2604 103.104 32.0932C103.419 32.9158 103.876 33.5607 104.475 34.0279C105.075 34.485 105.801 34.7135 106.654 34.7135Z" fill="#0E0E0E"/>
<path d="M80.4028 37.6992H76L84.0134 15H89.0712L97.0694 37.6992H92.6818L86.6185 19.6617H86.4357L80.4028 37.6992ZM80.5551 28.8023H92.5143V32.093H80.5551V28.8023Z" fill="#0E0E0E"/>
</svg>
