<svg width="40" height="40" viewBox="0 0 40 40" fill="none" xmlns="http://www.w3.org/2000/svg">
<g clip-path="url(#clip0_460_4006)">
<path d="M26.154 21.5391L31.5386 21.5391C32.1797 21.5391 32.7247 21.7634 33.1735 22.2121C33.622 22.6609 33.8465 23.2057 33.8465 23.847L33.8465 24.6159C33.8465 26.3147 33.2455 27.7649 32.0434 28.967C30.8414 30.1686 29.391 30.7697 27.6923 30.7697L26.154 30.7697C25.7374 30.7697 25.3769 30.922 25.0723 31.2264C24.7679 31.5309 24.6156 31.8913 24.6156 32.308L24.6156 35.3852C24.6156 35.8018 24.7679 36.1626 25.0723 36.4672C25.3768 36.7713 25.7373 36.9238 26.154 36.9238L27.6923 36.9238C29.3591 36.9238 30.9494 36.599 32.464 35.9503C33.9784 35.3011 35.2883 34.4236 36.3942 33.3177C37.5001 32.2123 38.3773 30.9023 39.0264 29.3877C39.6754 27.8732 40 26.2826 40 24.616L40 7.69328C40 6.41055 39.5515 5.32139 38.654 4.4236C37.7565 3.52633 36.6665 3.07772 35.3845 3.07772L26.1534 3.07773C24.8715 3.07773 23.7818 3.52633 22.8842 4.4236C21.9869 5.32139 21.5382 6.41055 21.5382 7.69328L21.5382 16.9236C21.5382 18.2061 21.9869 19.2953 22.8848 20.1931C23.782 21.0903 24.8721 21.5391 26.154 21.5391Z" fill="#B9FB6A"/>
<path d="M1.34533 20.1931C2.24252 21.0903 3.33227 21.5391 4.61449 21.5391L9.99907 21.5391C10.6398 21.5391 11.1853 21.7634 11.6333 22.2121C12.0823 22.6609 12.3064 23.2057 12.3064 23.847L12.3064 24.6159C12.3064 26.3147 11.7053 27.7649 10.5038 28.967C9.30227 30.1686 7.85191 30.7697 6.15241 30.7697L4.6144 30.7697C4.19772 30.7697 3.83702 30.922 3.53265 31.2264C3.22845 31.5309 3.07564 31.8913 3.07564 32.308L3.07564 35.3852C3.07564 35.8018 3.22837 36.1626 3.53265 36.4672C3.83694 36.7713 4.19763 36.9238 4.6144 36.9238L6.15241 36.9238C7.82017 36.9238 9.41004 36.599 10.9251 35.9503C12.4392 35.3011 13.7487 34.4236 14.8547 33.3177C15.9606 32.2123 16.8382 30.9023 17.487 29.3877C18.1359 27.8732 18.4609 26.2826 18.4609 24.616L18.4609 7.69328C18.4609 6.41055 18.012 5.32139 17.1148 4.4236C16.2175 3.52633 15.1278 3.07772 13.8456 3.07772L4.61499 3.07773C3.33277 3.07773 2.24311 3.52633 1.34591 4.4236C0.448047 5.32139 4.12015e-05 6.41055 4.13136e-05 7.69328L4.21205e-05 16.9236C-4.16907e-05 18.2062 0.44805 19.2953 1.34533 20.1931Z" fill="#B9FB6A"/>
</g>
<defs>
<clipPath id="clip0_460_4006">
<rect width="40" height="40" fill="white" transform="translate(40 40) rotate(180)"/>
</clipPath>
</defs>
</svg>
