<svg width="108" height="115" viewBox="0 0 108 115" fill="none" xmlns="http://www.w3.org/2000/svg">
<path d="M3.44322 76.1575L22.9976 72.1975L15.9803 80.1945L16.398 91.5117L3.44322 76.1575Z" fill="white"/>
<path d="M9.88477 76.8173C9.80223 76.9395 9.86468 77.1721 10.0691 77.4795C10.1758 77.6437 10.312 77.8199 10.4778 78.008C10.5578 78.1094 10.6525 78.2169 10.762 78.3304L10.9189 78.4976C10.9811 78.5573 11.0285 78.611 11.0907 78.6708C11.3393 78.9097 11.6175 79.1605 11.9253 79.4234C12.0022 79.4891 12.0792 79.5548 12.1709 79.6265C12.2478 79.6922 12.3396 79.7639 12.4313 79.8356C12.6 79.973 12.7893 80.1015 12.9876 80.2508C13.3752 80.5287 13.7806 80.8483 14.248 81.1412C14.4817 81.2876 14.7095 81.449 14.958 81.6014C15.0793 81.6851 15.2065 81.7538 15.3278 81.8375C15.4491 81.9212 15.5763 81.9899 15.7183 82.0647C17.792 83.2842 20.4242 84.5223 23.4698 85.4956C23.6679 85.5585 23.8453 85.6303 24.0493 85.6783L24.6347 85.8461C25.0368 85.957 25.4182 86.0768 25.841 86.1788C26.249 86.2748 26.6718 86.3767 27.0798 86.4727C27.2838 86.5207 27.5025 86.5747 27.7065 86.6227C27.9164 86.6558 28.1352 86.7097 28.3451 86.7428C28.5549 86.7759 28.7737 86.8299 28.9836 86.863C29.2083 86.902 29.4123 86.9501 29.6428 86.9742C30.0774 87.0464 30.5178 87.1036 30.9671 87.1818C31.0824 87.1939 31.1918 87.2209 31.3071 87.233L31.6115 87.2871C31.8421 87.3112 32.0579 87.3294 32.2884 87.3536C32.519 87.3777 32.7495 87.4019 32.9653 87.4201C33.1958 87.4443 33.4323 87.4536 33.648 87.4717C33.8786 87.4959 34.1505 87.5023 34.4313 87.5295C34.582 87.5386 34.7327 87.5478 34.8983 87.5629C35.0638 87.5781 35.2352 87.5783 35.4066 87.5785C35.7642 87.585 36.1514 87.6034 36.5592 87.6129C36.6597 87.619 36.7602 87.6251 36.8813 87.6223C36.9877 87.6135 37.103 87.6256 37.2094 87.6168C37.431 87.6201 37.6586 87.6085 37.895 87.6177C39.7863 87.6054 42.1326 87.4834 44.8272 87.0875C45.5038 86.9811 46.1951 86.8806 46.9189 86.7415C47.2794 86.6972 47.6369 86.6172 48.0091 86.5432C48.3666 86.4632 48.7447 86.3742 49.1228 86.2853C49.3119 86.2408 49.5009 86.1964 49.69 86.1519C49.7816 86.1371 49.8791 86.1074 49.9765 86.0777C50.074 86.048 50.1656 86.0332 50.2631 86.0036C50.6471 85.8997 51.0311 85.7959 51.4299 85.698C51.619 85.6536 51.8198 85.5793 52.0148 85.5199C52.2097 85.4606 52.4047 85.4012 52.5996 85.3418C52.9954 85.2082 53.4001 85.0954 53.8017 84.9468C54.2034 84.7983 54.614 84.6706 55.0304 84.5281C55.1279 84.4984 55.2313 84.4538 55.3346 84.4092C55.438 84.3646 55.5355 84.3349 55.6388 84.2904C55.8456 84.2012 56.0464 84.1269 56.2679 84.0437C56.4746 83.9545 56.6902 83.8862 56.897 83.7971C57.1037 83.7079 57.3104 83.6187 57.5171 83.5295C57.7238 83.4404 57.9306 83.3512 58.1432 83.2471C58.2465 83.2025 58.3499 83.1579 58.4591 83.0985L58.6245 83.0271L58.7751 82.9498C59.1944 82.7565 59.6197 82.5484 60.0449 82.3402C60.1541 82.2807 60.2575 82.2362 60.3667 82.1767C60.476 82.1172 60.5793 82.0726 60.6886 82.0131C60.9012 81.909 61.1049 81.7841 61.3234 81.6651C61.5419 81.5461 61.7545 81.442 61.9582 81.3171C62.1619 81.1921 62.3804 81.0731 62.5841 80.9481C62.7878 80.8232 63.0063 80.7042 63.2159 80.5643C63.3251 80.5048 63.4344 80.4454 63.5288 80.3799C63.6381 80.3204 63.7384 80.24 63.8477 80.1805C64.2669 79.9008 64.6949 79.642 65.1141 79.3622C65.3237 79.2224 65.5333 79.0825 65.7488 78.9277C65.9584 78.7879 66.1591 78.6271 66.3687 78.4873C67.204 77.892 68.0275 77.2401 68.8479 76.5524C69.6683 75.8647 70.465 75.1501 71.241 74.3579C72.011 73.5807 72.7632 72.7617 73.474 71.874C73.6628 71.6566 73.822 71.4272 73.996 71.2038C74.17 70.9804 74.3292 70.751 74.509 70.5127C74.6682 70.2833 74.8333 70.039 74.9925 69.8096C75.0751 69.6875 75.1517 69.5802 75.2343 69.4581C75.3168 69.3359 75.3994 69.2138 75.4671 69.0856C76.0772 68.1054 76.6489 67.0923 77.1525 66.0344C77.2732 65.7722 77.4146 65.501 77.5354 65.2388C77.6413 64.9705 77.7679 64.6934 77.8739 64.4251C78.1212 63.8857 78.3094 63.3224 78.5124 62.7651C78.6242 62.4819 78.7006 62.2017 78.7976 61.9126C78.8888 61.6384 78.9711 61.3433 79.0681 61.0541C79.1445 60.7739 79.2267 60.4788 79.2942 60.1778L79.4147 59.7426L79.4411 59.6323L79.4675 59.522L79.5203 59.3014C79.5878 59.0003 79.6494 58.7141 79.7169 58.413L79.7697 58.1924C79.7843 58.1119 79.7931 58.0463 79.8077 57.9658L79.8838 57.5127C79.9306 57.2205 79.9833 56.9134 80.0301 56.6213C80.0621 56.3231 80.1 56.0101 80.132 55.7119L80.1874 55.2677C80.196 55.1156 80.2047 54.9635 80.2133 54.8115C80.2305 54.5073 80.2477 54.2032 80.265 53.899C80.2736 53.747 80.2822 53.5949 80.276 53.4368L80.2871 52.9747L80.2981 52.5125L80.3007 52.2888C80.2947 52.2173 80.2945 52.1308 80.2885 52.0592C80.2762 51.7431 80.2727 51.4479 80.2604 51.1318C80.2542 50.9737 80.2628 50.8217 80.236 50.6725L80.1968 50.2073C80.1638 49.9001 80.1455 49.5989 80.1184 49.2768C80.0854 48.9696 80.0524 48.6624 80.0046 48.3492C79.8222 47.1174 79.5542 45.8855 79.1798 44.6624C78.7996 43.4542 78.3129 42.2547 77.6668 41.1118C77.0206 39.9688 76.2446 38.8942 75.3002 37.9416C75.2381 37.8819 75.1759 37.8222 75.1286 37.7684L74.9421 37.5893C74.8178 37.4698 74.7023 37.3713 74.578 37.2518C74.3235 37.0278 74.0335 36.8067 73.7229 36.5946C73.4122 36.3825 73.0454 36.1822 72.6403 36.0355C72.2411 35.8739 71.7887 35.76 71.3011 35.7354C70.8489 35.708 70.3672 35.755 69.8857 35.8886C69.419 36.0281 68.9879 36.2511 68.619 36.5339C68.2501 36.8167 67.9551 37.1294 67.7044 37.4601C67.4538 37.7907 67.2533 38.1244 67.0825 38.4701C66.7467 39.1465 66.5469 39.8262 66.3973 40.5088C66.2684 41.1826 66.1897 41.8594 66.1909 42.5512C66.1912 42.7242 66.1915 42.8971 66.1917 43.0701L66.1949 43.1923L66.2039 43.2997L66.2161 43.5293L66.2553 43.9946L66.3004 44.4449C66.3125 44.5881 66.3334 44.7521 66.3455 44.8952L66.4053 45.3516C66.4384 45.6587 66.4921 45.957 66.5457 46.2553C66.7546 47.4633 67.0344 48.6654 67.4117 49.8378C67.7889 51.0103 68.2489 52.147 68.8181 53.2243C71.0359 57.596 75.0371 61.0128 79.6343 62.0956C81.9226 62.6415 84.2836 62.5255 86.4193 61.938C87.4946 61.6472 88.5016 61.2251 89.4465 60.7434C90.3914 60.2616 91.2859 59.6903 92.0917 59.0831C93.7387 57.8657 95.1401 56.4452 96.3316 54.9916C97.529 53.5232 98.5431 51.9978 99.371 50.4662C99.4771 50.2844 99.5743 50.0818 99.6804 49.9001C99.7363 49.8017 99.7717 49.7123 99.8276 49.614C99.8688 49.5097 99.919 49.4262 99.9602 49.3219C100.051 49.1342 100.143 48.9464 100.234 48.7587C100.325 48.571 100.417 48.3832 100.493 48.1895C100.661 47.8081 100.823 47.4415 100.985 47.0749C101.132 46.7024 101.279 46.3298 101.426 45.9573C101.988 44.4909 102.432 43.0632 102.791 41.7218C102.87 41.3909 102.955 41.0451 103.034 40.7142C103.113 40.3833 103.172 40.0613 103.245 39.7453C103.275 39.5843 103.319 39.4294 103.348 39.2684C103.377 39.1074 103.401 38.9613 103.43 38.8003C103.483 38.4932 103.535 38.1862 103.582 37.894C103.76 36.7044 103.898 35.6192 103.949 34.6203C103.963 34.3668 103.987 34.1343 103.995 33.8957C104.004 33.6572 104.006 33.4335 104.024 33.2159C104.026 32.9922 104.038 32.7895 104.034 32.5807C104.046 32.378 104.042 32.1692 104.033 31.9754C104.039 31.7875 104.03 31.5937 104.029 31.4207C104.029 31.2478 104.029 31.0748 104.008 30.9108C103.996 30.5947 103.977 30.2935 103.962 30.0281C103.947 29.7627 103.92 29.527 103.896 29.3272C103.872 29.1274 103.851 28.9633 103.824 28.8142C103.773 28.5517 103.741 28.4175 103.696 28.3995C103.661 28.4025 103.623 28.5426 103.588 28.8049C103.57 28.9361 103.556 29.1031 103.544 29.3058C103.533 29.5086 103.53 29.7322 103.495 29.9946C103.481 30.2481 103.449 30.5462 103.426 30.8653C103.411 31.0322 103.397 31.1992 103.382 31.3662C103.368 31.5331 103.347 31.715 103.336 31.9178C103.315 32.0996 103.304 32.3024 103.278 32.4992C103.251 32.6959 103.234 32.9136 103.202 33.1253C103.17 33.337 103.152 33.5546 103.129 33.7872C103.091 34.0138 103.068 34.2463 103.024 34.4878C102.884 35.4508 102.687 36.5121 102.441 37.6569C102.379 37.943 102.303 38.2232 102.236 38.5243C102.197 38.6644 102.168 38.8254 102.13 38.9655C102.086 39.1205 102.048 39.2606 102.004 39.4156C101.915 39.7256 101.848 40.0267 101.754 40.3516C101.666 40.6616 101.557 40.9805 101.463 41.3054C101.057 42.5931 100.557 43.9463 99.9594 45.3291C99.8034 45.6807 99.6532 46.0175 99.4913 46.384C99.3205 46.7297 99.1438 47.0903 98.9729 47.4359C98.6106 48.1362 98.2365 48.8663 97.8091 49.5575C96.9781 50.9669 95.9756 52.376 94.8075 53.6835C93.6483 55.0118 92.3175 56.2535 90.8061 57.3011C89.2948 58.3486 87.6028 59.2021 85.7772 59.6559C84.8674 59.8753 83.9278 59.9962 82.985 59.995C82.7427 60.0006 82.5122 59.9764 82.2757 59.9672C82.1546 59.97 82.0393 59.9579 81.924 59.9458C81.8087 59.9337 81.6935 59.9216 81.5634 59.9035C81.3181 59.8734 81.0934 59.8343 80.854 59.7893C80.6204 59.7293 80.3809 59.6842 80.1474 59.6243C78.2847 59.1297 76.4952 58.1462 74.9828 56.8082C74.2192 56.1362 73.5205 55.3867 72.9015 54.5659C72.2825 53.745 71.7432 52.8526 71.2776 51.9037C70.3613 50.0119 69.7491 47.9147 69.4381 45.7493C69.4081 45.4779 69.3574 45.2155 69.3333 44.9292C69.3033 44.6577 69.2733 44.3863 69.2581 44.1209L69.2308 43.7124L69.2036 43.3038L69.2002 43.0951L69.1912 42.9877L69.1911 42.9012C69.1879 42.779 69.1847 42.6567 69.1964 42.5404C69.2133 42.0633 69.2716 41.5684 69.3831 41.1123C69.4799 40.6502 69.6358 40.2121 69.8332 39.8426C70.0306 39.4731 70.2577 39.2021 70.4525 39.0562C70.547 38.9907 70.6355 38.9402 70.7271 38.9254C70.8603 39.0657 70.9667 39.0569 71.082 39.069C71.1825 39.0751 71.3067 39.1081 71.4397 39.1619C71.5728 39.2158 71.7385 39.3174 71.9041 39.419C72.0639 39.5355 72.2474 39.6789 72.425 39.8372L72.6973 40.103L72.8364 40.2284C72.8897 40.2672 72.9222 40.315 72.9696 40.3688C74.3492 41.8259 75.3305 43.7267 75.9161 45.7612C76.2163 46.7815 76.419 47.8314 76.5596 48.9081C76.5896 49.1795 76.6196 49.4509 76.6555 49.7074C76.6707 49.9728 76.6801 50.2531 76.7101 50.5245L76.7374 50.9331C76.7494 51.0763 76.7467 51.2134 76.7499 51.3357C76.7444 51.61 76.7596 51.8754 76.7541 52.1498C76.7602 52.2214 76.7514 52.2869 76.7575 52.3585L76.7164 52.5493L76.6934 52.9548L76.6705 53.3603C76.6677 53.4975 76.665 53.6347 76.6475 53.7658C76.6272 54.0342 76.607 54.3026 76.5868 54.5709C76.5692 54.7021 76.5665 54.8393 76.549 54.9704L76.4965 55.364C76.4614 55.6264 76.4264 55.8887 76.3855 56.166C76.3505 56.4284 76.2948 56.6996 76.245 56.956L76.1983 57.3347C76.1895 57.4003 76.1808 57.4658 76.1572 57.5255L76.1162 57.7163C76.0605 57.9875 76.0107 58.2439 75.9461 58.4943L75.905 58.6851L75.8845 58.7805L75.8639 58.8759L75.7612 59.2664C75.6966 59.5168 75.6113 59.7761 75.5467 60.0265C75.4673 60.2709 75.382 60.5302 75.3026 60.7746C75.2233 61.0191 75.138 61.2784 75.0438 61.5168C74.8496 62.0086 74.676 62.4914 74.4581 62.9563C74.3491 63.1887 74.255 63.4272 74.146 63.6596C74.037 63.892 73.9133 64.1185 73.8043 64.351C73.3537 65.2748 72.8203 66.1477 72.2838 66.9849C72.2219 67.0982 72.1511 67.1905 72.0745 67.2978C71.9978 67.405 71.927 67.4973 71.8652 67.6106C71.7177 67.8102 71.5851 68.0157 71.4377 68.2153C71.2902 68.4149 71.128 68.6085 70.9806 68.8081C70.8331 69.0077 70.6857 69.2073 70.5146 69.38C69.8716 70.1395 69.2108 70.8573 68.5174 71.5273C67.8182 72.2122 67.0922 72.8344 66.3514 73.4507C65.6166 74.052 64.858 74.6265 64.0817 75.1592C63.8928 75.2902 63.7038 75.4211 63.4942 75.561C63.3053 75.6919 63.1016 75.8169 62.9127 75.9478C62.526 76.1888 62.1392 76.4298 61.7525 76.6708C61.658 76.7363 61.5636 76.8018 61.4602 76.8464C61.3657 76.9118 61.2624 76.9564 61.1679 77.0219C60.9701 77.132 60.7723 77.242 60.5892 77.3581C60.3914 77.4682 60.1936 77.5782 60.0106 77.6943C59.8186 77.7894 59.6208 77.8995 59.4289 77.9946C59.2369 78.0898 59.0391 78.1999 58.8472 78.295C58.7586 78.3456 58.6552 78.3902 58.5608 78.4557C58.4722 78.5062 58.3689 78.5508 58.2655 78.5954C57.8668 78.7797 57.4889 78.9551 57.105 79.1455L56.9603 79.2079L56.8156 79.2703C56.7122 79.3149 56.6295 79.3506 56.5262 79.3952C56.3401 79.4754 56.1334 79.5646 55.9473 79.6448C55.7613 79.7251 55.5605 79.7994 55.3744 79.8796C55.1736 79.9539 54.9934 80.0193 54.7926 80.0935C54.6065 80.1738 54.4116 80.2332 54.2255 80.3134C54.1281 80.3431 54.0395 80.3937 53.942 80.4234C53.8445 80.4531 53.756 80.5036 53.6585 80.5333C53.2834 80.658 52.9083 80.7828 52.5332 80.9075C52.158 81.0322 51.7888 81.142 51.4196 81.2519C51.2453 81.3023 51.0504 81.3617 50.8761 81.4122C50.7018 81.4626 50.5069 81.522 50.3385 81.5575C49.9751 81.6525 49.6177 81.7325 49.2691 81.8334C49.1775 81.8482 49.0948 81.8839 49.0032 81.8987C48.9116 81.9134 48.829 81.9491 48.7374 81.9639C48.569 81.9994 48.3799 82.0439 48.2115 82.0795C47.8747 82.1506 47.5173 82.2306 47.1805 82.3017C46.8496 82.3579 46.5128 82.429 46.1819 82.4852C45.529 82.6185 44.8849 82.6862 44.2645 82.7808C41.7855 83.1084 39.6431 83.1919 37.9084 83.1985C37.6867 83.1952 37.4799 83.1979 37.273 83.2006C37.1725 83.1945 37.0661 83.2033 36.9656 83.1972C36.8651 83.1911 36.7646 83.185 36.6789 83.1848C36.2918 83.1664 35.949 83.166 35.612 83.1506C35.4465 83.1354 35.2899 83.1412 35.1392 83.132C34.9884 83.1229 34.8525 83.1197 34.7224 83.1016C34.4564 83.0804 34.2052 83.0651 34.0042 83.0529C33.7884 83.0348 33.5875 83.0225 33.3717 83.0044C33.1559 82.9862 32.9608 82.9591 32.7451 82.9409C32.5293 82.9227 32.3342 82.8956 32.1185 82.8774L31.8081 82.8382C31.7076 82.8321 31.5982 82.8051 31.4977 82.799C31.0869 82.7537 30.6819 82.6935 30.2769 82.6333C30.0818 82.6062 29.8719 82.5731 29.6768 82.546C29.4818 82.5189 29.2719 82.4858 29.0827 82.4438C28.8876 82.4167 28.6925 82.3896 28.5033 82.3476C28.3082 82.3205 28.119 82.2785 27.9298 82.2365C27.5455 82.1674 27.1671 82.0833 26.7828 82.0142C26.4043 81.9302 26.0407 81.8522 25.6623 81.7682L25.1095 81.6482C24.9203 81.6062 24.7517 81.5552 24.5773 81.5192C21.7125 80.8264 19.1784 79.991 17.0759 79.1919C16.9428 79.138 16.8039 79.0991 16.6856 79.0512C16.5525 78.9973 16.4342 78.9495 16.3012 78.8956C16.0646 78.7999 15.8132 78.6981 15.5707 78.6173C15.0917 78.4407 14.654 78.2463 14.2252 78.0727C14.0182 77.9889 13.8112 77.9052 13.619 77.8274C13.5155 77.7855 13.4267 77.7496 13.338 77.7137C13.2493 77.6778 13.1606 77.6418 13.0571 77.6C12.7022 77.4563 12.3621 77.3187 12.0605 77.2139C11.9866 77.184 11.9126 77.1541 11.8328 77.1391C11.7589 77.1091 11.6998 77.0852 11.6258 77.0553C11.4928 77.0014 11.3538 76.9625 11.2355 76.9146C10.993 76.8337 10.7742 76.7798 10.5998 76.7438C10.2155 76.6746 9.96732 76.6952 9.88477 76.8173Z" fill="white"/>
<path d="M20.6333 84.472C21.5501 84.8431 22.4934 85.1903 23.4692 85.4987C23.5283 85.5227 23.6081 85.5377 23.6673 85.5616C23.7856 85.6095 23.9245 85.6485 24.0487 85.6814L24.6341 85.8492C24.7435 85.8762 24.8677 85.9092 24.9712 85.9511C25.2491 86.029 25.5418 86.1129 25.8197 86.1908C26.2277 86.2868 26.6357 86.3828 27.0437 86.4787C27.1235 86.4938 27.1975 86.5237 27.2773 86.5387C27.4162 86.5777 27.5611 86.6017 27.6853 86.6347C27.8951 86.6678 28.1139 86.7218 28.3238 86.7549C28.4982 86.7909 28.6726 86.8269 28.8471 86.8629L28.9564 86.8899C29.0067 86.893 29.0363 86.9049 29.0865 86.908C29.2609 86.944 29.4354 86.98 29.6157 87.0011L30.1507 87.0794C30.4108 87.1155 30.6857 87.1577 30.9458 87.1938C30.9813 87.1909 31.0257 87.2088 31.0611 87.2059C31.1262 87.2149 31.206 87.23 31.2858 87.245L31.6109 87.2902C31.8267 87.3084 32.0366 87.3414 32.2671 87.3656L32.2967 87.3776C32.5273 87.4017 32.7578 87.4259 32.9736 87.4441C33.1243 87.4533 33.275 87.4624 33.4258 87.4715C33.5056 87.4866 33.5765 87.4807 33.6622 87.4808L34.4455 87.5386C34.5459 87.5447 34.6464 87.5508 34.7617 87.5629L34.9125 87.572C35.0129 87.5781 35.1341 87.5753 35.2346 87.5814C35.2996 87.5904 35.3558 87.5786 35.4208 87.5876C35.6276 87.5849 35.8434 87.6031 36.0798 87.6124L36.5882 87.628C36.6236 87.6251 36.6591 87.6221 36.7035 87.6401C36.7685 87.6491 36.8394 87.6433 36.9103 87.6374C37.0167 87.6286 37.132 87.6407 37.2383 87.6319C37.46 87.6351 37.6875 87.6235 37.924 87.6328C39.0085 87.6224 40.034 87.588 41.0918 87.5149C42.3477 87.4182 43.6153 87.2917 44.8503 87.1175C44.9773 87.0998 45.1044 87.0821 45.2373 87.0494C45.7868 86.9607 46.3511 86.878 46.9272 86.7655L47.2936 86.7063C47.5329 86.6649 47.7781 86.6086 48.0174 86.5672C48.3187 86.499 48.6201 86.4308 48.9214 86.3627L49.1311 86.3093C49.2227 86.2945 49.3202 86.2648 49.4118 86.25C49.5034 86.2352 49.6008 86.2056 49.6924 86.1908C49.784 86.176 49.8815 86.1463 49.979 86.1166C50.0764 86.0869 50.168 86.0721 50.2655 86.0425L50.6199 85.9267C50.8858 85.8614 51.1576 85.7813 51.4234 85.716C51.577 85.6745 51.7306 85.633 51.8901 85.5765C51.9315 85.5587 51.9669 85.5558 52.0083 85.5379C52.0851 85.5172 52.1825 85.4875 52.2593 85.4667C52.3775 85.4281 52.4956 85.3895 52.6138 85.3509C52.7113 85.3212 52.8087 85.2915 52.9121 85.2469C53.2045 85.1579 53.5176 85.0599 53.8159 84.9559C54.0522 84.8787 54.2944 84.7866 54.5307 84.7094L55.0446 84.5372C55.1421 84.5075 55.2396 84.4778 55.3488 84.4183C55.4522 84.3737 55.5497 84.344 55.653 84.2994C55.7357 84.2638 55.8332 84.2341 55.9159 84.1984C56.0399 84.1449 56.1581 84.1063 56.2821 84.0528L56.9111 83.8062C57.0558 83.7437 57.2064 83.6664 57.3659 83.61L57.5313 83.5386L58.1574 83.2562C58.2607 83.2116 58.3641 83.167 58.4733 83.1075L58.6387 83.0362L58.7893 82.9589L59.0019 82.8548C59.3444 82.6823 59.7017 82.5158 60.0649 82.3344C60.1063 82.3166 60.1476 82.2987 60.1742 82.2749C60.2362 82.2482 60.3189 82.2125 60.3868 82.1708L60.4695 82.1352C60.5522 82.0995 60.6201 82.0578 60.7086 82.0073L60.8681 81.9508C61.0246 81.8586 61.19 81.7873 61.3465 81.6951C61.565 81.5761 61.7776 81.472 61.9813 81.347L62.0698 81.2964C62.247 81.1953 62.43 81.0793 62.622 80.9841L62.8877 80.8324C63.0176 80.764 63.1386 80.6747 63.2685 80.6063L63.5815 80.4218C63.6494 80.3802 63.7173 80.3385 63.7852 80.2969C63.8265 80.279 63.8531 80.2552 63.9003 80.2225C64.1247 80.0886 64.3402 79.9338 64.5646 79.8C64.7683 79.675 64.9779 79.5351 65.1668 79.4042L65.8015 78.9697C65.9225 78.8804 66.0376 78.806 66.1586 78.7167C66.2531 78.6512 66.3269 78.5947 66.4213 78.5292C67.2832 77.9101 68.1215 77.2642 68.8947 76.6092C69.7121 75.8857 70.5206 75.1413 71.2582 74.4028C72.0548 73.6018 72.7981 72.7619 73.4912 71.9189C73.6475 71.7402 73.795 71.5406 73.9424 71.341C73.9748 71.3023 73.9866 71.2725 74.019 71.2338C74.193 71.0104 74.3464 70.7959 74.5203 70.5725L74.5321 70.5427C74.6353 70.4116 74.7503 70.2507 74.8446 70.0988C74.8947 70.0154 74.9596 69.9379 75.0097 69.8545L75.1247 69.6936C75.1689 69.6251 75.2132 69.5566 75.2515 69.5029C75.278 69.4791 75.2957 69.4344 75.3223 69.4106C75.3724 69.3272 75.4431 69.2348 75.4932 69.1514C76.2212 67.9596 76.7427 67.0299 77.1786 66.1002C77.2139 66.0108 77.264 65.9273 77.2993 65.8379C77.3847 65.6651 77.476 65.4773 77.5467 65.2985L77.9058 64.476C78.0796 64.0796 78.2296 63.6564 78.3826 63.2689C78.4415 63.1199 78.4855 62.9649 78.5385 62.8308C78.615 62.6371 78.6826 62.4225 78.7444 62.2228C78.7679 62.1632 78.7826 62.0827 78.812 62.0082C79.0751 62.0801 79.353 62.158 79.6162 62.2299C80.7308 62.4909 81.8983 62.6177 83.0655 62.5716C84.1915 62.5434 85.3053 62.3719 86.4012 62.0723C86.9182 61.9358 87.438 61.7487 87.9637 61.5466C88.448 61.3624 88.9353 61.1275 89.4284 60.8777C90.3319 60.4137 91.2205 59.8573 92.0736 59.2173C92.8528 58.6339 93.626 57.979 94.3577 57.2554C95.0245 56.6092 95.6912 55.8765 96.3194 55.111C97.4726 53.7111 98.4867 52.1857 99.3588 50.5856C99.4383 50.4276 99.5267 50.2906 99.6063 50.1327C99.6239 50.088 99.6564 50.0492 99.674 50.0045L99.7034 49.93C99.7477 49.8615 99.7771 49.787 99.8213 49.7185C99.8625 49.6142 99.9126 49.5307 99.9538 49.4264C100.033 49.2685 100.119 49.0956 100.184 48.9317L100.213 48.8572C100.231 48.8125 100.248 48.7678 100.281 48.7291C100.354 48.586 100.413 48.437 100.487 48.294C100.534 48.1748 100.602 48.0466 100.649 47.9274C100.764 47.6801 100.864 47.4267 100.979 47.1794L101.42 46.0618C101.941 44.6997 102.399 43.2779 102.784 41.8262C102.863 41.4954 102.949 41.1496 103.028 40.8187C103.081 40.5981 103.128 40.3924 103.16 40.1807C103.186 40.0704 103.213 39.9601 103.239 39.8498L103.342 39.3728L103.353 39.3431C103.377 39.197 103.4 39.0509 103.438 38.9108L103.488 38.6544C103.526 38.4278 103.558 38.2161 103.605 38.0105C103.807 36.6748 103.926 35.6343 103.972 34.7367C103.975 34.5996 103.993 34.4684 103.995 34.3312L104.018 34.0122C104.027 33.8601 104.027 33.6872 104.029 33.55C104.038 33.4844 104.032 33.4128 104.032 33.3263L104.043 32.6912C104.045 32.554 104.048 32.4169 104.051 32.2797C104.045 32.2081 104.048 32.1574 104.042 32.0859C104.044 31.9487 104.041 31.8264 104.038 31.7042L104.038 31.5312C104.038 31.3582 104.037 31.1853 104.016 31.0213C104.004 30.7052 103.986 30.4039 103.971 30.1385C103.964 29.894 103.931 29.6733 103.902 29.4884L103.904 29.4377C103.88 29.2378 103.859 29.0738 103.833 28.9247C103.797 28.6682 103.749 28.528 103.72 28.516C103.684 28.5189 103.646 28.659 103.611 28.9214C103.593 29.0526 103.579 29.2195 103.567 29.4223C103.559 29.4879 103.565 29.5595 103.55 29.64C103.547 29.7771 103.533 29.9441 103.518 30.1111C103.504 30.3645 103.472 30.6627 103.449 30.9817C103.44 31.1338 103.426 31.3008 103.405 31.4826C103.391 31.6496 103.37 31.8315 103.359 32.0342C103.35 32.0998 103.341 32.1654 103.342 32.2519C103.33 32.3682 103.312 32.4993 103.316 32.6216L103.292 32.8542C103.275 32.9854 103.257 33.1165 103.24 33.2477C103.225 33.3282 103.225 33.4147 103.211 33.4952C103.193 33.6264 103.19 33.7636 103.167 33.9096L103.062 34.6102C102.948 35.4629 102.766 36.4438 102.479 37.7793C102.417 38.0655 102.341 38.3457 102.274 38.6468C102.235 38.7869 102.203 38.9121 102.18 39.0581L102.162 39.1029L102.036 39.5529C102.039 39.6752 101.998 39.7795 101.971 39.8898C101.915 40.0746 101.868 40.2803 101.807 40.48C101.719 40.79 101.61 41.109 101.516 41.4339C101.069 42.8258 100.569 44.179 100.012 45.4575L99.5441 46.5125C99.441 46.73 99.338 46.9475 99.2201 47.1591C99.1523 47.2872 99.0787 47.4303 99.0257 47.5644C98.6693 48.2497 98.2952 48.9798 97.8619 49.6859C96.9866 51.1638 95.9753 52.552 94.8544 53.8268C94.2556 54.5178 93.6243 55.161 92.9869 55.7327C92.2905 56.3669 91.5822 56.9444 90.853 57.4444C89.2 58.5902 87.5168 59.3781 85.8241 59.7992C84.8936 60.0275 83.9599 60.1336 83.032 60.1383C82.8753 60.144 82.7098 60.1289 82.5384 60.1287C82.4734 60.1196 82.3877 60.1195 82.3168 60.1254C82.2163 60.1193 82.1158 60.1132 82.0212 60.0922C82.0064 60.0862 81.9857 60.0951 81.9561 60.0831L81.8054 60.074C81.7404 60.065 81.6754 60.0559 81.6044 60.0618C81.4596 60.0377 81.3147 60.0137 81.1847 59.9956C81.0901 59.9746 80.9896 59.9685 80.895 59.9475L80.8152 59.9325C80.6112 59.8845 80.4072 59.8365 80.1884 59.7825C79.9548 59.7226 79.7124 59.6417 79.4699 59.5609L79.511 59.3701L79.552 59.1793C79.6048 58.9587 79.6488 58.7172 79.7016 58.4966L79.7544 58.276C79.7573 58.2253 79.775 58.1806 79.7778 58.1299C79.7896 58.1001 79.7807 58.0792 79.7925 58.0494L79.8686 57.5963C79.8891 57.5009 79.9007 57.3846 79.9212 57.2892C79.9475 57.0924 79.9886 56.9017 80.0148 56.7049L80.1168 55.7955L80.1781 55.3364C80.1838 55.235 80.1896 55.1336 80.1953 55.0322C80.1982 54.9815 80.201 54.9309 80.2039 54.8802L80.2299 54.5104C80.2503 54.3286 80.25 54.1556 80.2704 53.9737C80.282 53.8574 80.2788 53.7352 80.2846 53.6338C80.2816 53.598 80.2786 53.5622 80.2814 53.5116L80.2925 53.0494L80.3061 52.3635C80.309 52.3128 80.3119 52.2621 80.3 52.2055C80.2911 52.1846 80.3028 52.1548 80.2998 52.119C80.2875 51.8029 80.284 51.5077 80.2717 51.1916C80.2746 51.1409 80.2626 51.0842 80.2655 51.0335C80.2713 50.9321 80.2563 50.8396 80.2473 50.7323L80.2081 50.2671C80.1841 50.0672 80.1808 49.8585 80.1627 49.6438L80.1297 49.3366C80.1148 49.2441 80.0998 49.1517 80.0997 49.0652C80.0816 48.8504 80.0487 48.6297 80.0159 48.409C79.9203 47.7827 79.8099 47.1503 79.6818 46.5627C79.5508 45.9393 79.3842 45.3188 79.1912 44.7221C78.9951 44.0897 78.7724 43.4811 78.5321 42.9172C78.274 42.3115 77.9952 41.7147 77.6781 41.1715C76.9994 39.9808 76.2026 38.9151 75.3116 38.0014C75.2494 37.9417 75.1872 37.882 75.1399 37.8282L74.9534 37.649C74.9149 37.6162 74.8764 37.5833 74.8528 37.5565C74.7669 37.4699 74.6752 37.3982 74.5893 37.3116C74.2668 37.0428 74.0063 36.8337 73.7342 36.6544C73.3939 36.4303 73.0508 36.2568 72.7255 36.1252C72.7108 36.1192 72.6812 36.1072 72.6664 36.1013C72.2376 35.9277 71.7794 35.8287 71.3272 35.8012C70.8395 35.7767 70.3579 35.8237 69.9118 35.9543C69.4658 36.0849 69.0199 36.302 68.6451 36.5997C68.3086 36.8437 67.9929 37.1654 67.7157 37.5198C67.4916 37.8267 67.2764 38.1544 67.0938 38.5299C66.7964 39.1527 66.567 39.8203 66.4086 40.5686C66.2738 41.2572 66.201 41.9192 66.2022 42.611C66.2055 42.8197 66.2117 42.9778 66.203 43.1299L66.2062 43.2521L66.2275 43.5891L66.2519 44.0483L66.2969 44.4987C66.3088 44.5554 66.306 44.6061 66.3179 44.6627C66.3328 44.7552 66.3419 44.8626 66.3509 44.9699L66.4108 45.4262C66.4289 45.641 66.4676 45.8468 66.5064 46.0526C66.5213 46.1451 66.5362 46.2375 66.5512 46.33C66.7542 47.5529 67.0487 48.761 67.4171 49.9125C67.8033 51.1058 68.278 52.2486 68.8235 53.299C69.1764 54.0122 69.5912 54.6986 70.0533 55.3523C69.606 54.7046 69.197 54.0032 68.8235 53.299C68.278 52.2486 67.8033 51.1058 67.4171 49.9125C67.0487 48.761 66.7542 47.5529 66.5512 46.33C66.5362 46.2375 66.5213 46.1451 66.5064 46.0526C66.4676 45.8468 66.4348 45.6261 66.4108 45.4262L66.3509 44.9699C66.336 44.8775 66.3269 44.7701 66.3179 44.6627C66.306 44.6061 66.3088 44.5554 66.2969 44.4987L66.2519 44.0483L66.2062 43.2521L66.203 43.1299C66.191 42.9867 66.1907 42.8137 66.2022 42.611C66.2158 41.9251 66.2738 41.2572 66.4086 40.5686C66.567 39.8203 66.7668 39.1407 67.079 38.5239C67.2616 38.1484 67.4621 37.8147 67.7009 37.5139C67.9781 37.1594 68.2879 36.8527 68.6155 36.5877C69.0051 36.296 69.4362 36.073 69.8823 35.9424C70.3283 35.8118 70.7951 35.7587 71.2976 35.7892C71.7498 35.8167 72.208 35.9157 72.6368 36.0893C72.9917 36.2329 73.3644 36.4183 73.7342 36.6544C74.0063 36.8337 74.2815 37.0488 74.5893 37.3116C74.6752 37.3982 74.7669 37.4699 74.8528 37.5565C74.8764 37.5833 74.9149 37.6162 74.9534 37.649L75.1399 37.8282C75.202 37.888 75.2494 37.9417 75.2968 37.9954C76.2085 38.9002 77.0141 39.9868 77.6781 41.1715C77.9952 41.7147 78.274 42.3115 78.5321 42.9172C78.7724 43.4811 78.9951 44.0897 79.1912 44.7221C79.3694 45.3128 79.536 45.9333 79.6818 46.5627C79.8099 47.1503 79.9203 47.7827 80.0159 48.409C80.0487 48.6297 80.0668 48.8445 80.0997 49.0652C80.0998 49.1517 80.1148 49.2441 80.1297 49.3366L80.1627 49.6438C80.1867 49.8436 80.1752 50.0463 80.1992 50.2462L80.2384 50.7114C80.2474 50.8188 80.2476 50.9052 80.2566 51.0126C80.2537 51.0633 80.2657 51.12 80.2628 51.1707C80.281 51.4719 80.2786 51.782 80.2909 52.0981C80.2998 52.119 80.288 52.1488 80.2911 52.1846C80.2882 52.2353 80.3001 52.2919 80.2972 52.3426L80.2946 52.5663L80.2836 53.0285L80.2814 53.5116C80.2786 53.5622 80.2816 53.598 80.2846 53.6338C80.273 53.7501 80.282 53.8574 80.2704 53.9737C80.25 54.1556 80.2503 54.3286 80.2299 54.5104L80.2039 54.8802C80.201 54.9309 80.1982 54.9815 80.1953 55.0322C80.1896 55.1336 80.1838 55.235 80.1781 55.3364L80.1227 55.7806L80.0207 56.69C79.9945 56.8867 79.9623 57.0984 79.9212 57.2892C79.9007 57.3846 79.8891 57.5009 79.8686 57.5963L79.7925 58.0494C79.7807 58.0792 79.7896 58.1001 79.7778 58.1299C79.775 58.1806 79.7632 58.2104 79.7603 58.2611L79.7075 58.4817C79.6547 58.7023 79.6048 58.9587 79.552 59.1793L79.511 59.3701L79.4699 59.5609C78.3019 59.1746 77.1572 58.5557 76.1009 57.7998L76.1156 57.7194L76.1566 57.5286C76.1743 57.4839 76.1713 57.4481 76.1741 57.3974C76.18 57.3825 76.177 57.3467 76.1829 57.3318L76.2502 56.9442C76.2708 56.8488 76.2913 56.7534 76.297 56.6521C76.3263 56.4911 76.3615 56.3152 76.3908 56.1542L76.3878 56.1184C76.4228 55.856 76.4519 55.6086 76.4811 55.3611L76.5336 54.9676C76.5483 54.8871 76.5481 54.8006 76.548 54.7141C76.5508 54.6634 76.5537 54.6127 76.5566 54.562L76.574 54.3444C76.5854 54.1416 76.6117 53.9448 76.6173 53.757C76.6231 53.6556 76.6288 53.5542 76.6345 53.4529C76.6315 53.4171 76.6433 53.3873 76.6403 53.3515L76.6632 52.946L76.6829 52.3317C76.6858 52.281 76.6828 52.2452 76.6856 52.1945C76.6767 52.1737 76.6885 52.1439 76.6796 52.123L76.6753 51.3089C76.6782 51.2582 76.6811 51.2075 76.678 51.1717C76.6779 51.0852 76.6777 50.9988 76.6776 50.9123L76.6503 50.5037C76.6351 50.2383 76.6258 49.958 76.5958 49.6866C76.5809 49.5941 76.5807 49.5076 76.5717 49.4003C76.5507 49.2362 76.5356 49.0573 76.5206 48.8784C76.371 47.7808 76.1742 46.7159 75.877 45.7315C75.5738 44.6755 75.1851 43.7058 74.7108 42.8225C74.2039 41.8914 73.6114 41.0467 72.9453 40.345C72.9127 40.2972 72.8595 40.2584 72.8121 40.2046L72.673 40.0792L72.4007 39.8134C72.1994 39.6283 72.0307 39.4909 71.8798 39.3953C71.7053 39.2728 71.5485 39.192 71.4154 39.1382C71.4007 39.1322 71.3859 39.1262 71.3859 39.1262C71.2824 39.0843 71.173 39.0573 71.0577 39.0452C70.9424 39.0332 70.8361 39.0419 70.7386 39.0716C70.6411 39.1013 70.5584 39.137 70.464 39.2025C70.2544 39.3423 70.0214 39.6283 69.8446 39.9889C69.6531 40.3435 69.4972 40.7816 69.3946 41.2586C69.292 41.7355 69.2189 42.2245 69.2078 42.6867C69.2021 42.7881 69.1994 42.9252 69.2025 43.0475L69.2027 43.1339L69.2209 43.4352L69.2719 43.8706L69.2991 44.2792C69.3202 44.5297 69.3354 44.7951 69.3772 45.0367L69.3891 45.0934C69.4042 45.2723 69.4341 45.4572 69.4639 45.6421C69.4789 45.7346 69.4938 45.8271 69.4998 45.8986C69.6553 46.9813 69.8817 48.0581 70.1877 49.0635C70.4968 50.1046 70.8886 51.1101 71.3452 52.0381C71.8138 53.0228 72.3679 53.9211 72.9691 54.7003C73.5881 55.5212 74.2868 56.2706 75.0504 56.9426C75.3966 57.2383 75.7636 57.525 76.1216 57.7909L75.9455 58.4974L75.8839 58.7836L75.7458 59.2635L75.5313 60.0236C75.4872 60.1786 75.4343 60.3127 75.3902 60.4677C75.349 60.572 75.3285 60.6674 75.2873 60.7718C75.2578 60.8463 75.2432 60.9268 75.2137 61.0013C75.1638 61.1712 75.0932 61.35 75.0284 61.5139C74.9696 61.6629 74.9166 61.797 74.8636 61.9312C74.7282 62.2739 74.6077 62.6226 74.4427 62.9534L74.1306 63.6567C74.057 63.7998 73.9833 63.9428 73.9097 64.0858C73.8596 64.1693 73.8243 64.2587 73.7742 64.3421C73.2793 65.3344 72.7016 66.2759 72.2536 66.9761C72.2035 67.0595 72.1593 67.128 72.1003 67.1906C72.0737 67.2144 72.062 67.2442 72.0295 67.2829C71.9587 67.3753 71.9027 67.4736 71.832 67.5659L71.8202 67.5957C71.7701 67.6791 71.7111 67.7417 71.661 67.8251C71.5726 67.9622 71.4752 68.0783 71.3868 68.2154C71.2394 68.415 71.0772 68.6086 70.9297 68.8082C70.8973 68.8469 70.8707 68.8707 70.8531 68.9154C70.7381 69.0763 70.6083 69.2312 70.4785 69.3861C69.8621 70.1218 69.1806 70.8484 68.4814 71.5333C67.8087 72.1944 67.0768 72.8315 66.3154 73.4567C65.6071 74.0342 64.8485 74.6087 64.0456 75.1652L63.4582 75.567C63.2693 75.698 63.0862 75.814 62.8973 75.945L62.8766 75.9539C62.5991 76.1354 62.3275 76.302 62.0559 76.4686L61.7164 76.6769C61.6751 76.6947 61.6485 76.7185 61.622 76.7423C61.5541 76.784 61.5068 76.8168 61.4389 76.8584L61.3297 76.9179C61.2677 76.9446 61.1998 76.9863 61.1525 77.019L60.5738 77.3552C60.4587 77.4296 60.3288 77.498 60.2137 77.5724L59.9952 77.6914C59.8446 77.7687 59.694 77.846 59.5434 77.9233L59.3928 78.0007C59.2009 78.0958 59.0031 78.2059 58.8111 78.301C58.7284 78.3367 58.6605 78.3784 58.5778 78.4141L58.5158 78.4408C58.4538 78.4676 58.3918 78.4943 58.3239 78.536C58.2825 78.5538 58.256 78.5776 58.2205 78.5806C57.8219 78.7649 57.438 78.9552 57.06 79.1306L56.9153 79.193L56.7706 79.2555C56.6673 79.3001 56.5846 79.3357 56.4812 79.3803C56.3365 79.4427 56.1918 79.5052 56.0323 79.5616L55.7015 79.7043C55.5775 79.7578 55.4535 79.8113 55.3147 79.8588L55.0725 79.9509C54.9543 79.9895 54.851 80.0341 54.7328 80.0727C54.5468 80.153 54.3518 80.2123 54.1658 80.2926L53.8823 80.4026C53.7789 80.4471 53.6814 80.4768 53.6046 80.4976C53.389 80.5659 53.1675 80.6491 52.9519 80.7174L52.4793 80.8718C52.2016 80.9668 51.9299 81.047 51.6581 81.1271C51.5607 81.1568 51.4632 81.1865 51.3657 81.2162C51.2328 81.2488 51.1146 81.2874 50.9758 81.3349L50.8222 81.3764C50.7809 81.3943 50.7454 81.3972 50.7041 81.415C50.5652 81.4626 50.4175 81.4892 50.2787 81.5367L50.1812 81.5664C49.8534 81.6584 49.5314 81.7355 49.2094 81.8126C49.1532 81.8244 49.1119 81.8422 49.0558 81.8541L48.9435 81.8778C48.846 81.9075 48.7692 81.9282 48.6776 81.943C48.5092 81.9786 48.3202 82.0231 48.1518 82.0586L48.0957 82.0705C47.7589 82.1416 47.4369 82.2187 47.1208 82.2809L46.7544 82.34C46.5358 82.3725 46.3319 82.411 46.1133 82.4435C45.5933 82.5442 45.0851 82.615 44.5976 82.677C44.4706 82.6947 44.3287 82.7064 44.1958 82.739C42.098 83.0135 40.0177 83.1568 37.8397 83.1567L37.2043 83.1588C37.1038 83.1527 36.9975 83.1615 36.9118 83.1614C36.8408 83.1673 36.7906 83.1642 36.7256 83.1552C36.6901 83.1581 36.6605 83.1462 36.6251 83.1491C36.2379 83.1307 35.8951 83.1302 35.5582 83.1148C35.4931 83.1058 35.437 83.1177 35.3868 83.1146C35.2863 83.1085 35.1858 83.1024 35.1001 83.1023C34.9996 83.0962 34.9139 83.0961 34.8341 83.0811L34.6833 83.0719L34.4469 83.0626C34.2666 83.0415 34.11 83.0473 33.9651 83.0232C33.8794 83.0231 33.8144 83.014 33.7287 83.0139C33.5927 83.0108 33.4627 82.9927 33.3267 82.9895C33.2263 82.9834 33.1258 82.9773 33.0164 82.9503C32.9159 82.9442 32.8006 82.9321 32.7001 82.926C32.4991 82.9138 32.2893 82.8807 32.0883 82.8685L31.7779 82.8293C31.7129 82.8203 31.6479 82.8113 31.5828 82.8022C31.5474 82.8052 31.503 82.7872 31.4675 82.7902L31.302 82.775C30.9562 82.7387 30.6015 82.6816 30.2556 82.6453C30.1049 82.6362 29.9453 82.6061 29.8004 82.5821C29.7502 82.579 29.7058 82.5611 29.6556 82.5581C29.4605 82.5309 29.2506 82.4979 29.0555 82.4708C28.9402 82.4587 28.8308 82.4317 28.7156 82.4196L28.4554 82.3834C28.3254 82.3654 28.216 82.3384 28.0859 82.3203C28.0209 82.3113 27.9411 82.2963 27.8761 82.2872L27.3469 82.1941C27.137 82.161 26.933 82.113 26.7232 82.0799C26.5044 82.0259 26.2797 81.9868 26.0757 81.9389C25.9161 81.9088 25.7623 81.8639 25.6027 81.8338L25.0499 81.7138C24.9405 81.6868 24.8163 81.6538 24.7069 81.6268C24.6478 81.6029 24.5827 81.5939 24.5029 81.5788C23.1755 81.249 21.8154 80.8714 20.473 80.4491C19.3139 80.0837 18.1519 79.6825 17.0015 79.2516C16.9572 79.2336 16.898 79.2097 16.8537 79.1917C16.7797 79.1618 16.7058 79.1319 16.6319 79.1019C16.5136 79.0541 16.3657 78.9942 16.2474 78.9464C16.0257 78.8566 15.8186 78.7728 15.591 78.6979L15.517 78.668C15.2154 78.5632 14.9404 78.4346 14.6742 78.3269C14.4968 78.2551 14.3489 78.1953 14.1863 78.1294C13.9793 78.0457 13.7723 77.9619 13.58 77.8841C13.4913 77.8482 13.4026 77.8123 13.3139 77.7764L13.2843 77.7644C13.1956 77.7285 13.1069 77.6926 13.0034 77.6507C12.6485 77.5071 12.3084 77.3695 12.0068 77.2647L11.7791 77.1898L11.5721 77.106C11.439 77.0522 11.3001 77.0132 11.1818 76.9653C10.9393 76.8845 10.7205 76.8305 10.5461 76.7945C10.1825 76.7165 9.94906 76.743 9.86063 76.88C9.77809 77.0022 9.84053 77.2349 10.0449 77.5423C10.1516 77.7064 10.2879 77.8826 10.4537 78.0707C10.5336 78.1722 10.6284 78.2796 10.7379 78.3931L10.8948 78.5603C10.9422 78.614 11.0102 78.6589 11.0576 78.7126L11.0724 78.7186C11.321 78.9575 11.6051 79.1934 11.907 79.4712L11.9692 79.5309C12.0372 79.5757 12.0846 79.6295 12.1468 79.6892C12.2237 79.7549 12.3154 79.8266 12.4072 79.8983C12.5906 80.0417 12.78 80.1702 12.9635 80.3136C13.0315 80.3584 13.1084 80.4241 13.1765 80.4689C13.5108 80.7079 13.8393 80.9618 14.2091 81.1979C14.4428 81.3444 14.6706 81.5057 14.9191 81.6581L15.0463 81.7269C15.1291 81.7777 15.212 81.8285 15.2948 81.8793C15.3776 81.9301 15.4605 81.9809 15.5433 82.0317C15.5877 82.0497 15.6261 82.0826 15.6705 82.1005C16.7532 82.7461 17.9392 83.3471 19.1725 83.9154C19.6723 84.083 20.1454 84.2745 20.6333 84.472ZM78.812 62.0082C78.7826 62.0827 78.7679 62.1632 78.7444 62.2228C78.6826 62.4225 78.6209 62.6222 78.5385 62.8308C78.4796 62.9798 78.4208 63.1288 78.3826 63.2689C78.2385 63.6773 78.0943 64.0856 77.9058 64.476L77.5673 65.2896C77.4819 65.4624 77.3906 65.6502 77.32 65.829C77.2847 65.9184 77.2346 66.0018 77.1993 66.0913C76.7634 67.021 76.2419 67.9507 75.5139 69.1425C75.4579 69.2408 75.4078 69.3243 75.3429 69.4017C75.3164 69.4255 75.2987 69.4702 75.2721 69.494C75.2279 69.5626 75.1896 69.6162 75.1454 69.6847L75.0304 69.8456C74.9803 69.929 74.9154 70.0064 74.8653 70.0899C74.771 70.2418 74.6412 70.3967 74.5321 70.5427L74.5203 70.5725C74.3464 70.7959 74.2078 71.0164 74.0338 71.2398C74.0014 71.2785 73.9748 71.3023 73.9424 71.341C73.8008 71.5257 73.6682 71.7313 73.5119 71.91C72.8129 72.7678 72.0696 73.6077 71.2788 74.3939C70.5354 75.1473 69.7327 75.8768 68.8858 76.5883C68.1126 77.2433 67.2891 77.8952 66.4213 78.5292C66.3269 78.5947 66.2531 78.6512 66.1586 78.7167C66.0376 78.806 65.9166 78.8953 65.8015 78.9697L65.152 79.3982C64.9483 79.5232 64.7535 79.669 64.5646 79.8C64.3402 79.9338 64.1247 80.0886 63.9003 80.2225C63.8531 80.2552 63.8265 80.279 63.7852 80.2969C63.7173 80.3385 63.6346 80.3742 63.5667 80.4159L63.2685 80.6063C63.1386 80.6747 63.0235 80.7491 62.8877 80.8324L62.6072 80.9781C62.4241 81.0942 62.2618 81.2013 62.0698 81.2964L61.9813 81.347C61.7628 81.466 61.5502 81.5701 61.3465 81.6951C61.19 81.7873 61.0246 81.8586 60.8681 81.9508L60.6969 82.0371C60.6142 82.0728 60.5463 82.1144 60.4577 82.165L60.375 82.2007C60.3071 82.2423 60.2451 82.2691 60.1624 82.3047C60.1211 82.3226 60.0797 82.3404 60.0532 82.3642C59.6958 82.5307 59.3592 82.6883 59.0019 82.8548L58.7893 82.9589L58.6328 83.0511L58.4733 83.1075C58.37 83.1521 58.2607 83.2116 58.1574 83.2562L57.5313 83.5386L57.3659 83.61C57.2212 83.6724 57.0558 83.7437 56.9111 83.8062L56.2821 84.0528C56.1581 84.1063 56.0399 84.1449 55.9159 84.1984C55.8332 84.2341 55.7357 84.2638 55.653 84.2994C55.5497 84.344 55.4522 84.3737 55.3488 84.4183C55.2307 84.4569 55.1273 84.5015 55.0446 84.5372L54.5307 84.7094C54.2944 84.7866 54.0522 84.8787 53.8159 84.9559C53.5176 85.0599 53.2045 85.1579 52.9121 85.2469C52.8146 85.2766 52.7172 85.3063 52.6197 85.336C52.5015 85.3746 52.3893 85.3983 52.2711 85.4369C52.1943 85.4577 52.0968 85.4873 52.02 85.5081C51.9787 85.5259 51.9432 85.5289 51.9019 85.5467C51.7483 85.5883 51.5888 85.6447 51.4352 85.6862C51.1693 85.7515 50.8976 85.8316 50.6317 85.8968L50.2684 85.9918C50.1709 86.0215 50.0793 86.0362 49.9818 86.0659C49.8844 86.0956 49.7869 86.1253 49.6953 86.1401C49.6037 86.1549 49.5062 86.1846 49.4087 86.2143C49.3172 86.229 49.2197 86.2587 49.1281 86.2735L48.9184 86.3269C48.617 86.3951 48.3157 86.4632 48.0144 86.5314C47.7751 86.5728 47.5299 86.6291 47.2906 86.6706L46.9183 86.7446C46.3423 86.8571 45.7779 86.9398 45.2284 87.0285C45.1014 87.0463 44.9743 87.064 44.8473 87.0817C43.6064 87.2708 42.3387 87.3973 41.0888 87.4791C40.0457 87.5582 39.0055 87.5866 37.921 87.597C37.6786 87.6026 37.457 87.5994 37.2353 87.5961C37.129 87.6049 37.0137 87.5928 36.9073 87.6016C36.8364 87.6074 36.7714 87.5984 36.7004 87.6043C36.665 87.6072 36.6295 87.6101 36.5852 87.5922L36.0768 87.5766C35.8404 87.5673 35.6335 87.57 35.4178 87.5518C35.3527 87.5428 35.2966 87.5546 35.2316 87.5456C35.1104 87.5484 35.0099 87.5423 34.9094 87.5362L34.7587 87.5271C34.6434 87.515 34.5429 87.5089 34.4424 87.5028L33.6592 87.445C33.5794 87.43 33.4937 87.4299 33.4228 87.4358C33.272 87.4266 33.1213 87.4175 32.9765 87.3934C32.7459 87.3692 32.5153 87.3451 32.2996 87.3269L32.27 87.3149C32.0542 87.2967 31.8444 87.2636 31.6138 87.2395L31.268 87.2032C31.203 87.1942 31.1231 87.1791 31.0433 87.1641C31.0138 87.1522 30.9635 87.1491 30.928 87.152C30.6679 87.1159 30.393 87.0738 30.1329 87.0376L29.5979 86.9594C29.4175 86.9383 29.2431 86.9022 29.0687 86.8662C29.0244 86.8483 28.9889 86.8512 28.9386 86.8481L28.8293 86.8212C28.6548 86.7851 28.4804 86.7491 28.3001 86.728C28.0902 86.6949 27.8714 86.6409 27.6616 86.6078C27.5167 86.5838 27.3778 86.5448 27.2536 86.5118C27.1886 86.5028 27.1146 86.4729 27.0348 86.4579C26.6268 86.3619 26.204 86.2599 25.7961 86.1639C25.5034 86.08 25.2254 86.0021 24.9475 85.9242C24.8381 85.8972 24.7139 85.8642 24.6104 85.8223L24.025 85.6546C23.9038 85.6574 23.7708 85.6035 23.6466 85.5705C23.5874 85.5466 23.5135 85.5167 23.4485 85.5076C21.9878 85.0375 20.5713 84.4988 19.205 83.8766C17.9658 83.3233 16.7856 82.7074 15.697 82.0767C15.6527 82.0587 15.6142 82.0259 15.5698 82.0079C15.487 81.9571 15.4042 81.9063 15.3213 81.8555C15.2385 81.8047 15.1557 81.7539 15.0729 81.7031L14.9457 81.6343C14.712 81.4879 14.4841 81.3265 14.2356 81.1741C13.8658 80.938 13.5167 80.693 13.203 80.4451C13.1202 80.3943 13.058 80.3346 12.99 80.2897C12.8065 80.1464 12.6172 80.0179 12.4337 79.8745C12.342 79.8028 12.2503 79.7311 12.1733 79.6654C12.1112 79.6057 12.0579 79.5668 11.9957 79.5071L11.9336 79.4474C11.6258 79.1845 11.3328 78.9277 11.0989 78.6948L11.09 78.6739C11.0279 78.6141 10.9746 78.5753 10.9273 78.5216L10.7703 78.3544C10.6608 78.2409 10.5661 78.1334 10.4861 78.0319C10.3114 77.823 10.1752 77.6468 10.0774 77.5036C9.87297 77.1961 9.81053 76.9634 9.89307 76.8413C9.97561 76.7192 10.209 76.6926 10.5786 76.7558C10.753 76.7918 10.9718 76.8458 11.2142 76.9266C11.3384 76.9596 11.4567 77.0075 11.6046 77.0673L11.8116 77.1511L12.0245 77.22C12.261 77.3157 12.5331 77.4085 12.814 77.5222C12.8879 77.5522 12.9619 77.5821 13.0358 77.612C13.1245 77.6479 13.2132 77.6838 13.3167 77.7257L13.3463 77.7377C13.435 77.7736 13.5237 77.8095 13.6125 77.8454C13.8047 77.9232 14.0117 78.007 14.2187 78.0907C14.3814 78.1566 14.544 78.2224 14.7066 78.2882C14.9728 78.3959 15.2537 78.5096 15.5495 78.6293L15.6234 78.6592C15.8452 78.749 16.0522 78.8328 16.2799 78.9076C16.3982 78.9555 16.5313 79.0094 16.6495 79.0572C16.7235 79.0872 16.8122 79.1231 16.8861 79.153C16.9305 79.1709 16.9896 79.1949 17.034 79.2128C18.1843 79.6438 19.3464 80.045 20.5055 80.4104C21.8478 80.8327 23.2079 81.2103 24.5354 81.5401C24.6004 81.5492 24.6595 81.5731 24.7394 81.5881C24.8487 81.6151 24.9729 81.6481 25.0823 81.6751L25.6351 81.7951C25.7948 81.8251 25.9485 81.8701 26.1082 81.9001C26.3122 81.9481 26.5368 81.9872 26.7556 82.0412C26.9655 82.0743 27.1695 82.1223 27.3793 82.1554L27.9085 82.2485C27.9735 82.2576 28.0533 82.2726 28.1184 82.2816C28.2425 82.3146 28.3578 82.3267 28.4879 82.3447L28.748 82.3809C28.8633 82.393 28.9727 82.42 29.088 82.432C29.283 82.4591 29.4929 82.4922 29.6821 82.5342C29.7324 82.5373 29.7767 82.5552 29.827 82.5583C29.9718 82.5823 30.1315 82.6124 30.2822 82.6215C30.628 82.6578 30.9828 82.7149 31.3286 82.7512L31.4941 82.7663C31.5296 82.7634 31.5739 82.7813 31.6094 82.7784C31.6744 82.7874 31.7394 82.7965 31.8045 82.8055L32.1207 82.8298C32.3217 82.842 32.5168 82.8691 32.7178 82.8813C32.8183 82.8874 32.9483 82.9055 33.0488 82.9116C33.1493 82.9177 33.2439 82.9387 33.3592 82.9508C33.4892 82.9689 33.6252 82.972 33.7611 82.9752C33.841 82.9902 33.9119 82.9844 33.9917 82.9994C34.1424 83.0085 34.3079 83.0237 34.4794 83.0239L34.7099 83.0481L34.8606 83.0572C34.9463 83.0573 35.0409 83.0784 35.1266 83.0785C35.2271 83.0846 35.3128 83.0847 35.4133 83.0908C35.4636 83.0938 35.5286 83.1029 35.5847 83.091C35.9069 83.1004 36.2586 83.1218 36.6516 83.1253C36.6871 83.1223 36.7167 83.1343 36.7521 83.1314C36.8172 83.1404 36.8733 83.1286 36.9383 83.1376C37.0388 83.1437 37.1304 83.1289 37.2309 83.135L37.8693 83.1687C40.0621 83.1747 42.1424 83.0314 44.2254 82.751C44.3524 82.7333 44.4943 82.7216 44.6213 82.7038C45.1147 82.627 45.617 82.571 46.137 82.4703C46.3408 82.4319 46.5595 82.3994 46.7781 82.3669L47.1445 82.3077C47.4606 82.2455 47.7826 82.1685 48.1193 82.0973L48.1755 82.0855C48.3439 82.0499 48.5329 82.0055 48.7013 81.9699C48.7781 81.9492 48.8697 81.9344 48.9672 81.9047L49.0794 81.881C49.1356 81.8691 49.1769 81.8513 49.233 81.8394C49.555 81.7624 49.8829 81.6704 50.2049 81.5933L50.3024 81.5636C50.4501 81.5369 50.5889 81.4894 50.7278 81.4419C50.7632 81.439 50.8046 81.4211 50.8459 81.4033L50.9995 81.3618C51.1324 81.3291 51.2506 81.2905 51.3894 81.243C51.4869 81.2133 51.5844 81.1837 51.6818 81.154C51.9536 81.0738 52.2253 80.9937 52.503 80.8986L52.9756 80.7442C53.1912 80.6759 53.4068 80.6076 53.6283 80.5245C53.7051 80.5037 53.8026 80.474 53.9118 80.4145L54.1954 80.3046C54.3755 80.2392 54.5764 80.1649 54.7624 80.0847C54.8658 80.0401 54.9839 80.0015 55.1021 79.9629L55.3236 79.8797C55.4476 79.8262 55.5716 79.7727 55.7104 79.7252L56.0353 79.5974C56.18 79.535 56.3247 79.4726 56.4842 79.4161C56.5876 79.3715 56.6703 79.3359 56.7736 79.2913L56.9242 79.2139L57.0689 79.1515C57.4469 78.9761 57.8456 78.7917 58.2294 78.6014C58.2708 78.5836 58.2973 78.5598 58.3328 78.5569C58.3948 78.5301 58.4568 78.5033 58.5247 78.4617L58.5867 78.4349C58.6694 78.3993 58.7373 78.3576 58.82 78.322C59.012 78.2268 59.2098 78.1167 59.4017 78.0216L59.5523 77.9442C59.7029 77.8669 59.8535 77.7896 60.0041 77.7123L60.2226 77.5933C60.3377 77.5189 60.4676 77.4505 60.5828 77.3761L61.1614 77.0399C61.2234 77.0132 61.2913 76.9715 61.3386 76.9388L61.4389 76.8584C61.5068 76.8168 61.5836 76.796 61.6367 76.7483C61.6633 76.7245 61.7046 76.7067 61.746 76.6889L62.0855 76.4806C62.3571 76.314 62.6346 76.1324 62.9062 75.9658L62.9269 75.9569C63.1099 75.8409 63.2988 75.7099 63.4878 75.579L64.0693 75.1921C64.8574 74.6296 65.6308 74.0611 66.3391 73.4836C67.1005 72.8584 67.8323 72.2213 68.5051 71.5602C69.2043 70.8753 69.8858 70.1486 70.5022 69.4129C70.632 69.258 70.7618 69.1032 70.8768 68.9423C70.9092 68.9036 70.9358 68.8798 70.9534 68.835C71.1008 68.6355 71.2631 68.4419 71.4105 68.2423C71.5137 68.1112 71.5963 67.989 71.6847 67.852C71.7348 67.7686 71.7938 67.706 71.8439 67.6226L71.8557 67.5928C71.9264 67.5005 71.9824 67.4021 72.0532 67.3098C72.065 67.28 72.0915 67.2562 72.1181 67.2323C72.1623 67.1638 72.2272 67.0864 72.2773 67.0029C72.7253 66.3028 73.303 65.3613 73.7978 64.369C73.8479 64.2855 73.8833 64.1961 73.9334 64.1127C74.007 63.9697 74.0807 63.8266 74.1543 63.6836L74.4664 62.9803C74.6165 62.6435 74.7519 62.3008 74.8873 61.9581C74.9403 61.8239 74.9991 61.6749 75.0521 61.5408C75.1168 61.3769 75.1875 61.1981 75.2374 61.0282C75.2669 60.9536 75.2815 60.8732 75.3109 60.7986C75.3521 60.6943 75.3727 60.5989 75.4139 60.4946C75.7215 60.671 76.0291 60.8473 76.3427 61.0088C77.1117 61.4064 77.9545 61.7475 78.812 62.0082ZM78.812 62.0082C78.3803 61.8853 77.9515 61.7118 77.5375 61.5442C76.7982 61.245 76.0824 60.8862 75.3902 60.4677C75.4343 60.3127 75.4872 60.1786 75.5313 60.0236L75.7458 59.2635L75.8839 58.7836L75.9455 58.4974L76.1009 57.7998C76.9679 58.4272 77.8819 58.9354 78.8134 59.3125C79.0352 59.4022 79.257 59.492 79.4847 59.5668L79.4524 59.692L79.426 59.8023L79.3055 60.2375C79.2468 60.473 79.1881 60.7085 79.1205 60.9231L79.0705 61.093L78.8296 61.9634C78.8238 61.9783 78.812 62.0082 78.812 62.0082ZM103.72 28.516C103.749 28.528 103.811 28.6742 103.847 28.9307C103.865 29.0589 103.895 29.2438 103.925 29.4288L103.922 29.4795C103.952 29.6644 103.97 29.8791 103.991 30.1296C104.006 30.395 104.031 30.6813 104.037 31.0123C104.052 31.1913 104.052 31.3642 104.059 31.5223L104.059 31.6953C104.062 31.8175 104.059 31.9547 104.062 32.0769C104.054 32.1425 104.066 32.1992 104.072 32.2708C104.075 32.393 104.072 32.5302 104.069 32.6674L104.032 33.3263C104.023 33.3919 104.029 33.4635 104.029 33.55C104.027 33.6872 104.027 33.8601 104.018 34.0122L103.995 34.3312C103.993 34.4684 103.975 34.5996 103.972 34.7367C103.912 35.6283 103.792 36.6688 103.605 38.0105C103.573 38.2221 103.52 38.4427 103.488 38.6544L103.438 38.9108C103.415 39.0569 103.392 39.2029 103.353 39.3431L103.342 39.3728L103.239 39.8498C103.213 39.9601 103.186 40.0704 103.16 40.1807C103.113 40.3864 103.075 40.613 103.028 40.8187C102.949 41.1496 102.869 41.4805 102.784 41.8262C102.399 43.2779 101.941 44.6997 101.42 46.0618L100.979 47.1794C100.878 47.4327 100.764 47.6801 100.649 47.9274C100.602 48.0466 100.534 48.1748 100.487 48.294C100.428 48.443 100.354 48.586 100.281 48.7291C100.263 48.7738 100.245 48.8185 100.213 48.8572L100.184 48.9317C100.104 49.0896 100.019 49.2625 99.9538 49.4264C99.9126 49.5307 99.8625 49.6142 99.8213 49.7185C99.7771 49.787 99.7477 49.8615 99.7034 49.93L99.674 50.0045C99.6564 50.0492 99.6239 50.088 99.6063 50.1327C99.5326 50.2757 99.4531 50.4336 99.3588 50.5856C98.4867 52.1857 97.4726 53.7111 96.3194 55.111C95.6912 55.8765 95.0304 56.5943 94.3577 57.2554C93.6319 57.9641 92.8528 58.6339 92.0736 59.2173C91.2205 59.8573 90.3113 60.4226 89.4284 60.8777C88.9353 61.1275 88.448 61.3624 87.9637 61.5466C87.438 61.7487 86.9182 61.9358 86.4012 62.0723C84.1474 62.6984 81.7951 62.7488 79.6162 62.2299C79.3472 62.1729 79.0692 62.095 78.812 62.0082C78.8179 61.9933 78.8238 61.9783 78.8296 61.9634L79.0942 61.1199L79.1442 60.95C79.2029 60.7145 79.2616 60.479 79.3292 60.2644L79.4761 59.7189L79.5084 59.5937C79.7508 59.6746 79.9785 59.7494 80.2269 59.8154C80.4309 59.8634 80.6349 59.9113 80.8536 59.9653L80.9335 59.9803C81.0281 60.0013 81.1285 60.0075 81.2231 60.0285C81.368 60.0525 81.4981 60.0706 81.6429 60.0946C81.7079 60.1037 81.773 60.1127 81.8439 60.1068L81.9709 60.0891C81.9857 60.0951 81.9916 60.0802 82.0212 60.0922C82.1217 60.0983 82.2311 60.1253 82.3374 60.1165C82.4083 60.1106 82.4882 60.1256 82.5591 60.1197C82.7098 60.1289 82.8812 60.1291 83.0526 60.1294C83.9806 60.1247 84.9143 60.0186 85.8448 59.7903C87.5316 59.3841 89.2207 58.5813 90.8737 57.4355C91.6028 56.9355 92.3111 56.358 93.0075 55.7238C93.6508 55.1372 94.2822 54.4939 94.881 53.8029C96.0018 52.5282 97.0132 51.14 97.8826 49.677C98.301 48.9649 98.6899 48.2408 99.0464 47.5555C99.1142 47.4273 99.173 47.2783 99.2408 47.1502C99.3438 46.9326 99.4469 46.7151 99.5648 46.5035L100.033 45.4486C100.589 44.1701 101.089 42.8169 101.536 41.425C101.63 41.1001 101.739 40.7811 101.827 40.4711C101.889 40.2714 101.936 40.0657 101.992 39.8809C102.018 39.7706 102.051 39.6454 102.092 39.5411L102.218 39.091L102.236 39.0463C102.274 38.9062 102.306 38.781 102.33 38.6349C102.397 38.3338 102.474 38.0536 102.535 37.7674C102.817 36.4468 102.983 35.46 103.118 34.5984L103.223 33.8978C103.247 33.7517 103.264 33.6205 103.267 33.4833C103.281 33.4029 103.281 33.3164 103.296 33.2359C103.313 33.1047 103.331 32.9735 103.349 32.8423L103.372 32.6098C103.389 32.4786 103.401 32.3623 103.398 32.24C103.407 32.1744 103.406 32.088 103.415 32.0224C103.436 31.8405 103.441 31.6526 103.462 31.4708C103.482 31.2889 103.496 31.1219 103.505 30.9699C103.528 30.6508 103.539 30.3616 103.574 30.0992C103.589 29.9322 103.603 29.7653 103.606 29.6281C103.606 29.5416 103.615 29.4761 103.624 29.4105C103.635 29.2077 103.65 29.0407 103.667 28.9095C103.661 28.665 103.669 28.5129 103.72 28.516ZM71.4154 39.1382C71.4302 39.1442 71.4391 39.165 71.4391 39.165C71.5722 39.2189 71.7231 39.3145 71.9035 39.4221C72.0544 39.5177 72.2231 39.6552 72.4244 39.8403L72.6967 40.1061L72.8358 40.2315C72.889 40.2703 72.9216 40.3181 72.969 40.3719C73.6351 41.0735 74.2334 41.9033 74.7345 42.8493C75.2088 43.7326 75.6064 44.7232 75.9007 45.7584C76.1831 46.7368 76.3947 47.8076 76.5443 48.9052C76.5593 49.0842 76.5803 49.2482 76.5954 49.4271C76.6103 49.5196 76.6104 49.6061 76.6254 49.6985C76.6406 49.964 76.6499 50.2443 76.6799 50.5157L76.7072 50.9243C76.7073 51.0107 76.7075 51.0972 76.7076 51.1837C76.7047 51.2344 76.7019 51.285 76.7049 51.3208L76.7092 52.1349C76.7181 52.1558 76.7063 52.1856 76.7152 52.2065C76.7182 52.2423 76.7154 52.293 76.7184 52.3288L76.7158 52.5524L76.6928 52.9579L76.6846 53.3694C76.6877 53.4052 76.6759 53.435 76.6789 53.4708C76.6732 53.5722 76.6674 53.6736 76.6617 53.7749C76.6502 53.9777 76.6239 54.1745 76.6183 54.3623L76.6068 54.5651C76.604 54.6158 76.6011 54.6665 76.5982 54.7172C76.5984 54.8036 76.5837 54.8841 76.5839 54.9706L76.5313 55.3642C76.5022 55.6116 76.4671 55.874 76.438 56.1215L76.441 56.1573C76.4117 56.3182 76.3766 56.4941 76.3473 56.6551C76.3268 56.7505 76.3062 56.8459 76.3005 56.9473L76.1977 57.3378C76.1859 57.3676 76.18 57.3825 76.1741 57.3974C76.1713 57.4481 76.1743 57.4839 76.1714 57.5345L76.1098 57.8207C75.7518 57.5548 75.3849 57.2681 75.0386 56.9724C74.275 56.3004 73.5764 55.5509 72.9573 54.7301C72.362 53.936 71.8079 53.0377 71.3334 52.0679C70.8768 51.1399 70.485 50.1344 70.176 49.0933C69.8758 48.073 69.6435 47.0111 69.488 45.9285C69.4731 45.836 69.4582 45.7435 69.4522 45.672C69.4223 45.487 69.4072 45.3081 69.3774 45.1232L69.3655 45.0665C69.3444 44.816 69.3085 44.5595 69.2874 44.309L69.2601 43.9004L69.2205 43.1757L69.2203 43.0892C69.2172 42.967 69.214 42.8447 69.2256 42.7284C69.2426 42.2513 69.295 41.7713 69.4124 41.3003C69.515 40.8233 69.6709 40.3852 69.8625 40.0306C70.0333 39.6849 70.2722 39.3841 70.4818 39.2442C70.5762 39.1788 70.6589 39.1431 70.7564 39.1134C70.8597 39.0688 70.9661 39.06 71.0814 39.0721C71.1967 39.0842 71.2972 39.0903 71.4154 39.1382Z" fill="white"/>
</svg>
